<svg xmlns="http://www.w3.org/2000/svg" xmlns:xlink="http://www.w3.org/1999/xlink" version="1.1" id="Layer_1" x="0px" y="0px" viewBox="0 0 200 173.8" style="enable-background:new 0 0 200 173.8;" xml:space="preserve">
<style type="text/css">
	.st0{opacity:0.8;fill:#C49A6C;enable-background:new    ;}
	.st1{fill:#FFFFFF;}
</style>
<g>
	<g id="new_cart_x5F_qty_x5F_wish">
		<path class="st0" d="M181.9,173.8h-163c-10.1,0-18.1-8.3-18.1-18.1V18.1C0.8,8,9.2,0,18.9,0h163C192,0,200,8.3,200,18.1v137.6    C200,165.9,192,173.8,181.9,173.8z"/>
		<path id="NEW_CART_1_" class="st1" d="M68.5,125.3C68.5,125.3,68.5,124.9,68.5,125.3c-5.8,0-6.5-2.9-4.7-7.6    c1.1-2.9,2.2-6.2,3.3-9.1c-5.1-0.7-5.4-1.1-6.2-6.2c-3.3-19.2-6.9-38.4-10.5-57.9c0-0.7-1.1-1.8-1.8-2.2c-4.3-1.8-8.7-3.3-13-5.1    c-1.1-0.4-2.5-1.1-2.9-1.8c-0.7-1.1-1.1-2.9-0.7-4c0.4-1.1,2.2-1.8,3.3-2.5c0.7-0.4,1.4,0,2.2,0.4c5.8,2.2,11.2,4.7,17,6.9    c1.8,0.7,2.9,2.2,2.9,4c3.6,19.2,7.2,38.7,10.5,57.9c0,0.7,0.4,1.4,0.7,2.2c0.7,0,1.4,0,2.5,0c19.2,0,38,0,57.2,0    c1.8,0,2.9-0.7,3.3-2.5c4-13,8.3-26.1,12.3-39.1c0.4-0.7,0.4-1.1,0.7-2.2c-6.2-0.4-12-0.7-17.7-0.7c-16.3-0.7-33-1.4-49.2-2.2    c-1.4,0-2.9,0-4-0.4c-2.5-0.4-3.6-2.2-3.3-4.3c0.4-2.2,1.8-3.3,4.3-3.3c11.6,0.4,23.2,1.1,35.1,1.4c13.4,0.7,26.4,1.1,39.8,1.8    c4.3,0,5.8,2.2,4.3,6.2c-5.1,16.3-10.5,32.6-15.6,48.9c-1.1,3.3-1.8,4-5.4,4c-18.5,0-36.9,0-55.8,0c-1.8,0-2.9,0.4-3.3,2.5    c-0.7,2.5-1.8,5.1-2.5,7.6c1.4,0,2.2,0,3.3,0c19.2,0,38.4,0,57.6,0c0.7,0,1.4,0,2.5,0c1.8,0,2.9,1.1,2.9,2.9s-0.7,2.9-2.5,3.3    c-1.1,0.4-2.5,0.4-3.6,0.4c3.6,8.3,2.9,13.4-2.5,17c-4.3,3.3-10.1,2.9-14.5-0.4c-4.7-4-5.4-9.1-1.8-16.7c-8.3,0-16.3,0-25,0    c2.2,3.3,3.6,6.9,2.2,10.9c-1.1,2.5-2.5,4.7-4.7,6.5c-4,3.3-10.5,2.9-14.5-0.7C65.6,137.6,64.9,131.8,68.5,125.3z M78,138    c2.9,0,5.1-2.5,5.1-5.4s-2.5-5.4-5.4-5.1c-2.9,0-5.1,2.5-5.1,5.4C72.9,135.8,75.4,138.3,78,138z M116,132.9c0,2.9,2.2,5.1,5.1,5.4    c2.5,0,5.1-2.5,5.4-5.1c0-2.9-2.2-5.4-5.1-5.4C118.5,127.8,116,130,116,132.9z"/>
	</g>
	<g id="Zoom">
	</g>
</g>
</svg>