<?xml version="1.0" encoding="utf-8"?>
<!-- Generator: Adobe Illustrator 19.1.0, SVG Export Plug-In . SVG Version: 6.00 Build 0)  -->
<svg version="1.1" xmlns="http://www.w3.org/2000/svg" xmlns:xlink="http://www.w3.org/1999/xlink" x="0px" y="0px"
	 viewBox="0 0 51.5 50.1" style="enable-background:new 0 0 51.5 50.1;" xml:space="preserve">
<style type="text/css">
	.st0{fill:url(#SVGID_1_);}
</style>
<g id="_x34__x5F_COL_x5F_SQ">
	<g>
		
			<radialGradient id="SVGID_1_" cx="-182.5385" cy="-272.7234" r="52.3764" gradientTransform="matrix(1 0 0 1 192.4434 282.4648)" gradientUnits="userSpaceOnUse">
			<stop  offset="0" style="stop-color:#00B8E9"/>
			<stop  offset="0.427" style="stop-color:#009ACA"/>
			<stop  offset="0.5077" style="stop-color:#0090BD"/>
			<stop  offset="0.8347" style="stop-color:#006D8E"/>
			<stop  offset="1" style="stop-color:#00607E"/>
		</radialGradient>
		<path class="st0" d="M45.8,35.2c0,0-0.1,0-0.2,0l-3.4,0V35c-0.4,0.2-0.8,0.2-1.2,0.2c0,0-0.1,0-0.2,0l-2,0v0H34v0h-3.3v-1
			c0,0,0-0.7,0-0.8c0,0-0.1,0-0.2,0c0,0.4,0,1.8,0,1.8h-3.4v-2c-0.6,0.2-1.2,0.3-1.8,0.3c0,0-0.2,0-0.3,0c0,0.3,0,1.7,0,1.7h-4
			c0,0-0.6-0.7-1-1.1c-0.3,0.4-1,1.1-1,1.1h-6.5v-7.3H19c0,0,0.7,0.8,1.1,1.2c0.4-0.4,1.1-1.2,1.1-1.2h0.4l1,0h3.2
			c0.2,0,0.7,0,1.2,0.2v-0.2h4.2c0.2,0,0.7,0,1.3,0.2v-0.2h5.2h1v0.2c0.6-0.2,1.1-0.2,1.2-0.2l3.5,0v0.2c0.6-0.2,1.1-0.2,1.2-0.2
			l2.5,0V3.8H3.9v18.7l1.5-3.5h3.2c0,0,0.4,0.9,0.4,0.9c0-0.1,0-0.9,0-0.9h3.8c0,0,0.6,1.3,0.8,1.9c0.3-0.6,0.8-1.9,0.8-1.9H17h0.3
			h1h3.7h0.3h1h2.9c0.2,0,0.7,0,1.3,0.2v-0.2h2.4h1v0.4c0.5-0.3,1.1-0.5,1.6-0.5c0,0,1.8,0,1.9,0.1l0,0h3.2c0,0,0.3,0.8,0.4,0.9
			c0-0.2,0-0.9,0-0.9h3.5c0,0,0.5,0.8,0.6,0.9c0-0.1,0-0.9,0-0.9h3.4v7.3h-3.4c0,0-0.5-0.8-0.6-1c0,0.1,0,1,0,1H37
			c0,0-0.4-0.9-0.5-1.1c-0.4,0-0.7,0-1.1,0c-0.1,0.2-0.5,1.1-0.5,1.1H32l-0.1,0c-0.3,0-0.7-0.2-1.1-0.4v0.5h-2.4c0,0,0,0,0,0h-3v-1
			c0,0,0-0.7,0-0.8c0,0-0.1,0-0.2,0c0,0.4,0,1.8,0,1.8h-2.1h-1.3h-3.7H18h-3.1c0,0,0-0.1,0-0.1c0,0-0.1,0.1-0.1,0.1h-2.4
			c0,0,0-0.1-0.1-0.1c0,0,0,0.1,0,0.1H8.1c0,0-0.4-0.9-0.5-1.1c-0.4,0-0.7,0-1.1,0C6.4,25.4,6,26.2,6,26.2h-2v20.1h43.5V34.8
			C46.9,35.1,46.4,35.2,45.8,35.2z"/>
		<g>
			<g>
				<defs>
					<path id="SVGID_2_" d="M26.5,25.2v-1c0,0-0.1-0.8-0.9-0.8h-1.3v1.8H23v-5.3h3.3c0,0,1.7-0.2,1.7,1.6c0,0.9-0.8,1.2-0.8,1.2
						s0.7,0.3,0.7,1.2v1.3H26.5 M24.3,22.1h1.4c0.4,0,0.7-0.2,0.7-0.5c0-0.3-0.3-0.5-0.7-0.5h-1.4V22.1L24.3,22.1"/>
				</defs>
				<radialGradient id="SVGID_3_" cx="9.9219" cy="9.7434" r="52.3765" gradientUnits="userSpaceOnUse">
					<stop  offset="0" style="stop-color:#00B8E9"/>
					<stop  offset="0.427" style="stop-color:#009ACA"/>
					<stop  offset="0.5077" style="stop-color:#0090BD"/>
					<stop  offset="0.8347" style="stop-color:#006D8E"/>
					<stop  offset="1" style="stop-color:#00607E"/>
				</radialGradient>
				<use xlink:href="#SVGID_2_"  style="overflow:visible;fill:url(#SVGID_3_);"/>
				<clipPath id="SVGID_4_">
					<use xlink:href="#SVGID_2_"  style="overflow:visible;"/>
				</clipPath>
			</g>
			<g>
				<defs>
					<path id="SVGID_5_" d="M42.5,25.2l-2.1-3.6v3.6h-1.2h-0.2h-1.3l-0.5-1.1h-2.5l-0.5,1.1H33h-0.2h-0.6c0,0-1.8-0.3-1.8-2.5
						c0-3,2.1-2.8,2.1-2.9l1.7,0v1.2l-1.4,0c0,0-0.9,0-1,1.2c0,0.1,0,0.3,0,0.4c0,1.8,1.6,1.2,1.6,1.2l1.7-4h1.9l2,4.8v-4.8h1.9
						l2.1,3.5v-3.5h1.4v5.3H42.5 M35.3,22.7h1.3L36,21.2L35.3,22.7L35.3,22.7"/>
				</defs>
				<radialGradient id="SVGID_6_" cx="9.9224" cy="9.7424" r="52.3763" gradientUnits="userSpaceOnUse">
					<stop  offset="0" style="stop-color:#00B8E9"/>
					<stop  offset="0.427" style="stop-color:#009ACA"/>
					<stop  offset="0.5077" style="stop-color:#0090BD"/>
					<stop  offset="0.8347" style="stop-color:#006D8E"/>
					<stop  offset="1" style="stop-color:#00607E"/>
				</radialGradient>
				<use xlink:href="#SVGID_5_"  style="overflow:visible;fill:url(#SVGID_6_);"/>
				<clipPath id="SVGID_7_">
					<use xlink:href="#SVGID_5_"  style="overflow:visible;"/>
				</clipPath>
			</g>
			<g>
				<defs>
					<path id="SVGID_8_" d="M15.9,25.2v-3.7l-1.7,3.7h-1.1l-1.7-3.7v3.7h-1.2h-0.2H8.8l-0.5-1.1H5.8l-0.5,1.1H3.9l2.2-5.3H8l2.1,4.9
						v-4.9h2.1l1.5,3.3l1.5-3.3h2.1v5.3H15.9 M6.4,22.7h1.3l-0.7-1.6L6.4,22.7L6.4,22.7"/>
				</defs>
				<radialGradient id="SVGID_9_" cx="9.9224" cy="9.7434" r="52.3763" gradientUnits="userSpaceOnUse">
					<stop  offset="0" style="stop-color:#00B8E9"/>
					<stop  offset="0.427" style="stop-color:#009ACA"/>
					<stop  offset="0.5077" style="stop-color:#0090BD"/>
					<stop  offset="0.8347" style="stop-color:#006D8E"/>
					<stop  offset="1" style="stop-color:#00607E"/>
				</radialGradient>
				<use xlink:href="#SVGID_8_"  style="overflow:visible;fill:url(#SVGID_9_);"/>
				<clipPath id="SVGID_10_">
					<use xlink:href="#SVGID_8_"  style="overflow:visible;"/>
				</clipPath>
			</g>
			<g>
				<defs>
					<polyline id="SVGID_11_" points="18,25.2 18,19.9 22.3,19.9 22.3,21.1 19.4,21.1 19.4,22 22.2,22 22.2,23.2 19.4,23.2 
						19.4,24.1 22.3,24.1 22.3,25.2 18,25.2 					"/>
				</defs>
				<radialGradient id="SVGID_12_" cx="9.9219" cy="9.7434" r="52.3761" gradientUnits="userSpaceOnUse">
					<stop  offset="0" style="stop-color:#00B8E9"/>
					<stop  offset="0.427" style="stop-color:#009ACA"/>
					<stop  offset="0.5077" style="stop-color:#0090BD"/>
					<stop  offset="0.8347" style="stop-color:#006D8E"/>
					<stop  offset="1" style="stop-color:#00607E"/>
				</radialGradient>
				<use xlink:href="#SVGID_11_"  style="overflow:visible;fill:url(#SVGID_12_);"/>
				<clipPath id="SVGID_13_">
					<use xlink:href="#SVGID_11_"  style="overflow:visible;"/>
				</clipPath>
			</g>
			<g>
				<defs>
					<polyline id="SVGID_14_" points="28.5,25.2 28.5,19.9 29.9,19.9 29.9,25.2 28.5,25.2 					"/>
				</defs>
				<radialGradient id="SVGID_15_" cx="9.9219" cy="9.7439" r="52.3769" gradientUnits="userSpaceOnUse">
					<stop  offset="0" style="stop-color:#00B8E9"/>
					<stop  offset="0.427" style="stop-color:#009ACA"/>
					<stop  offset="0.5077" style="stop-color:#0090BD"/>
					<stop  offset="0.8347" style="stop-color:#006D8E"/>
					<stop  offset="1" style="stop-color:#00607E"/>
				</radialGradient>
				<use xlink:href="#SVGID_14_"  style="overflow:visible;fill:url(#SVGID_15_);"/>
				<clipPath id="SVGID_16_">
					<use xlink:href="#SVGID_14_"  style="overflow:visible;"/>
				</clipPath>
			</g>
		</g>
		<g>
			<g>
				<defs>
					<path id="SVGID_17_" d="M31.7,34.2v-1c0,0-0.1-0.8-0.9-0.8h-1.3v1.8h-1.4v-5.3h3.3c0,0,1.7-0.2,1.7,1.6c0,0.9-0.8,1.2-0.8,1.2
						S33,32,33,32.9v1.3H31.7 M29.5,31.1h1.4c0.4,0,0.7-0.2,0.7-0.5c0-0.3-0.3-0.5-0.7-0.5h-1.4V31.1L29.5,31.1"/>
				</defs>
				<radialGradient id="SVGID_18_" cx="9.9219" cy="9.7439" r="52.3754" gradientUnits="userSpaceOnUse">
					<stop  offset="0" style="stop-color:#00B8E9"/>
					<stop  offset="0.427" style="stop-color:#009ACA"/>
					<stop  offset="0.5077" style="stop-color:#0090BD"/>
					<stop  offset="0.8347" style="stop-color:#006D8E"/>
					<stop  offset="1" style="stop-color:#00607E"/>
				</radialGradient>
				<use xlink:href="#SVGID_17_"  style="overflow:visible;fill:url(#SVGID_18_);"/>
				<clipPath id="SVGID_19_">
					<use xlink:href="#SVGID_17_"  style="overflow:visible;"/>
				</clipPath>
			</g>
			<g>
				<defs>
					<path id="SVGID_20_" d="M22.7,34.2h-1.2l-1.4-1.6l-1.4,1.6h-0.8h-4.2v-5.3h4.2h0.7l1.5,1.7l1.6-1.7h1v0H26c0,0,1.7-0.2,1.7,1.6
						c0,1.6-0.6,2.1-2.3,2.1h-1.3v1.7H22.7 M21,31.6l1.7,1.9v-3.7L21,31.6L21,31.6 M15,33.1h2.8l1.3-1.5l-1.3-1.5H15V31h2.8v1.2H15
						V33.1L15,33.1 M24.1,31.1h1.4c0.4,0,0.7-0.2,0.7-0.5c0-0.3-0.3-0.5-0.7-0.5h-1.4V31.1L24.1,31.1"/>
				</defs>
				<radialGradient id="SVGID_21_" cx="9.9224" cy="9.7429" r="52.3775" gradientUnits="userSpaceOnUse">
					<stop  offset="0" style="stop-color:#00B8E9"/>
					<stop  offset="0.427" style="stop-color:#009ACA"/>
					<stop  offset="0.5077" style="stop-color:#0090BD"/>
					<stop  offset="0.8347" style="stop-color:#006D8E"/>
					<stop  offset="1" style="stop-color:#00607E"/>
				</radialGradient>
				<use xlink:href="#SVGID_20_"  style="overflow:visible;fill:url(#SVGID_21_);"/>
				<clipPath id="SVGID_22_">
					<use xlink:href="#SVGID_20_"  style="overflow:visible;"/>
				</clipPath>
			</g>
			<g>
				<defs>
					<path id="SVGID_23_" d="M40.9,34.2h-2.4V33h2.1c0,0,0.8,0.1,0.8-0.4c0-0.5-1.1-0.4-1.1-0.4s-1.9,0.2-1.9-1.6
						c0-1.7,1.7-1.6,1.7-1.6h2.6v1.2h-2.1c0,0-0.7-0.1-0.7,0.4c0,0.4,1,0.4,1,0.4s2.1-0.2,2.1,1.4c0,1.7-1.3,1.9-1.8,1.9
						C41,34.2,40.9,34.2,40.9,34.2"/>
				</defs>
				<radialGradient id="SVGID_24_" cx="9.9219" cy="9.7439" r="52.3767" gradientUnits="userSpaceOnUse">
					<stop  offset="0" style="stop-color:#00B8E9"/>
					<stop  offset="0.427" style="stop-color:#009ACA"/>
					<stop  offset="0.5077" style="stop-color:#0090BD"/>
					<stop  offset="0.8347" style="stop-color:#006D8E"/>
					<stop  offset="1" style="stop-color:#00607E"/>
				</radialGradient>
				<use xlink:href="#SVGID_23_"  style="overflow:visible;fill:url(#SVGID_24_);"/>
				<clipPath id="SVGID_25_">
					<use xlink:href="#SVGID_23_"  style="overflow:visible;"/>
				</clipPath>
			</g>
			<g>
				<defs>
					<polyline id="SVGID_26_" points="33.7,34.2 33.7,28.9 37.9,28.9 37.9,30.1 35.1,30.1 35.1,31 37.9,31 37.9,32.2 35.1,32.2 
						35.1,33.1 37.9,33.1 37.9,34.2 33.7,34.2 					"/>
				</defs>
				<radialGradient id="SVGID_27_" cx="9.9219" cy="9.7429" r="52.378" gradientUnits="userSpaceOnUse">
					<stop  offset="0" style="stop-color:#00B8E9"/>
					<stop  offset="0.427" style="stop-color:#009ACA"/>
					<stop  offset="0.5077" style="stop-color:#0090BD"/>
					<stop  offset="0.8347" style="stop-color:#006D8E"/>
					<stop  offset="1" style="stop-color:#00607E"/>
				</radialGradient>
				<use xlink:href="#SVGID_26_"  style="overflow:visible;fill:url(#SVGID_27_);"/>
				<clipPath id="SVGID_28_">
					<use xlink:href="#SVGID_26_"  style="overflow:visible;"/>
				</clipPath>
			</g>
			<g>
				<defs>
					<path id="SVGID_29_" d="M45.7,34.2h-2.4V33h2.1c0,0,0.8,0.1,0.8-0.4c0-0.5-1.1-0.4-1.1-0.4s-1.9,0.2-1.9-1.6
						c0-1.7,1.7-1.6,1.7-1.6h2.6v1.2h-2.1c0,0-0.7-0.1-0.7,0.4c0,0.4,1,0.4,1,0.4s2.1-0.2,2.1,1.4c0,1.7-1.3,1.9-1.8,1.9
						C45.8,34.2,45.7,34.2,45.7,34.2"/>
				</defs>
				<radialGradient id="SVGID_30_" cx="9.9219" cy="9.7439" r="52.3754" gradientUnits="userSpaceOnUse">
					<stop  offset="0" style="stop-color:#00B8E9"/>
					<stop  offset="0.427" style="stop-color:#009ACA"/>
					<stop  offset="0.5077" style="stop-color:#0090BD"/>
					<stop  offset="0.8347" style="stop-color:#006D8E"/>
					<stop  offset="1" style="stop-color:#00607E"/>
				</radialGradient>
				<use xlink:href="#SVGID_29_"  style="overflow:visible;fill:url(#SVGID_30_);"/>
				<clipPath id="SVGID_31_">
					<use xlink:href="#SVGID_29_"  style="overflow:visible;"/>
				</clipPath>
			</g>
		</g>
	</g>
</g>
<g id="bounding_box">
</g>
</svg>
