<?xml version="1.0" encoding="utf-8"?>
<!-- Generator: Adobe Illustrator 19.1.0, SVG Export Plug-In . SVG Version: 6.00 Build 0)  -->
<svg version="1.1" id="Isolation_Mode" xmlns="http://www.w3.org/2000/svg" xmlns:xlink="http://www.w3.org/1999/xlink" x="0px"
	 y="0px" viewBox="-481.9 485.9 27.3 31.9" style="enable-background:new -481.9 485.9 27.3 31.9;" xml:space="preserve">
<g>
	<g>
		<path d="M-471.3,516.5C-471.4,516.5-471.4,516.5-471.3,516.5c-0.6,0-1.3-0.4-1.7-0.9c-0.3-0.3-0.5-0.7-0.6-1.1
			c-0.1-0.5,0-1,0.3-1.4c0.3-0.3,0.6-0.4,0.9-0.4c-0.4-0.9-1.4-1.9-2.6-3.1c-2.6-2.6-6.2-6.1-5.7-11.4c0.6-6.5,6.6-11.4,13.5-10.9
			l0,0c7.2,0.6,12,6.2,11.5,13.5c-0.5,6-7.9,11.1-14.4,13.8c0.2,0.6,0.1,1.2-0.3,1.5C-470.7,516.3-471,516.5-471.3,516.5z
			 M-468.3,488.9c-5.6,0-10.3,4-10.7,9.4c-0.4,4.5,2.7,7.6,5.2,10.1c1.6,1.6,3,3,3.2,4.5c6.4-2.7,12.7-7.5,13.2-12.3
			c0.5-6.3-3.7-11.2-9.9-11.7l0,0C-467.7,489-468,488.9-468.3,488.9z"/>
	</g>
	<g>
		<path d="M-460.1,494.9l-1.5,1.4l0.4,2.1c0.1,0.4-0.2,0.6-0.5,0.4l-1.8-1l-1.8,1c-0.4,0.3-0.6,0-0.5-0.4l0.4-2.1l-1.5-1.4
			c-0.3-0.3-0.3-0.6,0.2-0.7l2.1-0.3l0.9-1.9c0.2-0.4,0.5-0.4,0.7,0l0.9,1.9l2.1,0.3C-459.9,494.3-459.7,494.6-460.1,494.9z"/>
	</g>
</g>
</svg>
