<?xml version="1.0" encoding="utf-8"?>
<!-- Generator: Adobe Illustrator 19.1.0, SVG Export Plug-In . SVG Version: 6.00 Build 0)  -->
<svg version="1.1" id="Layer_1" xmlns="http://www.w3.org/2000/svg" xmlns:xlink="http://www.w3.org/1999/xlink" x="0px" y="0px"
	 viewBox="0 0 16.1 15.1" style="enable-background:new 0 0 16.1 15.1;" xml:space="preserve">
<style type="text/css">
	.st0{fill:#163962;}
</style>
<g>
	<g>
		<path class="st0" d="M7.3,12.4c-0.4,0-0.7,0.3-0.7,0.7c0,0.4,0.3,0.7,0.7,0.7c0.4,0,0.7-0.3,0.7-0.7C8,12.7,7.7,12.4,7.3,12.4"/>
		<path class="st0" d="M12.1,12.4c-0.4,0-0.7,0.3-0.7,0.7c0,0.4,0.3,0.7,0.7,0.7c0.4,0,0.7-0.3,0.7-0.7
			C12.8,12.7,12.5,12.4,12.1,12.4"/>
		<path class="st0" d="M14.7,5.2c-0.1-0.1-0.2-0.1-0.3-0.1L4.8,4L4.4,2.3c0-0.1-0.1-0.2-0.2-0.3L1.9,1.3C1.7,1.3,1.5,1.4,1.4,1.6
			C1.3,1.7,1.5,1.9,1.6,2l2.1,0.7l1.8,8.4c0,0.2,0.2,0.3,0.3,0.3l7.4,0.1h0c0.2,0,0.4-0.2,0.4-0.4c0-0.2-0.2-0.4-0.4-0.4l-7.1,0
			L5.9,9.3h7.7C13.8,9.3,14,9.2,14,9l0.7-3.5C14.8,5.4,14.7,5.3,14.7,5.2 M13.4,8.6H5.8L5,4.8l9,0.9L13.4,8.6z"/>
	</g>
</g>
</svg>
