<?xml version="1.0" encoding="utf-8"?>
<!-- Generator: Adobe Illustrator 19.1.0, SVG Export Plug-In . SVG Version: 6.00 Build 0)  -->
<svg version="1.1" id="Layer_1" xmlns="http://www.w3.org/2000/svg" xmlns:xlink="http://www.w3.org/1999/xlink" x="0px" y="0px"
	 viewBox="0 0 13.4 12.5" style="enable-background:new 0 0 13.4 12.5;" xml:space="preserve">
<style type="text/css">
	.st0{fill:#163962;}
</style>
<g>
	<g>
		<path class="st0" d="M5.9,11.1c-0.4,0-0.7,0.3-0.7,0.7c0,0.4,0.3,0.7,0.7,0.7c0.4,0,0.7-0.3,0.7-0.7C6.6,11.4,6.3,11.1,5.9,11.1"
			/>
		<path class="st0" d="M10.7,11.1c-0.4,0-0.7,0.3-0.7,0.7c0,0.4,0.3,0.7,0.7,0.7c0.4,0,0.7-0.3,0.7-0.7
			C11.4,11.4,11.1,11.1,10.7,11.1"/>
		<path class="st0" d="M13.3,3.9c-0.1-0.1-0.2-0.1-0.3-0.1l-9.6-1L3.1,1c0-0.1-0.1-0.2-0.2-0.3L0.5,0C0.3,0,0.1,0.1,0,0.3
			C0,0.4,0.1,0.6,0.3,0.7l2.1,0.7l1.8,8.4c0,0.2,0.2,0.3,0.3,0.3l7.4,0.1h0c0.2,0,0.4-0.2,0.4-0.4c0-0.2-0.2-0.4-0.4-0.4l-7.1,0
			L4.5,8h7.7c0.2,0,0.3-0.1,0.4-0.3l0.7-3.5C13.4,4.1,13.3,4,13.3,3.9"/>
	</g>
</g>
</svg>
