<?xml version="1.0" encoding="utf-8"?>
<!-- Generator: Adobe Illustrator 22.1.0, SVG Export Plug-In . SVG Version: 6.00 Build 0)  -->
<svg version="1.1" id="CONFETTI" xmlns="http://www.w3.org/2000/svg" xmlns:xlink="http://www.w3.org/1999/xlink" x="0px" y="0px"
	 viewBox="0 0 1004 59.9" style="enable-background:new 0 0 1004 59.9;" xml:space="preserve">
<style type="text/css">
	.Drop_x0020_Shadow{fill:none;}
	.Round_x0020_Corners_x0020_2_x0020_pt{fill:#FFFFFF;stroke:#000000;stroke-miterlimit:10;}
	.Live_x0020_Reflect_x0020_X{fill:none;}
	.Bevel_x0020_Soft{fill:url(#SVGID_1_);}
	.Dusk{fill:#FFFFFF;}
	.Foliage_GS{fill:#FFDD00;}
	.Pompadour_GS{fill-rule:evenodd;clip-rule:evenodd;fill:#44ADE2;}
	.st0{fill:#F1BFD9;}
	.st1{fill:#FDCF5A;}
	.st2{fill:#5BC6CC;}
	.st3{fill:#F16464;}
</style>
<linearGradient id="SVGID_1_" gradientUnits="userSpaceOnUse" x1="-343" y1="-3033.2483" x2="-342.2929" y2="-3032.5413">
	<stop  offset="0" style="stop-color:#DEDFE3"/>
	<stop  offset="0.1738" style="stop-color:#D8D9DD"/>
	<stop  offset="0.352" style="stop-color:#C9CACD"/>
	<stop  offset="0.5323" style="stop-color:#B4B5B8"/>
	<stop  offset="0.7139" style="stop-color:#989A9C"/>
	<stop  offset="0.8949" style="stop-color:#797C7E"/>
	<stop  offset="1" style="stop-color:#656B6C"/>
</linearGradient>
<rect x="549.5" y="37.6" transform="matrix(0.9358 -0.3525 0.3525 0.9358 21.4306 199.3821)" class="st0" width="17.6" height="6.5"/>
<rect x="491.1" y="14.3" transform="matrix(0.8458 -0.5335 0.5335 0.8458 63.8917 267.282)" class="st1" width="6.5" height="17.6"/>
<rect x="403.1" y="24.5" transform="matrix(0.5465 -0.8374 0.8374 0.5465 156.3575 355.3856)" class="st2" width="6.5" height="17.6"/>
<rect x="255.7" y="31.5" transform="matrix(0.4126 -0.9109 0.9109 0.4126 115.3741 259.5356)" class="st0" width="6.5" height="17.6"/>
<rect x="40.7" y="12.4" transform="matrix(9.129427e-02 -0.9958 0.9958 9.129427e-02 18.8208 62.9674)" class="st2" width="6.5" height="17.6"/>
<rect x="102.9" y="37.1" transform="matrix(0.8829 -0.4695 0.4695 0.8829 -5.8578 57.131)" class="st3" width="17.6" height="6.5"/>
<rect x="308" y="22" transform="matrix(0.9391 -0.3437 0.3437 0.9391 10.6278 110.3986)" class="st3" width="17.6" height="6.5"/>
<rect x="179.1" y="22.2" transform="matrix(0.2209 -0.9753 0.9753 0.2209 121.5931 203.0771)" class="st1" width="17.6" height="6.5"/>
<rect x="710.4" y="32" transform="matrix(0.9109 -0.4126 0.4126 0.9109 49.5179 299.8805)" class="st0" width="17.6" height="6.5"/>
<rect x="628.6" y="20.4" transform="matrix(0.3437 -0.9391 0.9391 0.3437 387.3215 612.575)" class="st3" width="6.5" height="17.6"/>
<rect x="958.4" y="25.9" transform="matrix(0.9743 -0.2253 0.2253 0.9743 18.2993 218.7048)" class="st1" width="17.6" height="6.5"/>
<rect x="796" y="19.4" transform="matrix(0.8529 -0.522 0.522 0.8529 106.5272 423.4624)" class="st2" width="17.6" height="6.5"/>
<rect x="880.2" y="33" transform="matrix(0.3611 -0.9325 0.9325 0.3611 525.4348 850.5887)" class="st3" width="6.5" height="17.6"/>
<g>
</g>
<g>
</g>
<g>
</g>
<g>
</g>
<g>
</g>
<g>
</g>
</svg>
