<?xml version="1.0" encoding="utf-8"?>
<!-- Generator: Adobe Illustrator 22.1.0, SVG Export Plug-In . SVG Version: 6.00 Build 0)  -->
<svg version="1.1" id="group" xmlns="http://www.w3.org/2000/svg" xmlns:xlink="http://www.w3.org/1999/xlink" x="0px" y="0px"
	 viewBox="0 0 88.7 9.8" style="enable-background:new 0 0 88.7 9.8;" xml:space="preserve">
<style type="text/css">
	.Drop_x0020_Shadow{fill:none;}
	.Round_x0020_Corners_x0020_2_x0020_pt{fill:#FFFFFF;stroke:#000000;stroke-miterlimit:10;}
	.Live_x0020_Reflect_x0020_X{fill:none;}
	.Bevel_x0020_Soft{fill:url(#SVGID_1_);}
	.Dusk{fill:#FFFFFF;}
	.Foliage_GS{fill:#FFDD00;}
	.Pompadour_GS{fill-rule:evenodd;clip-rule:evenodd;fill:#44ADE2;}
	.st0{fill:#27235D;}
	.st1{opacity:0.7;fill:#27235D;}
</style>
<linearGradient id="SVGID_1_" gradientUnits="userSpaceOnUse" x1="157.1689" y1="-209.0742" x2="157.8761" y2="-208.3671">
	<stop  offset="0" style="stop-color:#DEDFE3"/>
	<stop  offset="0.1738" style="stop-color:#D8D9DD"/>
	<stop  offset="0.352" style="stop-color:#C9CACD"/>
	<stop  offset="0.5323" style="stop-color:#B4B5B8"/>
	<stop  offset="0.7139" style="stop-color:#989A9C"/>
	<stop  offset="0.8949" style="stop-color:#797C7E"/>
	<stop  offset="1" style="stop-color:#656B6C"/>
</linearGradient>
<path class="st0" d="M0,4.9C0,2,1.9,0,5,0c2.7,0,4.5,1.4,4.7,3.6H7.4C7.2,2.6,6.3,1.9,5,1.9c-1.7,0-2.7,1.2-2.7,3s1,3,2.7,3
	c1.3,0,2.2-0.7,2.4-1.7h2.3C9.4,8.3,7.7,9.8,5,9.8C1.9,9.8,0,7.7,0,4.9z"/>
<path class="st0" d="M11.4,6.2v-6h2.1v5.8c0,1,0.6,1.6,1.6,1.6c1,0,1.6-0.6,1.6-1.6V0.3h2.1v6c0,2.1-1.4,3.3-3.6,3.3
	S11.4,8.3,11.4,6.2z"/>
<path class="st0" d="M20.3,6.5h2.1c0,1,0.6,1.6,1.5,1.6c0.8,0,1.2-0.4,1.2-1c0-0.6-0.3-0.9-1.1-1.2l-1.7-0.6
	c-1.2-0.5-1.9-1.3-1.9-2.5c0-1.6,1.3-2.7,3.3-2.7c2,0,3.4,1.2,3.4,2.9h-2.1c0-0.9-0.4-1.3-1.3-1.3c-0.7,0-1.1,0.4-1.1,0.9
	c0,0.5,0.4,0.8,1.3,1.2l1.5,0.6c1.3,0.5,1.9,1.4,1.9,2.6c0,1.7-1.3,2.9-3.4,2.9C21.7,9.8,20.3,8.6,20.3,6.5z"/>
<path class="st0" d="M30.7,2.2h-2.5V0.3h7.2v1.9h-2.6v7.3h-2.1V2.2z"/>
<path class="st0" d="M36,4.9C36,2.3,37.8,0,40.9,0s4.9,2.3,4.9,4.9S44,9.8,40.9,9.8S36,7.5,36,4.9z M43.6,4.9c0-1.6-1-3-2.7-3
	c-1.8,0-2.7,1.4-2.7,3c0,1.6,0.9,3,2.7,3C42.7,7.9,43.6,6.5,43.6,4.9z"/>
<path class="st0" d="M47.7,0.3h2.5l2.5,6.6l2.5-6.6h2.4v9.3h-2v-6l-2,6h-1.6l-2.1-6v6h-2V0.3z"/>
<path class="st0" d="M59.9,0.3h2.1v9.3h-2.1V0.3z"/>
<path class="st0" d="M68.1,2.1h-3.8V0.3h7.2l-4.3,7.5h4.1v1.8h-7.5L68.1,2.1z"/>
<path class="st0" d="M73.2,0.3h5.7V2h-3.5v2.1h3.5v1.7h-3.5v2h3.5v1.7h-5.7V0.3z"/>
<path class="st1" d="M80.8,1.7c0-0.6,0.5-1.1,1.1-1.1c0.7,0,1.2,0.5,1.2,1.1c0,0.6-0.5,1.1-1.2,1.1C81.3,2.8,80.8,2.3,80.8,1.7z"/>
<rect x="81" y="3.7" class="st1" width="1.9" height="5.8"/>
<path class="st1" d="M88.7,8v1.5c-0.3,0-0.7,0.1-1.2,0.1c-0.9,0-2.1-0.2-2.1-2.1V5.1h-0.9V3.7h0.9V1.9h1.9v1.7h1.3v1.5h-1.3v1.9
	c0,0.9,0.4,1,0.8,1C88.2,8.1,88.5,8,88.7,8z"/>
</svg>
