<?xml version="1.0" encoding="utf-8"?>
<!-- Generator: Adobe Illustrator 19.1.0, SVG Export Plug-In . SVG Version: 6.00 Build 0)  -->
<svg version="1.1" id="Layer_1" xmlns="http://www.w3.org/2000/svg" xmlns:xlink="http://www.w3.org/1999/xlink" x="0px" y="0px"
	 viewBox="15 16 160 100" style="enable-background:new 15 16 160 100;" xml:space="preserve">
<style type="text/css">
	.st0{fill:#FFFFFF;}
	.st1{fill:#8E8E8E;}
	.st2{fill:#D97B16;}
</style>
<g>
	<g id="Rectangle-1">
		<path class="st0" d="M163,16c-8,0-92.7,0-140,0c-4,0-8,4-8,8v80c0,8,4,12,12,12c44.6,0,128,0,136,0s12-4,12-12V28
			C175,20,171,16,163,16z"/>
		<path class="st1" d="M163,116.5H27c-8.3,0-12.5-4.2-12.5-12.5V24c0-4.3,4.2-8.5,8.5-8.5h140c8.3,0,12.5,4.2,12.5,12.5v76
			C175.5,112.3,171.3,116.5,163,116.5z M23,16.5c-3.7,0-7.5,3.8-7.5,7.5v80c0,7.7,3.8,11.5,11.5,11.5h136c7.7,0,11.5-3.8,11.5-11.5
			V28c0-7.7-3.8-11.5-11.5-11.5H23z"/>
	</g>
	<g id="Rectangle-1-copy">
		<path class="st2" d="M64.5,116c43,0,92.4,0,98.5,0c8,0,12-4,12-12V56.4C175,56.4,151.2,98.4,64.5,116z"/>
	</g>
	<g id="NETWORK">
		<path d="M67,64.9h1.4l4.5,6.6h0v-6.6H74V73h-1.4l-4.5-6.6h0V73H67V64.9z M76.1,64.9h5.2v1h-4.1v2.4h3.8v1h-3.8V72h4.3v1h-5.4V64.9
			z M84.8,65.9h-2.6v-1h6.3v1h-2.6V73h-1.1V65.9z M88.6,64.9h1.1l1.8,6.5h0l1.9-6.5h1.3l1.9,6.5h0l1.8-6.5h1.1L97.2,73h-1.2l-2-6.6
			h0l-2,6.6H91L88.6,64.9z M104.3,73.2c-0.6,0-1.2-0.1-1.7-0.3c-0.5-0.2-1-0.5-1.3-0.9c-0.4-0.4-0.7-0.8-0.9-1.3
			c-0.2-0.5-0.3-1.1-0.3-1.7s0.1-1.2,0.3-1.7c0.2-0.5,0.5-1,0.9-1.3c0.4-0.4,0.8-0.7,1.3-0.9c0.5-0.2,1.1-0.3,1.7-0.3
			s1.2,0.1,1.7,0.3c0.5,0.2,1,0.5,1.3,0.9c0.4,0.4,0.7,0.8,0.9,1.3s0.3,1.1,0.3,1.7s-0.1,1.2-0.3,1.7c-0.2,0.5-0.5,1-0.9,1.3
			s-0.8,0.7-1.3,0.9C105.5,73.1,104.9,73.2,104.3,73.2z M104.3,72.2c0.5,0,0.9-0.1,1.3-0.3c0.4-0.2,0.7-0.4,1-0.7
			c0.3-0.3,0.5-0.6,0.6-1c0.1-0.4,0.2-0.8,0.2-1.2s-0.1-0.9-0.2-1.2c-0.1-0.4-0.3-0.7-0.6-1c-0.3-0.3-0.6-0.5-1-0.7
			c-0.4-0.2-0.8-0.3-1.3-0.3c-0.5,0-0.9,0.1-1.3,0.3c-0.4,0.2-0.7,0.4-1,0.7c-0.3,0.3-0.5,0.6-0.6,1c-0.1,0.4-0.2,0.8-0.2,1.2
			s0.1,0.9,0.2,1.2c0.1,0.4,0.3,0.7,0.6,1c0.3,0.3,0.6,0.5,1,0.7C103.4,72.1,103.9,72.2,104.3,72.2
			C104.3,72.2,103.9,72.2,104.3,72.2z M110.1,64.9h2.8c0.5,0,0.9,0.1,1.3,0.2c0.3,0.1,0.6,0.3,0.8,0.5c0.2,0.2,0.3,0.5,0.4,0.7
			c0.1,0.3,0.1,0.5,0.1,0.8c0,0.3,0,0.5-0.1,0.7c-0.1,0.2-0.2,0.5-0.4,0.7c-0.2,0.2-0.4,0.4-0.6,0.5s-0.5,0.2-0.8,0.2l2.3,3.7h-1.4
			l-2.1-3.6h-1.2V73h-1.1V64.9z M111.2,68.5h1.4c0.2,0,0.4,0,0.6-0.1c0.2,0,0.4-0.1,0.6-0.2c0.2-0.1,0.3-0.2,0.4-0.4
			c0.1-0.2,0.1-0.4,0.1-0.7c0-0.3,0-0.5-0.1-0.7c-0.1-0.2-0.2-0.3-0.4-0.4c-0.2-0.1-0.3-0.2-0.6-0.2c-0.2,0-0.4-0.1-0.6-0.1h-1.4
			V68.5z M117.1,64.9h1.1v3.5h0.1l3.6-3.5h1.5l-3.9,3.7l4.2,4.3H122l-3.8-4h-0.1v4h-1.1V64.9z"/>
	</g>
	<g>
		<path d="M29.1,39.9h7.5c1.3,0,2.5,0.2,3.6,0.6s2.2,1,3.1,1.8c0.9,0.8,1.6,1.8,2.2,3s0.8,2.6,0.8,4.2c0,1.6-0.3,3.1-0.9,4.3
			s-1.4,2.2-2.4,3c-1,0.8-2.1,1.4-3.3,1.8c-1.2,0.4-2.4,0.6-3.5,0.6h-7.1V39.9z M35.1,55.9c1.1,0,2.1-0.1,3-0.4
			c0.9-0.2,1.8-0.6,2.5-1.1s1.3-1.2,1.7-2s0.6-1.8,0.6-3c0-1.2-0.2-2.1-0.5-3s-0.9-1.5-1.5-2c-0.6-0.5-1.4-0.9-2.3-1.1
			c-0.9-0.2-1.8-0.4-2.9-0.4h-3.1v13H35.1z M49.5,39.9h3.4V59h-3.4V39.9z M66.5,44c-0.4-0.5-0.8-0.9-1.4-1.1s-1.2-0.4-1.9-0.4
			c-0.4,0-0.8,0-1.1,0.1c-0.4,0.1-0.7,0.2-1,0.4c-0.3,0.2-0.5,0.5-0.7,0.8S60,44.5,60,44.9c0,0.6,0.2,1.1,0.7,1.5
			c0.5,0.3,1,0.6,1.7,0.9c0.7,0.3,1.4,0.5,2.2,0.7c0.8,0.2,1.5,0.6,2.2,1c0.7,0.4,1.2,1,1.7,1.6c0.4,0.7,0.7,1.6,0.7,2.7
			c0,1-0.2,1.9-0.6,2.7c-0.4,0.8-0.9,1.4-1.5,1.9s-1.4,0.9-2.2,1.1c-0.8,0.3-1.7,0.4-2.7,0.4c-1.2,0-2.3-0.2-3.4-0.6
			c-1.1-0.4-2-1.1-2.8-2l2.6-2.5c0.4,0.6,1,1.1,1.6,1.5s1.4,0.5,2.1,0.5c0.4,0,0.8-0.1,1.2-0.2c0.4-0.1,0.8-0.3,1.1-0.5
			c0.3-0.2,0.6-0.5,0.8-0.8c0.2-0.3,0.3-0.7,0.3-1.1c0-0.7-0.2-1.2-0.7-1.6s-1-0.7-1.7-1s-1.4-0.5-2.2-0.7s-1.5-0.6-2.2-1
			c-0.7-0.4-1.2-0.9-1.7-1.6s-0.7-1.6-0.7-2.7c0-1,0.2-1.8,0.6-2.6c0.4-0.7,0.9-1.3,1.6-1.8c0.7-0.5,1.4-0.8,2.3-1.1
			s1.7-0.4,2.6-0.4c1,0,2,0.2,2.9,0.5c0.9,0.3,1.8,0.8,2.6,1.5c0,0-0.8-0.7,0,0L66.5,44z M85.8,44.4c-0.7-0.8-1.4-1.3-2-1.5
			c-0.7-0.3-1.3-0.4-2-0.4c-1,0-1.9,0.2-2.7,0.5c-0.8,0.4-1.5,0.8-2.1,1.5c-0.6,0.6-1,1.3-1.3,2.2c-0.3,0.8-0.5,1.7-0.5,2.7
			c0,1,0.2,2,0.5,2.8c0.3,0.9,0.8,1.6,1.3,2.2c0.6,0.6,1.3,1.1,2.1,1.5s1.7,0.5,2.7,0.5c0.8,0,1.5-0.2,2.3-0.6s1.4-1,2-1.8l2.8,2
			c-0.9,1.2-1.9,2.1-3.2,2.6c-1.2,0.5-2.6,0.8-4,0.8c-1.5,0-2.8-0.2-4.1-0.7s-2.3-1.2-3.2-2s-1.6-1.9-2.1-3.1
			c-0.5-1.2-0.8-2.6-0.8-4.1c0-1.5,0.3-2.9,0.8-4.2c0.5-1.3,1.2-2.3,2.1-3.2s2-1.6,3.2-2c1.2-0.5,2.6-0.7,4.1-0.7
			c1.3,0,2.5,0.2,3.6,0.7c1.1,0.5,2.1,1.2,3.1,2.3c0,0-1-1.1,0,0L85.8,44.4z M111.4,39.9h3.9l5.2,14.4l5.4-14.4h3.7L121.9,59h-2.9
			L111.4,39.9z M131.6,39.9h12.7V43H135v4.7h8.8v3.1H135v5.2h9.7V59h-13.1V39.9z M148.1,39.9h6.6c0.9,0,1.8,0.1,2.7,0.3
			c0.9,0.2,1.6,0.5,2.3,0.9c0.7,0.4,1.2,1,1.6,1.7c0.4,0.7,0.6,1.6,0.6,2.7c0,1.4-0.4,2.5-1.1,3.5c-0.8,0.9-1.9,1.5-3.3,1.7l5.1,8.5
			h-4.1l-4.4-8.1h-2.5V59h-3.4V39.9z M154.2,48c0.5,0,1,0,1.5-0.1c0.5,0,0.9-0.2,1.3-0.3c0.4-0.2,0.7-0.4,1-0.8
			c0.3-0.4,0.4-0.8,0.4-1.5c0-0.6-0.1-1-0.4-1.3c-0.2-0.3-0.5-0.6-0.9-0.8c-0.4-0.2-0.8-0.3-1.3-0.3c-0.5-0.1-0.9-0.1-1.3-0.1h-2.9
			V48H154.2z"/>
	</g>
	<g id="Oval-1">
		<circle class="st2" cx="101.1" cy="49.5" r="10"/>
	</g>
</g>
</svg>
