<svg width="100" height="92" xmlns="http://www.w3.org/2000/svg">
 <style type="text/css">.st0{fill:#0d3762;}</style>

 <g>
  <title>background</title>
  <rect fill="none" id="canvas_background" height="94" width="102" y="-1" x="-1"/>
 </g>
 <g>
  <title>Layer 1</title>
  <path id="svg_1" d="m86.3,2l-32.9,0.7c-0.5,0 -1,0.2 -1.4,0.6l-44.8,44.9c-1.5,1.5 -1.5,4.1 0,5.7l35.1,35c1.5,1.5 4.1,1.5 5.6,0l44.9,-44.8c0.4,-0.4 0.6,-0.9 0.6,-1.4l0.7,-33c0,0 0,0 0,0c0,-1.9 -0.4,-4 -2,-5.6c-1.7,-1.7 -3.8,-2.1 -5.8,-2.1c0.1,0 0.1,0 0,0zm0.1,4c0,0 0,0 0,0c1.2,0 2.4,0.4 2.8,0.8c0.4,0.4 0.8,1.5 0.8,2.8c0,0 0,0 0,0l-0.7,32.1l-44.3,44.3l-35,-35l0,0l44.3,-44.3l32.1,-0.7zm-9.4,6c-1.8,0 -3.6,0.7 -4.9,2.1c-2.7,2.7 -2.7,7.2 0,9.9c2.7,2.7 7.2,2.7 9.9,0c2.7,-2.7 2.7,-7.2 0,-9.9c-1.4,-1.4 -3.2,-2.1 -5,-2.1zm0,4c0.8,0 1.5,0.3 2.1,0.9c1.2,1.2 1.2,3.1 0,4.2c-1.2,1.2 -3.1,1.2 -4.2,0c-1.2,-1.2 -1.2,-3.1 0,-4.2c0.6,-0.6 1.3,-0.9 2.1,-0.9zm-27.2,10c-1,0.1 -1.8,1 -1.8,2l0,2.2c-1.9,0.3 -3.6,1 -5,2.2c-1.9,1.6 -3,4 -3,6.6c0,2.9 1.6,5.1 3.5,6.3c1.5,0.9 3,1.5 4.5,2.1l0,10.4c-2.1,-0.5 -3.6,-1.7 -4.1,-3.4c-0.3,-1.1 -1.4,-1.7 -2.5,-1.4s-1.7,1.4 -1.4,2.5c1,3.6 4.3,5.7 7.9,6.3l0,2.2c0,1.1 0.9,2 2,2c1.1,0 2,-0.9 2,-2c0,0 0,0 0,-0.1l0,-2c1.9,-0.3 3.6,-1.1 5,-2.2c1.9,-1.6 3,-3.9 3,-6.6c0,-2.9 -1.6,-5.1 -3.5,-6.3c-1.5,-0.9 -3,-1.5 -4.5,-2.1l0,-10.4c2.1,0.4 3.6,1.6 4.1,3.3c0.3,1.1 1.4,1.7 2.5,1.4s1.7,-1.4 1.4,-2.5l0,0c-1,-3.6 -4.3,-5.7 -7.9,-6.2l0,-2.2c0,-1.1 -0.9,-2 -2,-2c0,-0.1 -0.1,-0.1 -0.2,-0.1zm-1.8,8.3l0,8.8c-1,-0.4 -1.8,-0.7 -2.4,-1.1c-1.1,-0.7 -1.6,-1.2 -1.6,-2.9c0,-1.6 0.6,-2.7 1.6,-3.6c0.6,-0.6 1.4,-1 2.4,-1.2zm4,14.7c1,0.4 1.8,0.7 2.4,1.1c1.1,0.7 1.6,1.2 1.6,3c0,1.6 -0.6,2.7 -1.6,3.6c-0.6,0.5 -1.4,0.9 -2.4,1.2l0,-8.9z" class="st0"/>
 </g>
</svg>