<?xml version="1.0" encoding="utf-8"?>
<!-- Generator: Adobe Illustrator 19.1.0, SVG Export Plug-In . SVG Version: 6.00 Build 0)  -->
<svg version="1.1" id="Isolation_Mode" xmlns="http://www.w3.org/2000/svg" xmlns:xlink="http://www.w3.org/1999/xlink" x="0px"
	 y="0px" viewBox="0 0 325.9 159.4" style="enable-background:new 0 0 325.9 159.4;" xml:space="preserve">
<style type="text/css">
	.st0{fill-rule:evenodd;clip-rule:evenodd;fill:#ED1C24;}
	.st1{fill:#FFFFFF;}
</style>
<g>
	<path class="st0" d="M312.3,50.8c-27.1,6-29.8,12-36.3,16.9c2.3-8.3,12.5-22.8,28.9-31.1C288.7,40,276.7,48.7,268,60.7
		c2.1-8,12-26.3,27-35.9c-9.9,3-28,12-37.9,30.7c7-29.1,28.1-40.4,26.3-39.4c-29.7,11.8-36.9,27.1-43.4,37.1
		c2.3-16.1,12-29.9,28.2-41.1c-26,9.9-39.7,24.8-48.5,42.2c5.5-18.6,13.6-30.7,30.2-41.6c-21.9,6.5-37.3,19.8-55.5,42.4
		c-9.8,13.8-23.8,24.8-44.1,33.8c-1-1-2.4-1.6-3.9-1.6c-3.1,0-5.6,2.5-5.6,5.6c0,3.1,2.5,5.6,5.6,5.6c3.1,0,5.6-2.5,5.6-5.6
		c0-0.1,0-0.2,0-0.3c48.6-17.5,87.9-36.7,131.7,8C275.4,77.3,283.2,65.8,312.3,50.8z"/>
	<g>
		<g>
			<path class="st1" d="M52.6,133.5c-1.4,6.8-6.8,13.9-18.9,13.9c-12.8,0-19.9-7-19.9-22.3c0-14.5,7.8-22.1,19.6-22.1
				c12.2,0,19.7,7.6,19.7,24.8v1.2H25.2c0.6,5.3,3.2,9.2,8.9,9.2c3.6,0,5.4-2.2,6.7-4.6H52.6z M41.7,120.6c-0.6-4.5-3-8.4-8.2-8.4
				c-5.2,0-7.6,3.9-8.2,8.4H41.7z"/>
			<path class="st1" d="M96.1,128.9c-1.7,11.7-7.2,18.4-19.7,18.4c-12.6,0-19.9-7-19.9-22.2c0-14.8,7.7-22.2,19.9-22.2
				c10.6,0,18.1,4.6,19.1,17.6H84.1c-0.5-4.5-2.8-7-7.5-7c-5.2,0-8.3,4.2-8.3,11.6c0,7.4,3,11.6,8.4,11.6c4.2,0,7-2.6,7.7-7.8H96.1z
				"/>
			<path class="st1" d="M100.4,90.2h11.1v20.3h0.1c1.9-4,6-7,11.6-7c7,0,12.1,4.8,12.1,15.1v27h-11.1v-22.2c0-5.2-2-7.8-5.8-7.8
				c-3.9,0-6.9,3.1-6.9,9.8v20.1h-11.1V90.2z"/>
			<path class="st1" d="M141.4,104.6h11.1v41h-11.1V104.6z"/>
			<path class="st1" d="M184.6,140.8h-0.1c-2.4,4.2-6.3,6.5-10.8,6.5c-10.1,0-16.6-8-16.6-22.3c0-11.9,6.1-21.5,16.5-21.5
				c4.9,0,8.7,2.3,10.6,6.3h0.1V90.4h11.1v55.3h-10.8V140.8z M176.4,114.8c-5.1,0-7.9,3.6-7.9,10.4c0,6.8,2.8,10.5,7.9,10.5
				c5.2,0,7.9-4.1,7.9-10.5C184.3,118.8,181.6,114.8,176.4,114.8z"/>
			<path class="st1" d="M201.3,104.6h10.8v5.9h0.1c2.3-4,6.3-7,12-7c7,0,12.1,4.8,12.1,15.1v27h-11.1v-22.2c0-5.2-2-7.8-5.8-7.8
				c-3.9,0-6.9,3.1-6.9,9.8v20.1h-11.1V104.6z"/>
			<path class="st1" d="M242.5,117.5c1.1-12.2,9.1-13.9,17.8-13.9c10.3,0,18.1,2.4,18.1,13.9v20.7c0,3.5,0.3,5.1,1.2,7.4h-11.1
				c-0.4-1.2-0.5-2.7-0.6-3.8c-3.2,4.4-7.8,5.5-13.4,5.5c-9.1,0-13.9-4.2-13.9-12.8c0-9.3,4.3-12.6,12.3-13.4l11.1-1.1
				c2.9-0.3,3.4-1.2,3.4-3.3c0-2.9-2.2-4.4-7-4.4c-4.1,0-6.1,1.7-6.6,5.1H242.5z M267.5,126.5c-0.8,0.4-2.2,0.8-4.2,1.1l-7.5,1.3
				c-2.3,0.4-3.2,1.7-3.2,4.2c0,3.2,2,5,5,5c6.4,0,10-3.5,10-9.1V126.5z"/>
		</g>
	</g>
</g>
</svg>
