<?xml version="1.0" encoding="utf-8"?>
<!-- Generator: Adobe Illustrator 19.1.0, SVG Export Plug-In . SVG Version: 6.00 Build 0)  -->
<svg version="1.1" id="Layer_1" xmlns="http://www.w3.org/2000/svg" xmlns:xlink="http://www.w3.org/1999/xlink" x="0px" y="0px"
	 viewBox="0 0 200 200" style="enable-background:new 0 0 200 200;" xml:space="preserve">
<style type="text/css">
	.st0{fill:#fff;}
</style>
<g>
	<path class="st0" d="M124.1,38.1l-14.2,0c-16,0-26.3,10.6-26.3,27v12.4H69.3c-1.2,0-2.2,1-2.2,2.2v18c0,1.2,1,2.2,2.2,2.2h14.3
		v45.5c0,1.2,1,2.2,2.2,2.2h18.7c1.2,0,2.2-1,2.2-2.2V100h16.7c1.2,0,2.2-1,2.2-2.2l0-18c0-0.6-0.2-1.2-0.7-1.6
		c-0.4-0.4-1-0.7-1.6-0.7h-16.7V66.9c0-5.1,1.2-7.6,7.8-7.6l9.6,0c1.2,0,2.2-1,2.2-2.2V40.3C126.4,39.1,125.4,38.1,124.1,38.1z"/>
</g>
</svg>
