<?xml version="1.0" encoding="utf-8"?>
<!-- Generator: Adobe Illustrator 19.1.0, SVG Export Plug-In . SVG Version: 6.00 Build 0)  -->
<svg version="1.1" id="Layer_1" xmlns="http://www.w3.org/2000/svg" xmlns:xlink="http://www.w3.org/1999/xlink" x="0px" y="0px"
	 viewBox="0 0 100 125" fill="#fff" style="enable-background:new 0 0 100 125;" xml:space="preserve">
<g>
	<path d="M5.9,46.2H12c1.7-6.1,7.3-10.5,13.7-10.5s12.1,4.4,13.7,10.5h54.7v7.5H39.4c-1.7,6.1-7.3,10.5-13.7,10.5S13.6,59.8,12,53.7
		H5.9V46.2z M25.7,42.5c-4.1,0-7.5,3.4-7.5,7.5s3.4,7.5,7.5,7.5s7.5-3.4,7.5-7.5S29.8,42.5,25.7,42.5z"/>
	<path d="M5.9,14.6h40.5C48,8.5,53.6,4.1,60.1,4.1c6.4,0,12.1,4.4,13.7,10.5h20.3v7.5H73.8c-1.7,6.1-7.3,10.5-13.7,10.5
		S48,28.2,46.4,22.1H5.9V14.6z M60.3,10.9c-4.1,0-7.5,3.4-7.5,7.5s3.4,7.5,7.5,7.5s7.5-3.4,7.5-7.5S64.4,10.9,60.3,10.9z"/>
</g>
</svg>
