<?xml version="1.0" encoding="utf-8"?>
<!-- Generator: Adobe Illustrator 19.1.0, SVG Export Plug-In . SVG Version: 6.00 Build 0)  -->
<svg version="1.1" id="Layer_1" xmlns="http://www.w3.org/2000/svg" xmlns:xlink="http://www.w3.org/1999/xlink" x="0px" y="0px"
	 viewBox="0 0 105.9 105.9" style="enable-background:new 0 0 105.9 105.9;" xml:space="preserve">
<style type="text/css">
	.st0{fill:#fff;}
</style>
<g>
	<path class="st0" d="M86,16H80c-1.1,0-2,0.9-2,2s0.9,2,2,2H86c4.5,0,7.9,3.5,7.9,8.1V38H12V28c0-4.5,3.7-8.1,8.3-8.1H26
		c1.1,0,2-0.9,2-2s-0.9-2-2-2h-5.7C13.5,16,8,21.4,8,28v57.8C8,92.5,13.5,98,20.2,98H86C92.6,98,98,92.5,98,85.8V28
		C98,21.3,92.7,16,86,16z M86,94H20.2c-4.6,0-8.3-3.6-8.3-8.1V42h82v43.9C94,90.4,90.5,94,86,94z"/>
	<path class="st0" d="M42,20h22c1.1,0,2-0.9,2-2s-0.9-2-2-2H42c-1.1,0-2,0.9-2,2S40.8,20,42,20z"/>
	<path class="st0" d="M34,28c1.1,0,2-0.9,2-2V10c0-1.1-0.9-2-2-2s-2,0.9-2,2v16C32,27.1,32.8,28,34,28z"/>
	<path class="st0" d="M72,28c1.1,0,2-0.9,2-2V10c0-1.1-0.9-2-2-2s-2,0.9-2,2v16C70,27.1,70.8,28,72,28z"/>
</g>
</svg>
