<?xml version="1.0" encoding="utf-8"?>
<!-- Generator: Adobe Illustrator 19.1.0, SVG Export Plug-In . SVG Version: 6.00 Build 0)  -->
<svg version="1.1" id="Layer_1" xmlns="http://www.w3.org/2000/svg" xmlns:xlink="http://www.w3.org/1999/xlink" x="0px" y="0px"
	 viewBox="0 0 200 200" style="enable-background:new 0 0 200 200;" xml:space="preserve">
<style type="text/css">
	.st0{fill:#fff;}
</style>
<g>
	<g>
		<g>
			<path class="st0" d="M136,94.3H87.8v16.1h29.4c-4.4,14-17.4,24.1-32.9,24.1c-19,0-34.4-15.4-34.4-34.4c0-19,15.4-34.4,34.4-34.4
				c9.6,0,18.2,3.9,24.5,10.2l11.7-12.7c-9.3-9.1-22.1-14.8-36.1-14.8c-28.5,0-51.7,23.1-51.7,51.7s23.1,51.7,51.7,51.7
				c25,0,46.9-17.7,51.7-41.3L136,94.3L136,94.3L136,94.3z"/>
			<polygon class="st0" points="167.3,94.2 157.4,94.2 157.4,84.4 149,84.4 149,94.2 139.1,94.2 139.1,102.7 149,102.7 149,112.5 
				157.4,112.5 157.4,102.7 167.3,102.7 			"/>
		</g>
	</g>
</g>
</svg>
