<?xml version="1.0" encoding="utf-8"?>
<!-- Generator: Adobe Illustrator 19.1.0, SVG Export Plug-In . SVG Version: 6.00 Build 0)  -->
<svg version="1.1" id="Layer_1" xmlns="http://www.w3.org/2000/svg" xmlns:xlink="http://www.w3.org/1999/xlink" x="0px" y="0px"
	 viewBox="0 0 200 200" style="enable-background:new 0 0 200 200;" xml:space="preserve">
<style type="text/css">
	.st0{fill:#fff;}
</style>
<path class="st0" d="M134.3,48.7H68.4c-9,0-16.3,7.3-16.3,16.3v66c0,9,7.3,16.3,16.3,16.3h66c9,0,16.3-7.3,16.3-16.3V65
	C150.6,56.1,143.3,48.7,134.3,48.7z M139.8,65v8.6c0,2.7-2.2,4.9-4.9,4.9h-9.1c-2.7,0-4.9-2.2-4.9-4.9v-9.1c0-2.7,2.2-4.9,4.9-4.9
	h9.1c2.7,0,4.9,2.2,4.9,4.9V65z M120.1,98c0,10.4-8.4,18.7-18.7,18.7c-10.4,0-18.7-8.4-18.7-18.7s8.4-18.7,18.7-18.7
	S120.1,87.6,120.1,98z M134.3,136.4H68.4c-3,0-5.5-2.4-5.5-5.5v-43h10.5c-1.1,3.2-1.8,6.5-1.8,10.1c0,16.3,13.2,29.6,29.7,29.6
	c16.3,0,29.6-13.2,29.6-29.6c0-3.5-0.7-6.9-1.8-10.1h10.5v43C139.8,134,137.4,136.4,134.3,136.4z"/>
</svg>
