<?xml version="1.0" encoding="utf-8"?>
<!-- Generator: Adobe Illustrator 19.1.0, SVG Export Plug-In . SVG Version: 6.00 Build 0)  -->
<svg version="1.1" id="Layer_1" xmlns="http://www.w3.org/2000/svg" xmlns:xlink="http://www.w3.org/1999/xlink" x="0px" y="0px"
	 viewBox="0 0 365.2 137.6" style="enable-background:new 0 0 365.2 137.6;" xml:space="preserve">
<style type="text/css">
	
	.st0{fill:#fff;}
	.st1{fill:#fff;}
	.st2{fill:#fff;}
</style>
<g>
	<g>
		<polygon class="st0" points="327.5,73.9 327.5,67 324.9,67 324.9,66.1 331.1,66.1 331.1,67 328.5,67 328.5,73.9 		"/>
		<path class="st0" d="M332.1,73.9v-7.8h1.6l1.8,5.5c0.2,0.5,0.3,0.9,0.4,1.2c0.1-0.3,0.2-0.7,0.4-1.2l1.9-5.4h1.4v7.8h-1v-6.5
			l-2.3,6.5h-0.9l-2.3-6.6v6.6H332.1z"/>
		<polygon class="st0" points="327.5,73.9 327.5,67 324.9,67 324.9,66.1 331.1,66.1 331.1,67 328.5,67 328.5,73.9 		"/>
		<path class="st0" d="M332.1,73.9v-7.8h1.6l1.8,5.5c0.2,0.5,0.3,0.9,0.4,1.2c0.1-0.3,0.2-0.7,0.4-1.2l1.9-5.4h1.4v7.8h-1v-6.5
			l-2.3,6.5h-0.9l-2.3-6.6v6.6H332.1z"/>
		<g>
			<path class="st0" d="M129,102.8l-0.7,0c-0.3,0-0.7,0-1,0c-3.2,0-3.9-0.6-4.1-0.8c0,0-0.1-0.1-0.1-0.3v-36c0-0.4-0.3-0.7-0.7-0.7
				h-10.9c-0.4,0-0.7,0.3-0.7,0.7v3.3c0,0.2,0.1,0.4,0.2,0.5c0.1,0.1,0.3,0.2,0.5,0.2l0.8-0.1c0.5,0,0.9-0.1,1.3-0.1
				c2.3,0,3.2,0.5,3.6,0.9c0.2,0.2,0.5,0.6,0.4,1.5v29.6c0,0.5-1,1-3.7,1c-0.4,0-0.9,0-1.4,0l-0.7,0c-0.2,0-0.3,0-0.4,0.1l-1.1,0
				c-1.8,0-4.9-0.2-4.9-1.8V82.8c0.2-7-0.8-11.7-3.1-14.1c-2.2-2.4-5.3-3.8-9.3-4.3c-3.8-0.5-7.6,0.1-11,1.6c-1.9,0.9-3.6,2-4.9,3.4
				V49.2c0-0.4-0.3-0.7-0.7-0.7H65.2c-0.2,0-0.4,0.1-0.5,0.2c-0.1,0.1-0.2,0.3-0.2,0.5l0.1,3c0,0.4,0.4,0.7,0.7,0.7l0.7,0
				c0.4,0,0.7,0,1,0c5,0,5,1.8,5,2.3v45.3c0,0.6,0,2.3-4.4,2.3c-0.2,0-0.4,0-0.6,0l-0.7,0c-0.2,0-0.4,0.1-0.5,0.2
				c-0.1,0.1-0.2,0.3-0.2,0.5v2.9c0,0.4,0.3,0.7,0.7,0.7h17c0.4,0,0.7-0.3,0.7-0.7v-2.9c0-0.2-0.1-0.4-0.2-0.5
				c-0.1-0.1-0.3-0.2-0.5-0.2l-1.2,0c-4.9,0-4.9-1.8-4.9-2.4l0-18.5c-0.1-2.9,0.8-5.5,2.7-7.6c2-2.2,4.1-3.7,6.4-4.2
				c2.4-0.6,4.8-0.7,7.1-0.3c2.2,0.4,3.9,1.5,5.3,3.5c1.4,2,2,5.4,1.7,10v17.6c0,0.5,0,1.9-4.5,1.9c-0.2,0-0.5,0-0.7,0l-0.7,0
				c-0.2,0-0.4,0.1-0.5,0.2c-0.1,0.1-0.2,0.3-0.2,0.5v2.9c0,0.4,0.3,0.7,0.7,0.7h17.1c0.1,0,0.2,0.1,0.3,0.1h17.3
				c0.4,0,0.7-0.3,0.7-0.7v-3c0-0.2-0.1-0.4-0.2-0.5C129.4,102.9,129.2,102.8,129,102.8z"/>
			<path class="st0" d="M177.5,102.8l-1.3,0c-3,0-4.8-0.6-4.9-1.5V82.7c0.2-6.5-0.9-10.9-3.1-13.7c-2.2-2.7-5.4-4.3-9.3-4.8
				c-3.9-0.5-7.6,0.1-11,1.7c-1.9,0.9-3.6,2.2-4.9,4v-4.1c0-0.4-0.3-0.7-0.7-0.7h-10.3c-0.4,0-0.7,0.3-0.7,0.7V69
				c0,0.2,0.1,0.4,0.2,0.5c0.1,0.1,0.3,0.2,0.5,0.2l0.8-0.1c3.2-0.3,5,0.2,5.1,1.3v30.3c0,1.1-1.4,1.6-4.3,1.6c-0.2,0-0.5,0-0.8,0
				l-0.7,0c-0.2,0-0.4,0.1-0.5,0.2c-0.1,0.1-0.2,0.3-0.2,0.5v2.9c0,0.4,0.3,0.7,0.7,0.7h17c0.4,0,0.7-0.3,0.7-0.7v-2.9
				c0-0.2-0.1-0.4-0.2-0.5c-0.1-0.1-0.3-0.2-0.5-0.2l-1.3,0c-1.8,0-4.7-0.2-4.7-1.7l0-17.8c-0.1-2.9,0.8-5.8,2.7-8.6
				c1.9-2.7,4-4.4,6.3-5c2.4-0.6,4.8-0.7,7.1-0.2c2.2,0.4,3.8,1.6,5.2,3.6c1.4,2.1,2,5.4,1.8,10v17.9c0,1.4-2.4,1.6-4.4,1.6
				c-0.2,0-0.5,0-0.7,0l-0.7,0c-0.2,0-0.4,0.1-0.5,0.2c-0.1,0.1-0.2,0.3-0.2,0.5v2.9c0,0.4,0.3,0.7,0.7,0.7h17.2
				c0.4,0,0.7-0.3,0.7-0.7v-2.9c0-0.2-0.1-0.4-0.2-0.5C177.9,102.9,177.7,102.8,177.5,102.8z"/>
			<path class="st0" d="M220.9,102.7l-0.7,0c-3,0.1-4.9-0.3-5-1.1V49.1c0-0.4-0.3-0.7-0.7-0.7h-11.2c-0.4,0-0.7,0.3-0.7,0.7v3.3
				c0,0.2,0.1,0.4,0.2,0.5c0.1,0.1,0.3,0.2,0.5,0.2l0.8-0.1c3.6-0.4,5.4,0.2,5.7,1.6l0.1,16c-3.9-3.7-8.3-5.6-13.1-5.6l-0.3,0
				c-6,0.1-10.8,1.9-14.3,5.5c-3.5,3.5-5.4,8.2-5.7,14.1c-0.3,5.8,1,10.9,4,15.2c3,4.3,6.9,6.9,11.5,7.7c1.5,0.3,3,0.4,4.5,0.4
				c2.7,0,5.3-0.5,7.7-1.4c2.4-0.9,4.4-2.3,6.1-4.1l0,1.3c0,0.7,0,1.3,0,1.6l-0.4,0.9c-0.1,0.2-0.1,0.5,0,0.7
				c0.1,0.2,0.4,0.3,0.6,0.3h10.5c0.4,0,0.7-0.3,0.7-0.7v-3c0-0.2-0.1-0.4-0.2-0.5C221.3,102.8,221.1,102.7,220.9,102.7z
				 M209.6,79.1v15c-1.7,3.2-4,5.6-6.9,7.1c-2.9,1.5-6.3,1.9-10,1c-3.7-0.9-6.6-2.9-8.5-6.2c-2-3.3-2.8-7.4-2.2-12.1
				c0.6-4.6,2.2-8.1,4.9-10.2c2.6-2.1,5.8-3.2,9.3-3.2l0.4,0c3.7,0.1,6.8,1.2,9.2,3.2C208.1,75.6,209.4,77.5,209.6,79.1z"/>
			<path class="st0" d="M320.4,93.9h-2.7c-0.2,0-0.4,0.1-0.5,0.2c-0.1,0.1-0.2,0.3-0.2,0.5l0,0.7c0.1,5.7-2.1,6-2.7,6.1h-18.2
				l22.5-28.7c1.2-1.5,2.8-3.7,2-5.5c-0.3-0.8-1.2-2.1-3.4-2.1l-27.1,0c-0.4,0-0.7,0.3-0.7,0.7v11c0,0.4,0.3,0.7,0.7,0.7h2.8
				c0,0,0,0,0,0c0.4,0,0.7-0.3,0.7-0.7c0-0.1,0-0.1,0-0.2l0-0.5c0-3.7,0.6-4.8,0.9-5.1c0.1-0.1,0.2-0.1,0.4-0.1H313l-22.9,29
				c-1.6,1.7-2.2,3.4-1.7,5c0.3,1.1,1.3,2.4,4.3,2.4c0.4,0,0.9,0,1.2-0.1l26.5,0.1h0c0.2,0,0.4-0.1,0.5-0.2c0.1-0.1,0.2-0.3,0.2-0.5
				V94.6C321.1,94.2,320.8,93.9,320.4,93.9z"/>
			<path class="st0" d="M286.9,65.9c0-0.4-0.3-0.7-0.7-0.7l-10.4,0h0c-0.2,0-0.4,0.1-0.5,0.2c-0.1,0.1-0.2,0.3-0.2,0.5v3.8
				c-1.6-1.7-3.5-2.9-5.7-3.8c-3.6-1.4-7.8-1.7-12.2-1c-4.6,0.8-8.4,3.4-11.5,7.6c-3,4.2-4.3,9.3-4,15.1c0.3,5.8,2.2,10.6,5.7,14.1
				c3.5,3.5,8.3,5.4,14.3,5.5l0.3,0c4.9,0,9.3-1.9,13.2-5.7c0,6.7-1.4,11.4-4.2,13.9c-3.3,3-7,4.3-11,3.9c-4-0.4-6.9-1.7-8.6-3.9
				c-1.7-2.4-3.2-3.4-4.7-3.4c-0.7,0-1.3,0.2-1.9,0.7c-0.6,0.5-0.9,1.2-0.9,2c0,1.5,1.1,3.1,3.5,5.3c3,2.7,7.2,4.4,12.3,4.8
				c0.5,0,1.1,0.1,1.6,0.1c4.6,0,8.9-1.8,12.9-5.3c4.4-4,6.5-9.5,6.3-16.5l0-31.9c0-0.4,0.1-1.5,3.3-1.5c0.5,0,1,0,1.6,0.1l0.8,0.1
				c0.2,0,0.4,0,0.5-0.2c0.1-0.1,0.2-0.3,0.2-0.5V65.9z M274.8,78.2V93c-0.4,1.8-1.8,3.6-4.2,5.6c-2.4,2-5.5,3.1-9.2,3.1
				c-3.6,0-6.7-1.1-9.2-3.1c-2.5-2.1-4.1-5.5-4.6-10.1c-0.6-4.7,0.1-8.7,2.1-11.9c2-3.2,4.7-5.3,8.2-6.2c1.4-0.4,2.7-0.6,4-0.6
				c2,0,3.9,0.5,5.7,1.4C270.5,72.7,272.9,75,274.8,78.2z"/>
			<path class="st0" d="M241.7,102.8l-0.7,0c-0.3,0-0.7,0-1,0c-3.2,0-3.9-0.6-4.1-0.8c0,0-0.1-0.1-0.1-0.3v-36
				c0-0.4-0.3-0.7-0.7-0.7h-10.9c-0.4,0-0.7,0.3-0.7,0.7v3.3c0,0.2,0.1,0.4,0.2,0.5c0.1,0.1,0.3,0.2,0.5,0.2l0.7-0.1
				c0.5,0,0.9-0.1,1.3-0.1c2.3,0,3.2,0.5,3.6,0.9c0.2,0.2,0.5,0.6,0.4,1.5v29.6c0,0.5-1,1-3.7,1c-0.4,0-0.9,0-1.4,0l-0.7,0
				c-0.2,0-0.4,0.1-0.5,0.2c-0.1,0.1-0.2,0.3-0.2,0.5v3.1c0,0.4,0.3,0.7,0.7,0.7h17.3c0.4,0,0.7-0.3,0.7-0.7v-3
				c0-0.2-0.1-0.4-0.2-0.5C242.1,102.9,241.9,102.8,241.7,102.8z"/>
		</g>
		<g>
			<path class="st0" d="M56.8,78.6c-3.3-1.6-7.9-3-13.9-4.3c-5.3-1.1-8.5-3.3-9.5-6.2c-1-3.1-0.9-5.1,0.5-8c1.4-2.8,3.7-4.5,7.1-5.1
				c1.6-0.3,3.1-0.5,4.3-0.5c2.7,0,6,1.3,7,1.8c2.8,1.3,4,3.5,4,6.7l0,0.6c0,0.2,0.1,0.4,0.2,0.6c0.2,0.2,0.4,0.2,0.6,0.2h2.7
				c0.2,0,0.4-0.1,0.6-0.3s0.2-0.4,0.2-0.6l0-0.7c-0.2-3.8-0.2-7.6,0-11.4l0-0.7c0-0.2-0.1-0.4-0.2-0.6c-0.2-0.2-0.4-0.3-0.6-0.3H57
				c-0.4,0-0.8,0.3-0.8,0.8l0,0.6c-0.3,0.1-1.2,0.1-3.4-0.7c-3.7-1.4-7-1.9-10.1-1.7c-5.7,0.5-10,3-12.8,7.3
				c-2.7,4.2-3.5,8.6-2.4,13c1.1,4.4,3.4,6.4,6.7,8.1c3,1.6,6.5,2.7,10.1,3.4c3.4,0.6,6.6,1.7,9.4,3.1c2.6,1.3,4.2,3,4.8,5.2
				c0.6,2.2,0.4,4.6-0.7,7.1c-1,2.4-3.2,4.2-6.4,5.3c-3.4,1.2-6.8,1.3-10,0.5c-3.2-0.8-6.1-2.6-8.4-5.3L33,96.5
				c-2.2-1.9-3.1-5.7-2.7-11.3l0.1-0.7c0-0.2-0.1-0.5-0.2-0.6c-0.2-0.2-0.4-0.3-0.6-0.3h-3c-0.2,0-0.4,0.1-0.6,0.3
				c-0.2,0.2-0.2,0.4-0.2,0.6l0,0.6C26,91,26,97,25.7,102.8l0,0.6c0,0.2,0.1,0.4,0.2,0.6c0.2,0.2,0.4,0.3,0.6,0.3h2.7
				c0.4,0,0.8-0.3,0.8-0.8l0-0.6c0-0.6,0.1-1,0.1-1.2c0.1,0.1,0.3,0.3,0.5,0.5c2.1,2.2,5.1,3.8,8.8,4.8c2,0.6,4.1,0.8,6.3,0.8
				c1.9,0,3.9-0.2,6-0.6c4.7-0.9,8.2-3.5,10.6-7.6c2.3-4.1,2.9-8.2,1.6-12.3C62.7,83.3,60.3,80.3,56.8,78.6z"/>
		</g>
		<path class="st0" d="M184.5,39.4c0.4,0.6,0.7,2.1,0.8,2.8c0.3,1.4,0.1-0.4,0-0.4c0,0.3-0.2,0.7-0.3,1c-0.3,0.8-1,1.4-1.7,1.9
			c-2.9,1.9-6.9,1.8-10,1.8c-7.8-0.1-15.7-1.8-23.3-3.6c-13.7-3.1-29.3-6.9-43.1-2.3c-5.4,1.8-9.9,5.6-11.6,11.7
			c-0.2,0.6,0.2,1.4,0,2c1.7-6.4,6.5-10,12.1-11.9c14.9-4.9,31.8,0.2,46.4,3.3c7.2,1.6,14.6,2.9,21.9,2.7c2.8-0.1,6.3-0.3,8.5-2.5
			c1.7-1.6,1.3-4.7,0.3-6.7C184.5,39.1,184.5,39.4,184.5,39.4z"/>
		<circle class="st0" cx="119.9" cy="51.6" r="3.7"/>
		<circle class="st0" cx="232.5" cy="51.6" r="3.7"/>
		<path class="st1" d="M184.6,39.9c-0.5-0.5-1.1-0.7-1.4-0.4c-0.3,0.3-0.2,1,0.4,1.6c0.5,0.6,1.3,0.9,1.6,0.6c0.3-0.3,0.2-1-0.3-1.6
			c7.1-2.8,16.6-8.8,17.2-15.7c0.7-8.2-4.9-14.1-12.4-14.7c-7.5-0.6-14.1,4.7-14.7,11.8C174.1,31.6,186.3,35.6,184.6,39.9z"/>
		<path class="st2" d="M191.6,19.3l-0.5,2.4c-0.1,0.5,0.2,0.7,0.6,0.5l2.1-1.2l2.1,1.2c0.5,0.3,0.7,0,0.6-0.5l-0.5-2.4l1.8-1.6
			c0.4-0.4,0.3-0.7-0.2-0.8l-2.4-0.3l-1-2.2c-0.2-0.5-0.6-0.5-0.8,0l-1,2.2l-2.4,0.3c-0.5,0.1-0.6,0.4-0.2,0.8L191.6,19.3z"/>
		<g>
			<path class="st1" d="M28.4,124.2V123h1c0.4,0,0.7-0.1,0.8-0.3c0.1-0.2,0.1-0.6,0.1-1.4v-5.5c0-0.7,0-1.2-0.1-1.4
				c-0.1-0.2-0.4-0.3-0.8-0.3h-1V113h6.5c0.8,0,1.4,0,1.7,0.1c0.4,0.1,0.7,0.2,1,0.5c0.8,0.6,1.3,1.5,1.3,2.5c0,1.2-0.5,2-1.4,2.5
				c-0.3,0.2-0.7,0.3-1,0.3c-0.4,0.1-0.9,0.1-1.6,0.1h-2.2v2.3c0,0.7,0,1.2,0.1,1.4c0.1,0.2,0.4,0.3,0.8,0.3h0.9v1.2H28.4z
				 M32.6,117.9H34c0.9,0,1.5-0.1,1.8-0.3c0.5-0.3,0.7-0.8,0.7-1.6c0-0.7-0.3-1.2-0.8-1.5c-0.3-0.2-0.9-0.3-1.7-0.3h-1.4V117.9z"/>
			<path class="st1" d="M38.8,122.4c0-1.2,0.9-2,2.7-2.4c1.2-0.3,1.8-0.5,2-0.6c0.3-0.2,0.4-0.5,0.4-0.8c0-0.4-0.2-0.7-0.5-1
				c-0.4-0.3-0.8-0.4-1.4-0.4c-0.7,0-1.1,0.2-1.4,0.6c0.6,0,0.9,0.3,0.9,0.9c0,0.3-0.1,0.6-0.3,0.8c-0.2,0.2-0.5,0.3-0.8,0.3
				c-0.4,0-0.6-0.1-0.9-0.4c-0.2-0.2-0.3-0.6-0.3-0.9c0-0.6,0.3-1.2,0.8-1.5c0.5-0.4,1.3-0.6,2.3-0.6c1.5,0,2.4,0.3,3,1
				c0.3,0.4,0.4,1,0.4,1.8v2.9c0,0.5,0,0.9,0.1,1c0.1,0.1,0.2,0.2,0.4,0.2c0.3,0,0.5-0.2,0.5-0.7v-1.1h1.1c0,0.8,0,1.4-0.1,1.7
				c-0.1,0.9-0.8,1.4-2,1.4c-0.6,0-1-0.1-1.4-0.3c-0.3-0.2-0.5-0.6-0.6-1.1c-0.4,0.5-0.8,0.9-1.1,1.1c-0.4,0.2-0.9,0.3-1.5,0.3
				c-0.7,0-1.3-0.2-1.8-0.6C39,123.5,38.8,123,38.8,122.4z M41.1,122.2c0,0.3,0.1,0.5,0.3,0.7c0.2,0.2,0.5,0.3,0.8,0.3
				c1.1,0,1.6-0.8,1.6-2.3c0-0.2,0-0.4,0-0.6c-0.3,0.2-0.9,0.4-1.8,0.8C41.4,121.3,41.1,121.7,41.1,122.2z"/>
			<path class="st1" d="M47.6,124.2v-1.1h0.9c0.4,0,0.6-0.1,0.7-0.3c0.1-0.1,0.1-0.5,0.1-1.1V119c0-0.6,0-0.9-0.1-1.1
				c-0.1-0.2-0.3-0.3-0.7-0.3h-0.9v-1.1h3.7v1.1c0.4-0.9,1.1-1.4,1.9-1.4c0.5,0,0.9,0.2,1.2,0.5c0.3,0.4,0.5,0.8,0.5,1.3
				c0,0.4-0.1,0.8-0.4,1.1c-0.2,0.3-0.5,0.4-0.9,0.4c-0.3,0-0.5-0.1-0.7-0.3c-0.2-0.2-0.3-0.5-0.3-0.8c0-0.6,0.3-1,1-1.1
				c-0.2-0.1-0.3-0.1-0.5-0.1c-0.3,0-0.6,0.1-0.8,0.3c-0.3,0.2-0.5,0.4-0.6,0.7c-0.1,0.3-0.2,0.5-0.3,0.7c0,0.2-0.1,0.6-0.1,1.2v1.6
				c0,0.6,0,0.9,0.1,1.1c0.1,0.2,0.3,0.3,0.7,0.3h0.9v1.1H47.6z"/>
			<path class="st1" d="M57.8,123.5c-0.1-0.2-0.2-0.4-0.3-0.7c0-0.2-0.1-0.6-0.1-1.3v-3.7h-1.6v-1.2c1.5-0.1,2.3-1.1,2.3-3.2h1.3
				v3.2h2.2v1.2h-2.2v3.8c0,0.7,0,1.1,0.1,1.2c0.1,0.2,0.3,0.3,0.6,0.3c0.3,0,0.5-0.1,0.6-0.4c0.1-0.3,0.1-0.8,0.1-1.7v-0.4h1.2
				c0,0.4,0,0.8,0,1.2c0,1.7-0.7,2.6-2.2,2.6C58.8,124.5,58.2,124.1,57.8,123.5z"/>
			<path class="st1" d="M64.1,124.5c0.3,0,0.5,0.1,0.7,0.3s0.3,0.4,0.3,0.7c0,0.3-0.1,0.5-0.3,0.7c-0.2,0.2-0.5,0.3-0.7,0.2h0
				c0.2,0.2,0.5,0.4,0.8,0.4c0.7,0,1.3-0.3,1.7-1c0.1-0.2,0.3-0.6,0.5-1.3l-2.5-5.5c-0.3-0.6-0.5-1-0.7-1.1
				c-0.2-0.2-0.5-0.2-0.8-0.2h-0.4v-1.1h5.1v1.1h-0.4c-0.5,0-0.8,0.1-0.8,0.4c0,0.1,0.1,0.3,0.2,0.6l1.4,3.3l1.4-3.2
				c0.1-0.2,0.1-0.4,0.1-0.5c0-0.4-0.3-0.5-0.8-0.5h-0.5v-1.1h4.3v1.1h-0.3c-0.5,0-0.8,0.1-1,0.3c-0.1,0.2-0.3,0.5-0.5,1l-2.8,6.6
				c-0.7,1.6-1.8,2.4-3.1,2.4c-0.6,0-1.2-0.2-1.6-0.6c-0.4-0.4-0.7-0.9-0.7-1.5c0-0.4,0.1-0.8,0.4-1
				C63.4,124.6,63.7,124.5,64.1,124.5z"/>
			<path class="st1" d="M71.8,123.2c0-0.3,0.1-0.6,0.3-0.8s0.5-0.4,0.8-0.4c0.3,0,0.6,0.1,0.8,0.4c0.2,0.2,0.3,0.5,0.3,0.8
				c0,0.3-0.1,0.6-0.3,0.9c-0.2,0.2-0.5,0.4-0.8,0.4c-0.3,0-0.6-0.1-0.8-0.4C71.9,123.8,71.8,123.5,71.8,123.2z"/>
			<path class="st1" d="M80,124.2V123h1c0.4,0,0.7-0.1,0.8-0.3c0.1-0.2,0.1-0.6,0.1-1.4v-5.5c0-0.7,0-1.2-0.1-1.4
				c-0.1-0.2-0.4-0.3-0.8-0.3h-1V113h6.1v1.2h-0.9c-0.4,0-0.7,0.1-0.8,0.3c-0.1,0.2-0.1,0.6-0.1,1.4v5.5c0,0.7,0,1.2,0.1,1.4
				c0.1,0.2,0.4,0.3,0.8,0.3h0.9v1.2H80z"/>
			<path class="st1" d="M88,123.5c-0.1-0.2-0.2-0.4-0.3-0.7c0-0.2-0.1-0.6-0.1-1.3v-3.7H86v-1.2c1.5-0.1,2.3-1.1,2.3-3.2h1.3v3.2
				h2.2v1.2h-2.2v3.8c0,0.7,0,1.1,0.1,1.2c0.1,0.2,0.3,0.3,0.6,0.3c0.3,0,0.5-0.1,0.6-0.4c0.1-0.3,0.1-0.8,0.1-1.7v-0.4h1.2
				c0,0.4,0,0.8,0,1.2c0,1.7-0.7,2.6-2.2,2.6C89,124.5,88.4,124.1,88,123.5z"/>
			<path class="st1" d="M98.5,122.7c0.4,0.3,0.9,0.5,1.5,0.5c0.8,0,1.3-0.2,1.6-0.7c0.2-0.3,0.3-0.7,0.3-1.3v-5.3
				c0-0.7,0-1.2-0.1-1.3c-0.1-0.2-0.4-0.3-0.8-0.3H100V113h6.1v1.2h-1c-0.4,0-0.7,0.1-0.8,0.3c-0.1,0.2-0.1,0.6-0.1,1.4v5.3
				c0,0.5,0,0.9-0.1,1.2c-0.1,0.3-0.3,0.6-0.5,0.9c-0.7,0.8-1.7,1.2-3,1.2c-1,0-1.8-0.3-2.5-0.8c-0.7-0.5-1-1.2-1-1.9
				c0-0.5,0.2-0.9,0.5-1.2c0.3-0.3,0.7-0.5,1.1-0.5c0.4,0,0.7,0.1,1,0.4c0.3,0.3,0.4,0.6,0.4,1c0,0.4-0.1,0.7-0.3,0.9
				C99.3,122.5,99,122.7,98.5,122.7L98.5,122.7z"/>
			<path class="st1" d="M107.3,123.7c-0.2-0.2-0.3-0.4-0.4-0.7c-0.1-0.2-0.1-0.7-0.1-1.3V119c0-0.6,0-0.9-0.1-1.1
				c-0.1-0.2-0.3-0.3-0.7-0.3h-0.3v-1.1h3v4.7c0,0.7,0.1,1.2,0.2,1.4c0.2,0.3,0.5,0.5,1,0.5c0.7,0,1.2-0.3,1.5-0.9
				c0.2-0.4,0.3-0.9,0.3-1.5V119c0-0.6,0-0.9-0.1-1.1c-0.1-0.2-0.3-0.3-0.7-0.3h-1v-1.1h3.8v5.2c0,0.6,0,0.9,0.1,1.1
				c0.1,0.2,0.3,0.3,0.7,0.3h0.9v1.1h-3.6v-1.5c-0.3,0.6-0.7,1.1-1.1,1.3c-0.4,0.3-0.9,0.4-1.6,0.4
				C108.4,124.5,107.8,124.2,107.3,123.7z"/>
			<path class="st1" d="M116.1,124.2v-3.2h1.2c0.1,0.4,0.1,0.7,0.2,0.9c0.1,0.2,0.3,0.4,0.5,0.7c0.5,0.5,1.1,0.7,1.8,0.7
				c0.4,0,0.7-0.1,1-0.3s0.4-0.4,0.4-0.7c0-0.3-0.1-0.5-0.3-0.6c-0.1-0.1-0.3-0.2-0.5-0.2c-0.2-0.1-0.5-0.1-1.1-0.2
				c-1.1-0.2-1.8-0.5-2.3-0.8c-0.3-0.2-0.5-0.4-0.7-0.7c-0.2-0.3-0.3-0.7-0.3-1c0-0.7,0.3-1.3,0.8-1.7c0.5-0.4,1.2-0.7,2-0.7
				c0.9,0,1.7,0.3,2.4,1l0.2-0.7h1.2v3h-1.2c0-0.6-0.3-1.1-0.7-1.5c-0.5-0.4-1-0.6-1.6-0.6c-0.3,0-0.6,0.1-0.8,0.3
				c-0.2,0.2-0.3,0.4-0.3,0.7c0,0.2,0.1,0.4,0.2,0.5c0.1,0.1,0.3,0.2,0.4,0.2c0.1,0,0.6,0.1,1.3,0.3c2,0.4,3.1,1.3,3.1,2.6
				c0,0.7-0.3,1.3-0.8,1.8c-0.5,0.5-1.3,0.7-2.1,0.7c-0.5,0-1-0.1-1.4-0.2c-0.4-0.2-0.8-0.4-1.2-0.8l-0.2,0.8H116.1z"/>
			<path class="st1" d="M125.5,123.5c-0.1-0.2-0.2-0.4-0.3-0.7c0-0.2-0.1-0.6-0.1-1.3v-3.7h-1.6v-1.2c1.5-0.1,2.3-1.1,2.3-3.2h1.3
				v3.2h2.2v1.2h-2.2v3.8c0,0.7,0,1.1,0.1,1.2c0.1,0.2,0.3,0.3,0.6,0.3c0.3,0,0.5-0.1,0.6-0.4c0.1-0.3,0.1-0.8,0.1-1.7v-0.4h1.2
				c0,0.4,0,0.8,0,1.2c0,1.7-0.7,2.6-2.2,2.6C126.6,124.5,125.9,124.1,125.5,123.5z"/>
			<path class="st1" d="M137.9,123.2c-0.6-0.5-1-1.2-1.3-2c-0.3-0.8-0.5-1.7-0.5-2.6c0-0.9,0.2-1.8,0.5-2.7c0.3-0.9,0.8-1.5,1.4-2.1
				c0.9-0.7,1.9-1.1,3.2-1.1c0.7,0,1.4,0.1,2,0.4c0.3,0.1,0.7,0.4,1.2,0.9l0.5-1.2h1.2v4.5H145c-0.1-0.6-0.3-1-0.4-1.3
				c-0.2-0.3-0.4-0.6-0.7-0.9c-0.6-0.6-1.3-0.8-2.2-0.8c-0.9,0-1.6,0.3-2.1,1c-0.6,0.7-0.8,1.8-0.8,3.4c0,1.4,0.3,2.5,0.8,3.2
				c0.5,0.8,1.3,1.1,2.3,1.1c0.4,0,0.8-0.1,1.2-0.2c0.4-0.2,0.7-0.4,0.9-0.6c0.2-0.3,0.3-0.6,0.3-1.1v-0.5v0l0-0.4
				c0-0.3-0.1-0.5-0.2-0.6c-0.1-0.1-0.3-0.1-0.7-0.1h-1v-1.2h6.1v1.2h-0.8c-0.5,0-0.8,0.1-0.9,0.2c-0.1,0.1-0.2,0.4-0.2,0.9v3.8
				h-1.3l-0.5-1c-0.5,0.5-1.1,0.8-1.6,1c-0.5,0.2-1.1,0.3-1.8,0.3C140,124.5,138.8,124,137.9,123.2z"/>
			<path class="st1" d="M149.9,123.3c-0.9-0.8-1.3-1.8-1.3-2.9s0.4-2.1,1.3-2.9c0.9-0.8,1.9-1.2,3.1-1.2c1.3,0,2.3,0.4,3.2,1.2
				c0.9,0.8,1.3,1.8,1.3,3c0,1.1-0.4,2.1-1.2,2.9c-0.8,0.8-1.8,1.2-3,1.2C151.9,124.5,150.8,124.1,149.9,123.3z M150.9,120.2
				c0,2.1,0.7,3.1,2.1,3.1c0.7,0,1.2-0.2,1.6-0.7c0.4-0.5,0.6-1.2,0.6-2.1c0-2.2-0.7-3.2-2.1-3.2
				C151.6,117.2,150.9,118.2,150.9,120.2z"/>
			<path class="st1" d="M159.1,123.5c-0.1-0.2-0.2-0.4-0.3-0.7c0-0.2-0.1-0.6-0.1-1.3v-3.7h-1.6v-1.2c1.5-0.1,2.3-1.1,2.3-3.2h1.3
				v3.2h2.2v1.2h-2.2v3.8c0,0.7,0,1.1,0.1,1.2c0.1,0.2,0.3,0.3,0.6,0.3c0.3,0,0.5-0.1,0.6-0.4c0.1-0.3,0.1-0.8,0.1-1.7v-0.4h1.2
				c0,0.4,0,0.8,0,1.2c0,1.7-0.7,2.6-2.2,2.6C160.2,124.5,159.5,124.1,159.1,123.5z"/>
			<path class="st1" d="M169.9,124.2V123h1c0.4,0,0.7-0.1,0.8-0.3c0.1-0.2,0.1-0.6,0.1-1.4v-5.5c0-0.7,0-1.2-0.1-1.4
				c-0.1-0.2-0.4-0.3-0.8-0.3h-1V113h6.5c0.8,0,1.4,0,1.7,0.1c0.4,0.1,0.7,0.2,1,0.5c0.8,0.6,1.3,1.5,1.3,2.5c0,1.2-0.5,2-1.4,2.5
				c-0.3,0.2-0.7,0.3-1,0.3c-0.4,0.1-0.9,0.1-1.6,0.1h-2.2v2.3c0,0.7,0,1.2,0.1,1.4c0.1,0.2,0.4,0.3,0.8,0.3h0.9v1.2H169.9z
				 M174.2,117.9h1.4c0.9,0,1.5-0.1,1.8-0.3c0.5-0.3,0.7-0.8,0.7-1.6c0-0.7-0.3-1.2-0.8-1.5c-0.3-0.2-0.9-0.3-1.7-0.3h-1.4V117.9z"
				/>
			<path class="st1" d="M182.8,122.4c0.3,0.6,0.9,0.9,1.7,0.9c1,0,1.7-0.6,2-1.8h1.4c-0.1,0.7-0.4,1.3-0.8,1.7
				c-0.7,0.8-1.6,1.2-2.9,1.2c-1.2,0-2.2-0.4-3-1.1c-0.8-0.7-1.2-1.7-1.2-2.9c0-0.7,0.1-1.3,0.4-1.9c0.3-0.6,0.6-1.1,1.1-1.4
				c0.7-0.5,1.5-0.8,2.6-0.8c1.1,0,2,0.4,2.7,1.1c0.7,0.7,1,1.7,1,2.9v0.4h-5.4C182.5,121.4,182.6,122,182.8,122.4z M182.4,119.6
				h3.4c-0.1-0.7-0.2-1.2-0.4-1.5c-0.3-0.4-0.7-0.6-1.3-0.6c-0.6,0-1,0.2-1.3,0.7C182.6,118.5,182.5,119,182.4,119.6z"/>
			<path class="st1" d="M188.4,124.2v-1.1h0.9c0.4,0,0.6-0.1,0.7-0.3c0.1-0.1,0.1-0.5,0.1-1.1V119c0-0.6,0-0.9-0.1-1.1
				c-0.1-0.2-0.3-0.3-0.7-0.3h-0.9v-1.1h3.7v1.1c0.4-0.9,1.1-1.4,1.9-1.4c0.5,0,0.9,0.2,1.2,0.5c0.3,0.4,0.5,0.8,0.5,1.3
				c0,0.4-0.1,0.8-0.4,1.1c-0.2,0.3-0.5,0.4-0.9,0.4c-0.3,0-0.5-0.1-0.7-0.3c-0.2-0.2-0.3-0.5-0.3-0.8c0-0.6,0.3-1,1-1.1
				c-0.2-0.1-0.3-0.1-0.5-0.1c-0.3,0-0.6,0.1-0.8,0.3c-0.3,0.2-0.5,0.4-0.6,0.7c-0.1,0.3-0.2,0.5-0.3,0.7c0,0.2-0.1,0.6-0.1,1.2v1.6
				c0,0.6,0,0.9,0.1,1.1c0.1,0.2,0.3,0.3,0.7,0.3h0.9v1.1H188.4z"/>
			<path class="st1" d="M196.5,124.2v-3.2h1.2c0.1,0.4,0.1,0.7,0.2,0.9c0.1,0.2,0.3,0.4,0.5,0.7c0.5,0.5,1.1,0.7,1.8,0.7
				c0.4,0,0.7-0.1,1-0.3s0.4-0.4,0.4-0.7c0-0.3-0.1-0.5-0.3-0.6c-0.1-0.1-0.3-0.2-0.5-0.2c-0.2-0.1-0.5-0.1-1.1-0.2
				c-1.1-0.2-1.8-0.5-2.3-0.8c-0.3-0.2-0.5-0.4-0.7-0.7c-0.2-0.3-0.3-0.7-0.3-1c0-0.7,0.3-1.3,0.8-1.7c0.5-0.4,1.2-0.7,2-0.7
				c0.9,0,1.7,0.3,2.4,1l0.2-0.7h1.2v3H202c0-0.6-0.3-1.1-0.7-1.5c-0.5-0.4-1-0.6-1.6-0.6c-0.3,0-0.6,0.1-0.8,0.3
				c-0.2,0.2-0.3,0.4-0.3,0.7c0,0.2,0.1,0.4,0.2,0.5c0.1,0.1,0.3,0.2,0.4,0.2c0.1,0,0.6,0.1,1.3,0.3c2,0.4,3.1,1.3,3.1,2.6
				c0,0.7-0.3,1.3-0.8,1.8c-0.5,0.5-1.3,0.7-2.1,0.7c-0.5,0-1-0.1-1.4-0.2s-0.8-0.4-1.2-0.8l-0.2,0.8H196.5z"/>
			<path class="st1" d="M205.8,123.3c-0.9-0.8-1.3-1.8-1.3-2.9s0.4-2.1,1.3-2.9c0.9-0.8,1.9-1.2,3.1-1.2c1.3,0,2.3,0.4,3.2,1.2
				c0.9,0.8,1.3,1.8,1.3,3c0,1.1-0.4,2.1-1.2,2.9c-0.8,0.8-1.8,1.2-3,1.2C207.7,124.5,206.7,124.1,205.8,123.3z M206.8,120.2
				c0,2.1,0.7,3.1,2.1,3.1c0.7,0,1.2-0.2,1.6-0.7c0.4-0.5,0.6-1.2,0.6-2.1c0-2.2-0.7-3.2-2.1-3.2
				C207.5,117.2,206.8,118.2,206.8,120.2z"/>
			<path class="st1" d="M213.3,124.2v-1.1h0.9c0.4,0,0.6-0.1,0.7-0.3c0.1-0.1,0.1-0.5,0.1-1.1V119c0-0.6,0-0.9-0.1-1.1
				c-0.1-0.2-0.3-0.3-0.7-0.3h-0.9v-1.1h3.7v1.5c0.4-0.6,0.8-1.1,1.2-1.3c0.4-0.3,0.9-0.4,1.4-0.4c0.9,0,1.6,0.3,2,0.9
				c0.2,0.2,0.3,0.5,0.3,0.7c0,0.3,0.1,0.7,0.1,1.4v2.4c0,0.6,0,0.9,0.1,1.1c0.1,0.2,0.3,0.3,0.7,0.3h0.9v1.1h-4.9v-1.1h0.4
				c0.4,0,0.6-0.1,0.7-0.3c0.1-0.1,0.1-0.5,0.1-1.1v-2.1c0-0.6,0-0.9,0-1c0-0.1-0.1-0.3-0.2-0.4c-0.2-0.4-0.7-0.6-1.2-0.6
				c-0.6,0-1,0.2-1.4,0.7c-0.2,0.3-0.3,0.8-0.3,1.3v2.1c0,0.6,0,0.9,0.1,1.1c0.1,0.2,0.3,0.3,0.7,0.3h0.4v1.1H213.3z"/>
			<path class="st1" d="M223.7,122.4c0-1.2,0.9-2,2.7-2.4c1.2-0.3,1.8-0.5,2-0.6c0.3-0.2,0.4-0.5,0.4-0.8c0-0.4-0.2-0.7-0.5-1
				c-0.4-0.3-0.8-0.4-1.4-0.4c-0.7,0-1.1,0.2-1.4,0.6c0.6,0,0.9,0.3,0.9,0.9c0,0.3-0.1,0.6-0.3,0.8c-0.2,0.2-0.5,0.3-0.8,0.3
				c-0.4,0-0.6-0.1-0.9-0.4c-0.2-0.2-0.3-0.6-0.3-0.9c0-0.6,0.3-1.2,0.8-1.5c0.5-0.4,1.3-0.6,2.3-0.6c1.5,0,2.4,0.3,3,1
				c0.3,0.4,0.4,1,0.4,1.8v2.9c0,0.5,0,0.9,0.1,1c0.1,0.1,0.2,0.2,0.4,0.2c0.3,0,0.5-0.2,0.5-0.7v-1.1h1.1c0,0.8,0,1.4-0.1,1.7
				c-0.1,0.9-0.8,1.4-2,1.4c-0.6,0-1-0.1-1.4-0.3c-0.3-0.2-0.5-0.6-0.6-1.1c-0.4,0.5-0.8,0.9-1.1,1.1c-0.4,0.2-0.9,0.3-1.5,0.3
				c-0.7,0-1.3-0.2-1.8-0.6C224,123.5,223.7,123,223.7,122.4z M226.1,122.2c0,0.3,0.1,0.5,0.3,0.7c0.2,0.2,0.5,0.3,0.8,0.3
				c1.1,0,1.6-0.8,1.6-2.3c0-0.2,0-0.4,0-0.6c-0.3,0.2-0.9,0.4-1.8,0.8C226.4,121.3,226.1,121.7,226.1,122.2z"/>
			<path class="st1" d="M232.7,124.2v-1.1h0.8c0.4,0,0.6-0.1,0.7-0.3c0.1-0.1,0.1-0.5,0.1-1.1v-6.3c0-0.6,0-0.9-0.1-1.1
				c-0.1-0.2-0.3-0.3-0.7-0.3h-0.8V113h3.5v8.8c0,0.6,0,0.9,0.1,1.1c0.1,0.2,0.3,0.3,0.7,0.3h0.8v1.1H232.7z"/>
		</g>
	</g>
	<g>
		<path class="st1" d="M71.6,123.1c0-0.3,0.1-0.6,0.4-0.8c0.2-0.2,0.5-0.3,0.9-0.3c0.4,0,0.8,0.2,1,0.5c0.3,0.3,0.4,0.7,0.4,1.2
			c0,0.8-0.3,1.4-1,1.9c-0.4,0.3-0.9,0.5-1.5,0.6v-0.9c0.8-0.2,1.2-0.6,1.3-1.3c-0.2,0.1-0.3,0.1-0.5,0.1c-0.3,0-0.5-0.1-0.7-0.3
			C71.7,123.6,71.6,123.4,71.6,123.1z"/>
	</g>
</g>
</svg>
