<?xml version="1.0" encoding="utf-8"?>
<!-- Generator: Adobe Illustrator 19.1.0, SVG Export Plug-In . SVG Version: 6.00 Build 0)  -->
<svg version="1.1" id="Layer_1" xmlns="http://www.w3.org/2000/svg" xmlns:xlink="http://www.w3.org/1999/xlink" x="0px" y="0px"
	 viewBox="-34.1 35.2 71.3 42.8" style="enable-background:new -34.1 35.2 71.3 42.8;" xml:space="preserve">
<style type="text/css">
	.st0{fill:#FFB600;}
	.st1{fill:#F7981D;}
	.st2{fill:#FF8500;}
	.st3{fill:#FF5050;}
	.st4{fill:#E52836;}
	.st5{fill:#CB2026;}
	.st6{fill:#FFFFFF;}
	.st7{fill:#DCE5E5;}
</style>
<g>
	<g>
		<g>
			<path class="st0" d="M33,56.5c0,10.4-8.4,18.9-18.9,18.9c-10.4,0-18.9-8.5-18.9-18.9l0,0c0-10.4,8.4-18.9,18.8-18.9
				C24.6,37.6,33,46.1,33,56.5L33,56.5z"/>
		</g>
	</g>
	<g>
		<g>
			<path class="st1" d="M14.1,37.6c10.4,0,18.9,8.5,18.9,18.9l0,0c0,10.4-8.4,18.9-18.9,18.9c-10.4,0-18.9-8.5-18.9-18.9"/>
		</g>
	</g>
	<g>
		<g>
			<path class="st2" d="M14.1,37.6c10.4,0,18.9,8.5,18.9,18.9l0,0c0,10.4-8.4,18.9-18.9,18.9"/>
		</g>
	</g>
	<g>
		<g>
			<path class="st3" d="M-11.3,37.6C-21.6,37.7-30,46.1-30,56.5s8.4,18.9,18.9,18.9c4.9,0,9.3-1.9,12.7-4.9l0,0l0,0
				c0.7-0.6,1.3-1.3,1.9-2h-3.9c-0.5-0.6-1-1.3-1.4-1.9h6.7c0.4-0.6,0.8-1.3,1.1-2h-8.9c-0.3-0.6-0.6-1.3-0.8-2H6.7
				c0.6-1.9,1-3.9,1-6c0-1.4-0.2-2.7-0.4-4H-4.3c0.1-0.7,0.3-1.3,0.5-2H6.6c-0.2-0.7-0.5-1.4-0.8-2H-3c0.3-0.7,0.7-1.3,1.1-2h6.7
				c-0.4-0.7-0.9-1.4-1.5-2h-3.7c0.6-0.7,1.2-1.3,1.9-1.9c-3.3-3.1-7.8-4.9-12.7-4.9C-11.2,37.6-11.2,37.6-11.3,37.6z"/>
		</g>
	</g>
	<g>
		<g>
			<path class="st4" d="M-30,56.5c0,10.4,8.4,18.9,18.9,18.9c4.9,0,9.3-1.9,12.7-4.9l0,0l0,0c0.7-0.6,1.3-1.3,1.9-2h-3.9
				c-0.5-0.6-1-1.3-1.4-1.9h6.7c0.4-0.6,0.8-1.3,1.1-2h-8.9c-0.3-0.6-0.6-1.3-0.8-2H6.7c0.6-1.9,1-3.9,1-6c0-1.4-0.2-2.7-0.4-4H-4.3
				c0.1-0.7,0.3-1.3,0.5-2H6.6c-0.2-0.7-0.5-1.4-0.8-2H-3c0.3-0.7,0.7-1.3,1.1-2h6.7c-0.4-0.7-0.9-1.4-1.5-2h-3.7
				c0.6-0.7,1.2-1.3,1.9-1.9c-3.3-3.1-7.8-4.9-12.7-4.9h-0.1"/>
		</g>
	</g>
	<g>
		<g>
			<path class="st5" d="M-11.1,75.4c4.9,0,9.3-1.9,12.7-4.9l0,0l0,0c0.7-0.6,1.3-1.3,1.9-2h-3.9c-0.5-0.6-1-1.3-1.4-1.9h6.7
				c0.4-0.6,0.8-1.3,1.1-2h-8.9c-0.3-0.6-0.6-1.3-0.8-2H6.7c0.6-1.9,1-3.9,1-6c0-1.4-0.2-2.7-0.4-4H-4.3c0.1-0.7,0.3-1.3,0.5-2H6.6
				c-0.2-0.7-0.5-1.4-0.8-2H-3c0.3-0.7,0.7-1.3,1.1-2h6.7c-0.4-0.7-0.9-1.4-1.5-2h-3.7c0.6-0.7,1.2-1.3,1.9-1.9
				c-3.3-3.1-7.8-4.9-12.7-4.9h-0.1"/>
		</g>
	</g>
	<g>
		<g>
			<g>
				<path class="st6" d="M-4.4,61.3l0.3-1.7c-0.1,0-0.3,0.1-0.5,0.1c-0.7,0-0.8-0.4-0.7-0.6l0.6-3.5h1.1l0.3-1.9h-1l0.2-1.2h-2
					c0,0-1.2,6.6-1.2,7.4c0,1.2,0.7,1.7,1.6,1.7C-5.1,61.6-4.6,61.4-4.4,61.3z"/>
			</g>
		</g>
		<g>
			<g>
				<path class="st6" d="M-3.7,58.1c0,2.8,1.9,3.5,3.5,3.5c1.5,0,2.1-0.3,2.1-0.3l0.4-1.9c0,0-1.1,0.5-2.1,0.5
					c-2.2,0-1.8-1.6-1.8-1.6h4.1c0,0,0.3-1.3,0.3-1.8c0-1.3-0.7-2.9-2.9-2.9C-2.2,53.4-3.7,55.6-3.7,58.1z M-0.2,55.2
					c1.1,0,0.9,1.3,0.9,1.4h-2.2C-1.5,56.5-1.3,55.2-0.2,55.2z"/>
			</g>
		</g>
		<g>
			<g>
				<path class="st6" d="M12.5,61.3l0.4-2.2c0,0-1,0.5-1.7,0.5c-1.4,0-2-1.1-2-2.3c0-2.4,1.2-3.7,2.6-3.7c1,0,1.8,0.6,1.8,0.6
					l0.3-2.1c0,0-1.2-0.5-2.3-0.5c-2.3,0-4.6,2-4.6,5.8c0,2.5,1.2,4.2,3.6,4.2C11.4,61.6,12.5,61.3,12.5,61.3z"/>
			</g>
		</g>
		<g>
			<g>
				<path class="st6" d="M-15.4,53.4c-1.4,0-2.4,0.4-2.4,0.4l-0.3,1.7c0,0,0.9-0.4,2.2-0.4c0.7,0,1.3,0.1,1.3,0.7
					c0,0.4-0.1,0.5-0.1,0.5s-0.6,0-0.9,0c-1.7,0-3.6,0.7-3.6,3c0,1.8,1.2,2.2,1.9,2.2c1.4,0,2-0.9,2.1-0.9l-0.1,0.8h1.8l0.8-5.5
					C-12.7,53.5-14.7,53.4-15.4,53.4z M-15,57.9c0,0.3-0.2,1.9-1.4,1.9c-0.6,0-0.8-0.5-0.8-0.8c0-0.5,0.3-1.2,1.8-1.2
					C-15.1,57.9-15,57.9-15,57.9z"/>
			</g>
		</g>
		<g>
			<g>
				<path class="st6" d="M-10.8,61.5c0.5,0,3,0.1,3-2.6c0-2.5-2.4-2-2.4-3c0-0.5,0.4-0.7,1.1-0.7c0.3,0,1.4,0.1,1.4,0.1l0.3-1.8
					c0,0-0.7-0.2-1.9-0.2c-1.5,0-3,0.6-3,2.6c0,2.3,2.5,2.1,2.5,3c0,0.6-0.7,0.7-1.2,0.7c-0.9,0-1.8-0.3-1.8-0.3l-0.3,1.8
					C-13,61.3-12.5,61.5-10.8,61.5z"/>
			</g>
		</g>
		<g>
			<g>
				<path class="st6" d="M29.1,51.8l-0.4,2.7c0,0-0.8-1-1.9-1c-1.8,0-3.4,2.2-3.4,4.8c0,1.6,0.8,3.3,2.5,3.3c1.2,0,1.9-0.8,1.9-0.8
					l-0.1,0.7h2l1.5-9.6L29.1,51.8z M28.2,57.1c0,1.1-0.5,2.5-1.6,2.5c-0.7,0-1.1-0.6-1.1-1.6c0-1.6,0.7-2.6,1.6-2.6
					C27.8,55.4,28.2,55.9,28.2,57.1z"/>
			</g>
		</g>
		<g>
			<g>
				<path class="st6" d="M-26.3,61.4l1.2-7.2l0.2,7.2h1.4l2.6-7.2l-1.1,7.2h2.1l1.6-9.6h-3.3l-2,5.9l-0.1-5.9h-2.9l-1.6,9.6H-26.3z"
					/>
			</g>
		</g>
		<g>
			<g>
				<path class="st6" d="M4.7,61.4c0.6-3.3,0.7-6,2.1-5.5c0.2-1.3,0.5-1.8,0.7-2.3c0,0-0.1,0-0.4,0c-0.9,0-1.6,1.2-1.6,1.2l0.2-1.1
					H3.8l-1.3,7.8h2.2V61.4z"/>
			</g>
		</g>
		<g>
			<g>
				<path class="st6" d="M17.1,53.4c-1.4,0-2.4,0.4-2.4,0.4l-0.3,1.7c0,0,0.9-0.4,2.2-0.4c0.7,0,1.3,0.1,1.3,0.7
					c0,0.4-0.1,0.5-0.1,0.5s-0.6,0-0.9,0c-1.7,0-3.6,0.7-3.6,3c0,1.8,1.2,2.2,1.9,2.2c1.4,0,2-0.9,2.1-0.9l-0.1,0.8H19l0.8-5.5
					C19.9,53.5,17.8,53.4,17.1,53.4z M17.6,57.9c0,0.3-0.2,1.9-1.4,1.9c-0.6,0-0.8-0.5-0.8-0.8c0-0.5,0.3-1.2,1.8-1.2
					C17.5,57.9,17.5,57.9,17.6,57.9z"/>
			</g>
		</g>
		<g>
			<g>
				<path class="st6" d="M21.5,61.4c0.6-3.3,0.7-6,2.1-5.5c0.2-1.3,0.5-1.8,0.7-2.3c0,0-0.1,0-0.4,0c-0.9,0-1.6,1.2-1.6,1.2l0.2-1.1
					h-1.9l-1.3,7.8h2.2V61.4z"/>
			</g>
		</g>
	</g>
	<g>
		<g>
			<g>
				<path class="st7" d="M-7.5,59.9c0,1.2,0.7,1.7,1.6,1.7c0.7,0,1.3-0.2,1.5-0.3l0.3-1.7c-0.1,0-0.3,0.1-0.5,0.1
					c-0.7,0-0.8-0.4-0.7-0.6l0.6-3.5h1.1l0.3-1.9h-1l0.2-1.2"/>
			</g>
		</g>
		<g>
			<g>
				<path class="st7" d="M-2.7,58.1c0,2.8,0.9,3.5,2.5,3.5c1.5,0,2.1-0.3,2.1-0.3l0.4-1.9c0,0-1.1,0.5-2.1,0.5
					c-2.2,0-1.8-1.6-1.8-1.6h4.1c0,0,0.3-1.3,0.3-1.8c0-1.3-0.7-2.9-2.9-2.9C-2.2,53.4-2.7,55.6-2.7,58.1z M-0.2,55.2
					c1.1,0,1.3,1.3,1.3,1.4h-2.6C-1.5,56.5-1.3,55.2-0.2,55.2z"/>
			</g>
		</g>
		<g>
			<g>
				<path class="st7" d="M12.5,61.3l0.4-2.2c0,0-1,0.5-1.7,0.5c-1.4,0-2-1.1-2-2.3c0-2.4,1.2-3.7,2.6-3.7c1,0,1.8,0.6,1.8,0.6
					l0.3-2.1c0,0-1.2-0.5-2.3-0.5c-2.3,0-3.6,2-3.6,5.8c0,2.5,0.2,4.2,2.6,4.2C11.4,61.6,12.5,61.3,12.5,61.3z"/>
			</g>
		</g>
		<g>
			<g>
				<path class="st7" d="M-18.1,55.6c0,0,0.9-0.4,2.2-0.4c0.7,0,1.3,0.1,1.3,0.7c0,0.4-0.1,0.5-0.1,0.5s-0.6,0-0.9,0
					c-1.7,0-3.6,0.7-3.6,3c0,1.8,1.2,2.2,1.9,2.2c1.4,0,2-0.9,2.1-0.9l-0.1,0.8h1.8l0.8-5.5c0-2.3-2-2.4-2.8-2.4 M-14,57.9
					c0,0.3-1.2,1.9-2.4,1.9c-0.6,0-0.8-0.5-0.8-0.8c0-0.5,0.3-1.2,1.8-1.2C-15.1,57.9-14,57.9-14,57.9z"/>
			</g>
		</g>
		<g>
			<g>
				<path class="st7" d="M-13,61.3c0,0,0.6,0.2,2.3,0.2c0.5,0,3,0.1,3-2.6c0-2.5-2.4-2-2.4-3c0-0.5,0.4-0.7,1.1-0.7
					c0.3,0,1.4,0.1,1.4,0.1l0.3-1.8c0,0-0.7-0.2-1.9-0.2c-1.5,0-2,0.6-2,2.6c0,2.3,1.5,2.1,1.5,3c0,0.6-0.7,0.7-1.2,0.7"/>
			</g>
		</g>
		<g>
			<g>
				<path class="st7" d="M28.7,54.5c0,0-0.8-1-1.9-1c-1.8,0-2.4,2.2-2.4,4.8c0,1.6-0.2,3.3,1.5,3.3c1.2,0,1.9-0.8,1.9-0.8l-0.1,0.7
					h2l1.5-9.6 M28.6,57.1c0,1.1-0.9,2.5-2,2.5c-0.7,0-1.1-0.6-1.1-1.6c0-1.6,0.7-2.6,1.6-2.6C27.8,55.4,28.6,55.9,28.6,57.1z"/>
			</g>
		</g>
		<g>
			<g>
				<path class="st7" d="M-26.3,61.4l1.2-7.2l0.2,7.2h1.4l2.6-7.2l-1.1,7.2h2.1l1.6-9.6h-2.5l-2.8,5.9l-0.1-5.9h-1.1l-3.4,9.6H-26.3
					z"/>
			</g>
		</g>
		<g>
			<g>
				<path class="st7" d="M2.6,61.4h2.1c0.6-3.3,0.7-6,2.1-5.5c0.2-1.3,0.5-1.8,0.7-2.3c0,0-0.1,0-0.4,0c-0.9,0-1.6,1.2-1.6,1.2
					l0.2-1.1"/>
			</g>
		</g>
		<g>
			<g>
				<path class="st7" d="M14.4,55.6c0,0,0.9-0.4,2.2-0.4c0.7,0,1.3,0.1,1.3,0.7c0,0.4-0.1,0.5-0.1,0.5s-0.6,0-0.9,0
					c-1.7,0-3.6,0.7-3.6,3c0,1.8,1.2,2.2,1.9,2.2c1.4,0,2-0.9,2.1-0.9l-0.1,0.8H19l0.8-5.5c0-2.3-2-2.4-2.8-2.4 M18.5,57.9
					c0,0.3-1.2,1.9-2.4,1.9c-0.6,0-0.8-0.5-0.8-0.8c0-0.5,0.3-1.2,1.8-1.2C17.5,57.9,18.5,57.9,18.5,57.9z"/>
			</g>
		</g>
		<g>
			<g>
				<path class="st7" d="M19.4,61.4h2.1c0.6-3.3,0.7-6,2.1-5.5c0.2-1.3,0.5-1.8,0.7-2.3c0,0-0.1,0-0.4,0c-0.9,0-1.6,1.2-1.6,1.2
					l0.2-1.1"/>
			</g>
		</g>
	</g>
</g>
</svg>
