<?xml version="1.0" encoding="utf-8"?>
<!-- Generator: Adobe Illustrator 22.0.1, SVG Export Plug-In . SVG Version: 6.00 Build 0)  -->
<svg version="1.1" id="Layer_1" xmlns="http://www.w3.org/2000/svg" xmlns:xlink="http://www.w3.org/1999/xlink" x="0px" y="0px"
	 viewBox="0 0 573.6 152.7" style="enable-background:new 0 0 573.6 152.7;" xml:space="preserve">
<style type="text/css">
	.st0{fill:#2A5CAA;}
</style>
<g>
	<path class="st0" d="M130.8,35c-9.9,0-16.4,3-21,8.1V1.8H90v110.8h19.8v-38c0-12.8,5.1-21.6,17.9-21.6c9.5,0,12.4,9.1,12.4,16.6
		v42.9h19.8V65.3C159.9,47.4,151.1,35,130.8,35z"/>
	<rect x="171.3" y="36.5" class="st0" width="19.8" height="76.1"/>
	<path class="st0" d="M245.1,35c-9.9,0-16.4,3-21,8.1v-6.7h-19.8v76.1h19.8v-38c0-12.8,5.1-21.6,17.9-21.6c9.5,0,12.4,9.1,12.4,16.6
		v42.9h19.8V65.3C274.2,47.4,265.3,35,245.1,35z"/>
	<path class="st0" d="M337.3,45.5c-4.9-5.6-12-9-21.7-9c-22.5,0-34.9,18.9-34.9,38.7c0,22.5,12.5,39,34.9,39c9.9,0,18.5-3.5,22-8.1
		v6.4h19.5V1.6h-19.8V45.5z M318.9,96.2c-10.5,0-19-8.3-19-19.8c0-13.4,8.7-23.2,19-23.2c11.8,0,18.4,10.6,18.4,21.9
		C337.3,86.8,330.7,96.2,318.9,96.2z"/>
	<rect x="369.6" y="36.5" class="st0" width="19.8" height="76.1"/>
	<path class="st0" d="M379.5,0L379.5,0c-6.7,0-12.2,5.5-12.2,12.2l0,0c0,6.7,5.5,12.2,12.2,12.2h0c6.7,0,12.2-5.5,12.2-12.2l0,0
		C391.7,5.5,386.2,0,379.5,0z"/>
	<path class="st0" d="M181.2,0L181.2,0C174.5,0,169,5.5,169,12.2l0,0c0,6.7,5.5,12.2,12.2,12.2h0c6.7,0,12.2-5.5,12.2-12.2l0,0
		C193.4,5.5,187.9,0,181.2,0z"/>
	<polygon class="st0" points="507.9,93.4 545.6,52.9 545.6,36.5 481.9,36.5 481.9,55.7 519,55.7 481.3,96.2 481.3,112.6 548,112.6 
		548,93.4 	"/>
	<path class="st0" d="M39,0C19.2,0,0,11.1,0,34.6c0,22.9,18.5,27.2,32,30.8c12,3.1,26.1,6.5,26.1,16.8c0,7.5-8.5,12.4-16.6,12.4
		c-7.2,0-15.9-4.6-18.7-11.4c-0.6-1.5-0.7-4.6-0.7-4.6L0.6,79c0.1,5.1,2.3,12,4.2,15.9c6.4,13.1,19.3,19.5,35.4,19.5
		c18,0,38.6-9.6,38.6-33.1c0-25.9-24.2-29.4-40-33.6c-9.2-2.4-17.9-5.6-17.9-14.6c0-8.9,8.8-15.1,17.8-15.1
		c14.4,0,21.8,7.7,21.8,19.2l20.7,3.2c0.1-1.2,0.1-2.5,0.1-3.6C81.3,12.3,59.9,0,39,0z"/>
	<path class="st0" d="M466.4,21.8l-16,17.7c-4.5-2-7.8-2.7-14.7-2.7c-20.6,0-35.1,12.1-35.1,29.1c0,6.2,1.9,15.5,8,19.6
		c-2.1,2.6-4.5,7.3-4.5,13.6c0,4.5,2,8.9,4.1,11.7c-3.1,1.7-11.4,6.9-11.4,18.1c0,14.5,12.7,23.9,39.1,23.9c25.6,0,40.4-8.8,40.4-26
		c0-13.8-9.5-21.5-25.9-21.5h-14.1h-8.8c-4.1,0-6-2.8-6-6.2c0-2.5,0.9-4.4,2.4-5.7c2.6,1.2,6.4,1.7,11.8,1.7c19,0,35-12.2,34.6-29.2
		c-0.2-7.5-3.8-13.9-7.1-16.8l15.1-16.7L466.4,21.8z M436.4,120.4c16.9,0,21.3,1.1,21.3,1.1c0,13.6-10.7,17.2-20.9,17.2
		c-12.3,0-21.8-4.3-21.8-17.7C415.1,120.9,419.5,120.4,436.4,120.4z M435.4,79.8c-10.5,0-15.8-7.3-15.8-14.2
		c0-6.9,5.6-14.1,15.6-14.1c10,0,16.5,7.3,16.5,14.2C451.8,72.5,445.9,79.8,435.4,79.8z"/>
	<g>
		<path class="st0" d="M557.5,37.8h-2.8v-1.3h7.1v1.3H559v9.7h-1.4V37.8z"/>
		<path class="st0" d="M573.6,47.5h-1.4v-7.7l-3.2,7.7h-1.1l-3.2-7.7v7.7h-1.4v-11h1.4l3.8,8.8l3.8-8.8h1.4V47.5z"/>
	</g>
</g>
</svg>
