<?xml version="1.0" encoding="utf-8"?>
<!-- Generator: Adobe Illustrator 22.0.1, SVG Export Plug-In . SVG Version: 6.00 Build 0)  -->
<svg version="1.1" id="Layer_1" xmlns="http://www.w3.org/2000/svg" xmlns:xlink="http://www.w3.org/1999/xlink" x="0px" y="0px"
	 viewBox="0 0 395.8 88.8" style="enable-background:new 0 0 395.8 88.8;" xml:space="preserve">
<style type="text/css">
	.st0{fill:#363FC8;}
	.st1{fill:#B14397;}
	.st2{fill:#F0BFD8;}
	.st3{fill:#FCCE59;}
	.st4{fill:#5AC5CB;}
	.st5{fill:#F06464;}
</style>
<g>
	<g>
		<path class="st0" d="M58.3,35.7c-2.8,0-4.7,0.8-6,2.3V26.2h-5.6v31.5h5.6V46.9c0-3.7,1.4-6.1,5.1-6.1c2.7,0,3.5,2.6,3.5,4.7v12.2
			h5.6V44.3C66.5,39.2,64,35.7,58.3,35.7z"/>
		<rect x="69.8" y="36.1" class="st0" width="5.6" height="21.6"/>
		<path class="st0" d="M90.7,35.7c-2.8,0-4.7,0.8-6,2.3v-1.9h-5.6v21.6h5.6V46.9c0-3.7,1.4-6.1,5.1-6.1c2.7,0,3.5,2.6,3.5,4.7v12.2
			H99V44.3C99,39.2,96.5,35.7,90.7,35.7z"/>
		<path class="st0" d="M116.9,38.6c-1.4-1.6-3.4-2.6-6.2-2.6c-6.4,0-9.9,5.4-9.9,11c0,6.4,3.5,11.1,9.9,11.1c2.8,0,5.3-1,6.3-2.3
			v1.8h5.5V26.2h-5.6V38.6z M111.7,53.1c-3,0-5.4-2.4-5.4-5.6c0-3.8,2.5-6.6,5.4-6.6c3.4,0,5.2,3,5.2,6.2
			C116.9,50.4,115.1,53.1,111.7,53.1z"/>
		<rect x="126.1" y="36.1" class="st0" width="5.6" height="21.6"/>
		<path class="st0" d="M128.9,25.7L128.9,25.7c-1.9,0-3.5,1.5-3.5,3.5l0,0c0,1.9,1.5,3.5,3.5,3.5h0c1.9,0,3.5-1.5,3.5-3.5l0,0
			C132.4,27.3,130.8,25.7,128.9,25.7z"/>
		<path class="st0" d="M72.6,25.7L72.6,25.7c-1.9,0-3.5,1.5-3.5,3.5l0,0c0,1.9,1.5,3.5,3.5,3.5h0c1.9,0,3.5-1.5,3.5-3.5l0,0
			C76,27.3,74.5,25.7,72.6,25.7z"/>
		<polygon class="st0" points="165.4,52.3 176.1,40.7 176.1,36.1 158,36.1 158,41.5 168.6,41.5 157.9,53.1 157.9,57.7 176.8,57.7 
			176.8,52.3 		"/>
		<path class="st0" d="M32.2,25.7c-5.6,0-11.1,3.2-11.1,9.8c0,6.5,5.3,7.7,9.1,8.8c3.4,0.9,7.4,1.8,7.4,4.8c0,2.1-2.4,3.5-4.7,3.5
			c-2.1,0-4.5-1.3-5.3-3.2c-0.2-0.4-0.2-1.3-0.2-1.3l-6.1,0.1c0,1.4,0.7,3.4,1.2,4.5c1.8,3.7,5.5,5.5,10.1,5.5c5.1,0,11-2.7,11-9.4
			c0-7.4-6.9-8.4-11.4-9.5c-2.6-0.7-5.1-1.6-5.1-4.2c0-2.5,2.5-4.3,5.1-4.3c4.1,0,6.2,2.2,6.2,5.5l5.9,0.9c0-0.4,0-0.7,0-1
			C44.2,29.2,38.1,25.7,32.2,25.7z"/>
		<path class="st0" d="M153.6,31.9l-4.5,5c-1.3-0.6-2.2-0.8-4.2-0.8c-5.9,0-10,3.4-10,8.3c0,1.7,0.5,4.4,2.3,5.6
			c-0.6,0.7-1.3,2.1-1.3,3.9c0,1.3,0.6,2.5,1.2,3.3c-0.9,0.5-3.2,2-3.2,5.1c0,4.1,3.6,6.8,11.1,6.8c7.3,0,11.5-2.5,11.5-7.4
			c0-3.9-2.7-6.1-7.4-6.1h-4h-2.5c-1.2,0-1.7-0.8-1.7-1.7c0-0.7,0.2-1.3,0.7-1.6c0.7,0.3,1.8,0.5,3.4,0.5c5.4,0,10-3.5,9.8-8.3
			c-0.1-2.1-1.1-4-2-4.8L157,35L153.6,31.9z M145.1,59.9c4.8,0,6.1,0.3,6.1,0.3c0,3.9-3,4.9-5.9,4.9c-3.5,0-6.2-1.2-6.2-5
			C139,60.1,140.3,59.9,145.1,59.9z M144.8,48.4c-3,0-4.5-2.1-4.5-4c0-2,1.6-4,4.4-4c2.8,0,4.7,2.1,4.7,4
			C149.5,46.3,147.8,48.4,144.8,48.4z"/>
		<g>
			<path class="st0" d="M179.5,36.5h-0.8v-0.4h2v0.4h-0.8v2.7h-0.4V36.5z"/>
			<path class="st0" d="M184.1,39.2h-0.4V37l-0.9,2.2h-0.3l-0.9-2.2v2.2h-0.4v-3.1h0.4l1.1,2.5l1.1-2.5h0.4V39.2z"/>
		</g>
	</g>
	<polygon class="st1" points="199.7,39.3 198.6,43.1 196.8,43.1 194.3,36.1 196.5,36.1 197.7,40.3 198.9,36.1 200.6,36.1 
		201.8,40.3 203,36.1 205.2,36.1 202.7,43.1 200.9,43.1 	"/>
	<polygon class="st1" points="210.6,40.5 208.6,40.5 208.6,43.1 206.6,43.1 206.6,36.1 208.6,36.1 208.6,38.8 210.6,38.8 
		210.6,36.1 212.7,36.1 212.7,43.1 210.6,43.1 	"/>
	<polygon class="st1" points="216.8,37.7 216.8,38.9 219.2,38.9 219.2,40.4 216.8,40.4 216.8,41.5 219.2,41.5 219.2,43.1 
		214.7,43.1 214.7,36.1 219.2,36.1 219.2,37.7 	"/>
	<g>
		<path class="st1" d="M224.1,39.7c0.3,0,0.5-0.1,0.7-0.3c0.2-0.2,0.3-0.4,0.3-0.7c0-0.3-0.1-0.5-0.2-0.7c-0.2-0.2-0.4-0.3-0.7-0.3
			h-0.9v2H224.1z M221.2,36.1h3.3c0.4,0,0.8,0.1,1.1,0.2c0.3,0.1,0.6,0.3,0.8,0.6c0.2,0.2,0.4,0.5,0.5,0.8c0.1,0.3,0.2,0.6,0.2,1
			c0,0.5-0.1,0.9-0.3,1.3c-0.2,0.4-0.5,0.7-0.9,0.9l1.4,2.1h-2.4l-1.2-1.8h-0.4v1.8h-2.1V36.1z"/>
	</g>
	<polygon class="st1" points="231,37.7 231,38.9 233.5,38.9 233.5,40.4 231,40.4 231,41.5 233.5,41.5 233.5,43.1 229,43.1 229,36.1 
		233.5,36.1 233.5,37.7 	"/>
	<polygon class="st1" points="240.6,37.8 240.6,39.3 243,39.3 243,41 240.6,41 240.6,43.1 238.5,43.1 238.5,36.1 243,36.1 243,37.8 
			"/>
	<g>
		<path class="st1" d="M244.8,36.1h2.1v4.5c0,0.2,0.1,0.4,0.2,0.6c0.2,0.2,0.4,0.3,0.6,0.3c0.3,0,0.5-0.1,0.6-0.3
			c0.2-0.2,0.2-0.4,0.2-0.6v-4.5h2.1v4.6c0,0.4-0.1,0.7-0.2,1c-0.1,0.3-0.3,0.6-0.6,0.8c-0.3,0.2-0.6,0.4-0.9,0.5
			c-0.4,0.1-0.8,0.2-1.2,0.2c-0.5,0-0.9-0.1-1.2-0.2c-0.4-0.1-0.7-0.3-0.9-0.5c-0.3-0.2-0.4-0.5-0.6-0.8c-0.1-0.3-0.2-0.7-0.2-1
			V36.1z"/>
	</g>
	<polygon class="st1" points="257,40.2 257,36.1 259.1,36.1 259.1,43.1 257,43.1 254.7,39.1 254.7,43.1 252.6,43.1 252.6,36.1 
		254.7,36.1 	"/>
	<g>
		<path class="st1" d="M271.4,40.3c-0.1,0.4-0.2,0.8-0.4,1.1c-0.2,0.4-0.4,0.7-0.7,0.9c-0.3,0.3-0.7,0.5-1.1,0.6
			c-0.4,0.2-0.9,0.2-1.4,0.2c-0.6,0-1.1-0.1-1.6-0.3c-0.5-0.2-0.9-0.5-1.2-0.8c-0.3-0.3-0.6-0.7-0.7-1.2c-0.2-0.4-0.3-0.9-0.3-1.4
			c0-0.5,0.1-0.9,0.3-1.4c0.2-0.4,0.4-0.8,0.7-1.2c0.3-0.3,0.7-0.6,1.2-0.8c0.5-0.2,1-0.3,1.6-0.3c0.6,0,1.1,0.1,1.5,0.2
			c0.4,0.2,0.8,0.4,1.1,0.7c0.3,0.3,0.6,0.6,0.7,1c0.2,0.4,0.3,0.8,0.3,1.2h-2.2c-0.1-0.3-0.2-0.6-0.5-0.8c-0.2-0.2-0.6-0.3-1-0.3
			c-0.3,0-0.5,0-0.7,0.1c-0.2,0.1-0.4,0.2-0.5,0.4c-0.1,0.2-0.2,0.4-0.3,0.6c-0.1,0.2-0.1,0.4-0.1,0.7c0,0.3,0,0.5,0.1,0.7
			c0.1,0.2,0.2,0.4,0.3,0.6c0.1,0.2,0.3,0.3,0.5,0.4c0.2,0.1,0.5,0.1,0.7,0.1c0.4,0,0.7-0.1,1-0.3c0.3-0.2,0.4-0.5,0.5-0.7H271.4z"
			/>
		<path class="st1" d="M276.4,41.4c0.3,0,0.5,0,0.7-0.1c0.2-0.1,0.4-0.2,0.5-0.4c0.1-0.2,0.3-0.4,0.3-0.6c0.1-0.2,0.1-0.4,0.1-0.7
			c0-0.2,0-0.5-0.1-0.7c-0.1-0.2-0.2-0.4-0.3-0.6c-0.1-0.2-0.3-0.3-0.5-0.4c-0.2-0.1-0.4-0.1-0.7-0.1s-0.5,0-0.7,0.1
			s-0.4,0.2-0.5,0.4c-0.1,0.2-0.3,0.4-0.3,0.6c-0.1,0.2-0.1,0.4-0.1,0.7c0,0.2,0,0.5,0.1,0.7c0.1,0.2,0.2,0.4,0.3,0.6
			c0.1,0.2,0.3,0.3,0.5,0.4C275.9,41.3,276.2,41.4,276.4,41.4 M276.4,43.3c-0.6,0-1.1-0.1-1.6-0.3c-0.5-0.2-0.9-0.5-1.2-0.8
			c-0.3-0.3-0.6-0.7-0.7-1.2c-0.2-0.4-0.3-0.9-0.3-1.4s0.1-0.9,0.3-1.4c0.2-0.4,0.4-0.8,0.7-1.2c0.3-0.3,0.7-0.6,1.2-0.8
			c0.5-0.2,1-0.3,1.6-0.3s1.1,0.1,1.6,0.3c0.5,0.2,0.9,0.5,1.2,0.8c0.3,0.3,0.6,0.7,0.7,1.2c0.2,0.4,0.3,0.9,0.3,1.4
			s-0.1,0.9-0.3,1.4c-0.2,0.4-0.4,0.8-0.7,1.2c-0.3,0.3-0.7,0.6-1.2,0.8C277.6,43.2,277,43.3,276.4,43.3"/>
	</g>
	<polygon class="st1" points="290.1,43.1 288.1,43.1 288.1,38.8 286.8,43.1 285.3,43.1 283.9,38.8 283.9,43.1 281.9,43.1 
		281.9,36.1 284.5,36.1 286,40.6 287.5,36.1 290.1,36.1 	"/>
	<polygon class="st1" points="294.2,37.7 294.2,38.9 296.6,38.9 296.6,40.4 294.2,40.4 294.2,41.5 296.6,41.5 296.6,43.1 
		292.1,43.1 292.1,36.1 296.6,36.1 296.6,37.7 	"/>
	<g>
		<path class="st1" d="M300.3,40.7c0,0.3,0.1,0.6,0.2,0.7c0.2,0.2,0.4,0.3,0.6,0.3c0.2,0,0.4-0.1,0.5-0.2c0.1-0.1,0.2-0.3,0.2-0.4
			c0-0.2-0.1-0.3-0.3-0.5c-0.2-0.1-0.4-0.2-0.8-0.4c-0.3-0.1-0.6-0.3-0.9-0.4c-0.3-0.1-0.6-0.3-0.8-0.4c-0.2-0.2-0.4-0.4-0.5-0.6
			c-0.1-0.2-0.2-0.5-0.2-0.9c0-0.4,0.1-0.7,0.2-0.9c0.2-0.3,0.4-0.5,0.6-0.6c0.3-0.2,0.6-0.3,0.9-0.4c0.3-0.1,0.7-0.1,1-0.1
			c0.5,0,0.9,0.1,1.3,0.2c0.3,0.1,0.6,0.3,0.8,0.5c0.2,0.2,0.4,0.5,0.5,0.7c0.1,0.3,0.1,0.5,0.1,0.8h-2.1c0-0.6-0.2-0.9-0.7-0.9
			c-0.2,0-0.3,0-0.4,0.1c-0.1,0.1-0.2,0.2-0.2,0.4c0,0.2,0.1,0.3,0.2,0.4c0.2,0.1,0.4,0.2,0.7,0.3c0.3,0.1,0.6,0.2,0.9,0.3
			c0.3,0.1,0.6,0.3,0.8,0.4c0.2,0.2,0.4,0.4,0.6,0.6c0.2,0.2,0.2,0.6,0.2,0.9s-0.1,0.7-0.2,1c-0.1,0.3-0.3,0.5-0.6,0.7
			c-0.2,0.2-0.5,0.3-0.9,0.4c-0.4,0.1-0.7,0.2-1.2,0.2s-0.8-0.1-1.2-0.2c-0.4-0.1-0.7-0.3-0.9-0.5c-0.2-0.2-0.4-0.5-0.6-0.8
			c-0.1-0.3-0.2-0.7-0.2-1.1H300.3z"/>
	</g>
	<polygon class="st1" points="309.9,37.9 308.5,37.9 308.5,36.1 313.4,36.1 313.4,37.9 312,37.9 312,43.1 309.9,43.1 	"/>
	<g>
		<path class="st1" d="M318.3,41.4c0.3,0,0.5,0,0.7-0.1c0.2-0.1,0.4-0.2,0.5-0.4c0.1-0.2,0.3-0.4,0.3-0.6c0.1-0.2,0.1-0.4,0.1-0.7
			c0-0.2,0-0.5-0.1-0.7c-0.1-0.2-0.2-0.4-0.3-0.6c-0.1-0.2-0.3-0.3-0.5-0.4c-0.2-0.1-0.4-0.1-0.7-0.1c-0.3,0-0.5,0-0.7,0.1
			s-0.4,0.2-0.5,0.4c-0.1,0.2-0.3,0.4-0.3,0.6c-0.1,0.2-0.1,0.4-0.1,0.7c0,0.2,0,0.5,0.1,0.7c0.1,0.2,0.2,0.4,0.3,0.6
			s0.3,0.3,0.5,0.4C317.8,41.3,318.1,41.4,318.3,41.4 M318.3,43.3c-0.6,0-1.1-0.1-1.6-0.3c-0.5-0.2-0.9-0.5-1.2-0.8
			c-0.3-0.3-0.6-0.7-0.7-1.2c-0.2-0.4-0.3-0.9-0.3-1.4s0.1-0.9,0.3-1.4c0.2-0.4,0.4-0.8,0.7-1.2c0.3-0.3,0.7-0.6,1.2-0.8
			c0.5-0.2,1-0.3,1.6-0.3s1.1,0.1,1.6,0.3c0.5,0.2,0.9,0.5,1.2,0.8c0.3,0.3,0.6,0.7,0.7,1.2c0.2,0.4,0.3,0.9,0.3,1.4
			s-0.1,0.9-0.3,1.4c-0.2,0.4-0.4,0.8-0.7,1.2c-0.3,0.3-0.7,0.6-1.2,0.8C319.5,43.2,318.9,43.3,318.3,43.3"/>
		<path class="st1" d="M329.8,39.7c0.3,0,0.5-0.1,0.7-0.3c0.2-0.2,0.3-0.4,0.3-0.7c0-0.3-0.1-0.5-0.2-0.7c-0.2-0.2-0.4-0.3-0.7-0.3
			H329v2H329.8z M326.9,36.1h3.3c0.4,0,0.8,0.1,1.1,0.2c0.3,0.1,0.6,0.3,0.8,0.6c0.2,0.2,0.4,0.5,0.5,0.8c0.1,0.3,0.2,0.6,0.2,1
			c0,0.4-0.1,0.7-0.2,1c-0.1,0.3-0.3,0.6-0.5,0.8c-0.2,0.2-0.5,0.4-0.8,0.6c-0.3,0.1-0.7,0.2-1.1,0.2H329v1.8h-2.1V36.1z"/>
	</g>
	<path class="st1" d="M337.1,38.2l-0.7,2.6h1.5L337.1,38.2z M338.5,43.1l-0.2-0.8h-2.3l-0.2,0.8h-2.2l2.6-7h2.2l2.6,7H338.5z"/>
	<g>
		<path class="st1" d="M345.1,39.7c0.3,0,0.5-0.1,0.7-0.3c0.2-0.2,0.3-0.4,0.3-0.7c0-0.3-0.1-0.5-0.2-0.7c-0.2-0.2-0.4-0.3-0.7-0.3
			h-0.9v2H345.1z M342.1,36.1h3.3c0.4,0,0.8,0.1,1.1,0.2c0.3,0.1,0.6,0.3,0.8,0.6c0.2,0.2,0.4,0.5,0.5,0.8c0.1,0.3,0.2,0.6,0.2,1
			c0,0.5-0.1,0.9-0.3,1.3c-0.2,0.4-0.5,0.7-0.9,0.9l1.4,2.1h-2.4l-1.2-1.8h-0.4v1.8h-2.1V36.1z"/>
	</g>
	<polygon class="st1" points="350.9,37.9 349.4,37.9 349.4,36.1 354.4,36.1 354.4,37.9 352.9,37.9 352.9,43.1 350.9,43.1 	"/>
	<polygon class="st1" points="359,43.1 356.6,43.1 357.8,40.6 355.5,36.1 357.9,36.1 359.1,38.6 360.1,36.1 362.4,36.1 	"/>
	<rect x="231.3" y="22.5" transform="matrix(0.9358 -0.3525 0.3525 0.9358 6.731 83.9332)" class="st2" width="5.1" height="1.9"/>
	
		<rect x="347.1" y="24.2" transform="matrix(0.4127 -0.9109 0.9109 0.4127 180.1173 332.75)" class="st2" width="1.9" height="5.1"/>
	
		<rect x="337.5" y="52.9" transform="matrix(0.9358 -0.3525 0.3525 0.9358 2.8394 123.3109)" class="st2" width="5.1" height="1.9"/>
	
		<rect x="236.6" y="48.7" transform="matrix(0.8458 -0.5335 0.5335 0.8458 9.3015 134.6207)" class="st3" width="1.9" height="5.1"/>
	
		<rect x="288.5" y="54.5" transform="matrix(0.6681 -0.7441 0.7441 0.6681 55.306 234.9323)" class="st2" width="5.1" height="1.9"/>
	
		<rect x="187.1" y="43.4" transform="matrix(0.5845 -0.8114 0.8114 0.5845 40.8104 171.6498)" class="st2" width="1.9" height="5.1"/>
	
		<rect x="314.1" y="48.9" transform="matrix(0.7655 -0.6434 0.6434 0.7655 40.7841 214.7576)" class="st4" width="1.9" height="5.1"/>
	
		<rect x="265.4" y="49.4" transform="matrix(9.143866e-02 -0.9958 0.9958 9.143866e-02 190.3316 312.416)" class="st4" width="1.9" height="5.1"/>
	
		<rect x="314.8" y="26.4" transform="matrix(0.9996 -2.775907e-02 2.775907e-02 0.9996 -0.6355 8.8203)" class="st4" width="5.1" height="1.9"/>
	
		<rect x="261.2" y="24.2" transform="matrix(9.114138e-02 -0.9958 0.9958 9.114138e-02 211.6164 285.2791)" class="st5" width="1.9" height="5.1"/>
	<rect x="369.5" y="31.7" transform="matrix(0.939 -0.344 0.344 0.939 11.4872 129.9702)" class="st5" width="5.1" height="1.9"/>
	
		<rect x="205.4" y="51.8" transform="matrix(0.3042 -0.9526 0.9526 0.3042 94.3682 234.7634)" class="st5" width="5.1" height="1.9"/>
	
		<rect x="205.3" y="22.6" transform="matrix(0.5466 -0.8374 0.8374 0.5466 72.4656 184.0896)" class="st4" width="1.9" height="5.1"/>
	
		<rect x="288.5" y="24.2" transform="matrix(0.2209 -0.9753 0.9753 0.2209 202.212 303.3903)" class="st3" width="5.1" height="1.9"/>
	
		<rect x="366.3" y="47.6" transform="matrix(0.8458 -0.5335 0.5335 0.8458 29.9086 203.6508)" class="st3" width="1.9" height="5.1"/>
</g>
</svg>
