<?xml version="1.0" encoding="utf-8"?>
<!-- Generator: Adobe Illustrator 22.0.1, SVG Export Plug-In . SVG Version: 6.00 Build 0)  -->
<svg version="1.1" id="Layer_1" xmlns="http://www.w3.org/2000/svg" xmlns:xlink="http://www.w3.org/1999/xlink" x="0px" y="0px"
	 viewBox="0 0 353.7 47.4" style="enable-background:new 0 0 353.7 47.4;" xml:space="preserve">
<style type="text/css">
	.st0{fill:#363FC8;}
	.st1{fill:#B14397;}
	.st2{fill:#F0BFD8;}
	.st3{fill:#FCCE59;}
	.st4{fill:#5AC5CB;}
	.st5{fill:#F06464;}
</style>
<g>
	<g>
		<path class="st0" d="M37.2,14c-2.8,0-4.7,0.8-6,2.3V4.5h-5.6V36h5.6V25.2c0-3.7,1.4-6.1,5.1-6.1c2.7,0,3.5,2.6,3.5,4.7V36h5.6
			V22.6C45.4,17.5,42.9,14,37.2,14z"/>
		<rect x="48.7" y="14.4" class="st0" width="5.6" height="21.6"/>
		<path class="st0" d="M69.6,14c-2.8,0-4.7,0.8-6,2.3v-1.9H58V36h5.6V25.2c0-3.7,1.4-6.1,5.1-6.1c2.7,0,3.5,2.6,3.5,4.7V36h5.7V22.6
			C77.9,17.5,75.4,14,69.6,14z"/>
		<path class="st0" d="M95.8,16.9c-1.4-1.6-3.4-2.6-6.2-2.6c-6.4,0-9.9,5.4-9.9,11c0,6.4,3.5,11.1,9.9,11.1c2.8,0,5.3-1,6.3-2.3v1.8
			h5.5V4.5h-5.6C95.8,4.5,95.8,16.9,95.8,16.9z M90.6,31.4c-3,0-5.4-2.4-5.4-5.6c0-3.8,2.5-6.6,5.4-6.6c3.4,0,5.2,3,5.2,6.2
			C95.8,28.7,94,31.4,90.6,31.4z"/>
		<rect x="105" y="14.4" class="st0" width="5.6" height="21.6"/>
		<path class="st0" d="M107.8,4L107.8,4c-1.9,0-3.5,1.5-3.5,3.5l0,0c0,1.9,1.5,3.5,3.5,3.5l0,0c1.9,0,3.5-1.5,3.5-3.5l0,0
			C111.3,5.6,109.7,4,107.8,4z"/>
		<path class="st0" d="M51.5,4L51.5,4C49.6,4,48,5.5,48,7.5l0,0c0,1.9,1.5,3.5,3.5,3.5l0,0c1.9,0,3.5-1.5,3.5-3.5l0,0
			C54.9,5.6,53.4,4,51.5,4z"/>
		<polygon class="st0" points="144.3,30.6 155,19 155,14.4 136.9,14.4 136.9,19.8 147.5,19.8 136.8,31.4 136.8,36 155.7,36 
			155.7,30.6 		"/>
		<path class="st0" d="M11.1,4C5.5,4,0,7.2,0,13.8c0,6.5,5.3,7.7,9.1,8.8c3.4,0.9,7.4,1.8,7.4,4.8c0,2.1-2.4,3.5-4.7,3.5
			c-2.1,0-4.5-1.3-5.3-3.2c-0.2-0.4-0.2-1.3-0.2-1.3l-6.1,0.1c0,1.4,0.7,3.4,1.2,4.5c1.8,3.7,5.5,5.5,10.1,5.5c5.1,0,11-2.7,11-9.4
			c0-7.4-6.9-8.4-11.4-9.5C8.5,16.9,6,16,6,13.4c0-2.5,2.5-4.3,5.1-4.3c4.1,0,6.2,2.2,6.2,5.5l5.9,0.9c0-0.4,0-0.7,0-1
			C23.1,7.5,17,4,11.1,4z"/>
		<path class="st0" d="M132.5,10.2l-4.5,5c-1.3-0.6-2.2-0.8-4.2-0.8c-5.9,0-10,3.4-10,8.3c0,1.7,0.5,4.4,2.3,5.6
			c-0.6,0.7-1.3,2.1-1.3,3.9c0,1.3,0.6,2.5,1.2,3.3c-0.9,0.5-3.2,2-3.2,5.1c0,4.1,3.6,6.8,11.1,6.8c7.3,0,11.5-2.5,11.5-7.4
			c0-3.9-2.7-6.1-7.4-6.1h-4h-2.5c-1.2,0-1.7-0.8-1.7-1.7c0-0.7,0.2-1.3,0.7-1.6c0.7,0.3,1.8,0.5,3.4,0.5c5.4,0,10-3.5,9.8-8.3
			c-0.1-2.1-1.1-4-2-4.8l4.2-4.7L132.5,10.2z M124,38.2c4.8,0,6.1,0.3,6.1,0.3c0,3.9-3,4.9-5.9,4.9c-3.5,0-6.2-1.2-6.2-5
			C117.9,38.4,119.2,38.2,124,38.2z M123.7,26.7c-3,0-4.5-2.1-4.5-4c0-2,1.6-4,4.4-4c2.8,0,4.7,2.1,4.7,4
			C128.4,24.6,126.7,26.7,123.7,26.7z"/>
		<g>
			<path class="st0" d="M158.4,14.8h-0.8v-0.4h2v0.4h-0.8v2.7h-0.4V14.8z"/>
			<path class="st0" d="M163,17.5h-0.4v-2.2l-0.9,2.2h-0.3l-0.9-2.2v2.2h-0.4v-3.1h0.4l1.1,2.5l1.1-2.5h0.4v3.1H163z"/>
		</g>
	</g>
	<polygon class="st1" points="178.6,17.6 177.5,21.4 175.7,21.4 173.2,14.4 175.4,14.4 176.6,18.6 177.8,14.4 179.5,14.4 
		180.7,18.6 181.9,14.4 184.1,14.4 181.6,21.4 179.8,21.4 	"/>
	<polygon class="st1" points="189.5,18.8 187.5,18.8 187.5,21.4 185.5,21.4 185.5,14.4 187.5,14.4 187.5,17.1 189.5,17.1 
		189.5,14.4 191.6,14.4 191.6,21.4 189.5,21.4 	"/>
	<polygon class="st1" points="195.7,16 195.7,17.2 198.1,17.2 198.1,18.7 195.7,18.7 195.7,19.8 198.1,19.8 198.1,21.4 193.6,21.4 
		193.6,14.4 198.1,14.4 198.1,16 	"/>
	<g>
		<path class="st1" d="M203,18c0.3,0,0.5-0.1,0.7-0.3s0.3-0.4,0.3-0.7s-0.1-0.5-0.2-0.7c-0.2-0.2-0.4-0.3-0.7-0.3h-0.9v2H203z
			 M200.1,14.4h3.3c0.4,0,0.8,0.1,1.1,0.2c0.3,0.1,0.6,0.3,0.8,0.6c0.2,0.2,0.4,0.5,0.5,0.8s0.2,0.6,0.2,1c0,0.5-0.1,0.9-0.3,1.3
			c-0.2,0.4-0.5,0.7-0.9,0.9l1.4,2.1h-2.4l-1.2-1.8h-0.4v1.8h-2.1L200.1,14.4L200.1,14.4z"/>
	</g>
	<polygon class="st1" points="209.9,16 209.9,17.2 212.4,17.2 212.4,18.7 209.9,18.7 209.9,19.8 212.4,19.8 212.4,21.4 207.9,21.4 
		207.9,14.4 212.4,14.4 212.4,16 	"/>
	<polygon class="st1" points="219.5,16.1 219.5,17.6 221.9,17.6 221.9,19.3 219.5,19.3 219.5,21.4 217.4,21.4 217.4,14.4 
		221.9,14.4 221.9,16.1 	"/>
	<g>
		<path class="st1" d="M223.7,14.4h2.1v4.5c0,0.2,0.1,0.4,0.2,0.6c0.2,0.2,0.4,0.3,0.6,0.3c0.3,0,0.5-0.1,0.6-0.3
			c0.2-0.2,0.2-0.4,0.2-0.6v-4.5h2.1V19c0,0.4-0.1,0.7-0.2,1c-0.1,0.3-0.3,0.6-0.6,0.8s-0.6,0.4-0.9,0.5c-0.4,0.1-0.8,0.2-1.2,0.2
			c-0.5,0-0.9-0.1-1.2-0.2c-0.4-0.1-0.7-0.3-0.9-0.5c-0.3-0.2-0.4-0.5-0.6-0.8c-0.1-0.3-0.2-0.7-0.2-1L223.7,14.4L223.7,14.4z"/>
	</g>
	<polygon class="st1" points="235.9,18.5 235.9,14.4 238,14.4 238,21.4 235.9,21.4 233.6,17.4 233.6,21.4 231.5,21.4 231.5,14.4 
		233.6,14.4 	"/>
	<g>
		<path class="st1" d="M250.3,18.6c-0.1,0.4-0.2,0.8-0.4,1.1c-0.2,0.4-0.4,0.7-0.7,0.9c-0.3,0.3-0.7,0.5-1.1,0.6
			c-0.4,0.2-0.9,0.2-1.4,0.2c-0.6,0-1.1-0.1-1.6-0.3s-0.9-0.5-1.2-0.8c-0.3-0.3-0.6-0.7-0.7-1.2c-0.2-0.4-0.3-0.9-0.3-1.4
			s0.1-0.9,0.3-1.4c0.2-0.4,0.4-0.8,0.7-1.2c0.3-0.3,0.7-0.6,1.2-0.8s1-0.3,1.6-0.3s1.1,0.1,1.5,0.2c0.4,0.2,0.8,0.4,1.1,0.7
			c0.3,0.3,0.6,0.6,0.7,1c0.2,0.4,0.3,0.8,0.3,1.2h-2.2c-0.1-0.3-0.2-0.6-0.5-0.8c-0.2-0.2-0.6-0.3-1-0.3c-0.3,0-0.5,0-0.7,0.1
			s-0.4,0.2-0.5,0.4s-0.2,0.4-0.3,0.6c-0.1,0.2-0.1,0.4-0.1,0.7s0,0.5,0.1,0.7s0.2,0.4,0.3,0.6c0.1,0.2,0.3,0.3,0.5,0.4
			c0.2,0.1,0.5,0.1,0.7,0.1c0.4,0,0.7-0.1,1-0.3s0.4-0.5,0.5-0.7H250.3z"/>
		<path class="st1" d="M255.3,19.7c0.3,0,0.5,0,0.7-0.1s0.4-0.2,0.5-0.4s0.3-0.4,0.3-0.6c0.1-0.2,0.1-0.4,0.1-0.7
			c0-0.2,0-0.5-0.1-0.7s-0.2-0.4-0.3-0.6c-0.1-0.2-0.3-0.3-0.5-0.4c-0.2-0.1-0.4-0.1-0.7-0.1s-0.5,0-0.7,0.1s-0.4,0.2-0.5,0.4
			s-0.3,0.4-0.3,0.6c-0.1,0.2-0.1,0.4-0.1,0.7c0,0.2,0,0.5,0.1,0.7s0.2,0.4,0.3,0.6c0.1,0.2,0.3,0.3,0.5,0.4
			C254.8,19.6,255.1,19.7,255.3,19.7 M255.3,21.6c-0.6,0-1.1-0.1-1.6-0.3s-0.9-0.5-1.2-0.8c-0.3-0.3-0.6-0.7-0.7-1.2
			c-0.2-0.4-0.3-0.9-0.3-1.4s0.1-0.9,0.3-1.4c0.2-0.4,0.4-0.8,0.7-1.2c0.3-0.3,0.7-0.6,1.2-0.8s1-0.3,1.6-0.3s1.1,0.1,1.6,0.3
			s0.9,0.5,1.2,0.8c0.3,0.3,0.6,0.7,0.7,1.2c0.2,0.4,0.3,0.9,0.3,1.4s-0.1,0.9-0.3,1.4c-0.2,0.4-0.4,0.8-0.7,1.2
			c-0.3,0.3-0.7,0.6-1.2,0.8C256.5,21.5,255.9,21.6,255.3,21.6"/>
	</g>
	<polygon class="st1" points="269,21.4 267,21.4 267,17.1 265.7,21.4 264.2,21.4 262.8,17.1 262.8,21.4 260.8,21.4 260.8,14.4 
		263.4,14.4 264.9,18.9 266.4,14.4 269,14.4 	"/>
	<polygon class="st1" points="273.1,16 273.1,17.2 275.5,17.2 275.5,18.7 273.1,18.7 273.1,19.8 275.5,19.8 275.5,21.4 271,21.4 
		271,14.4 275.5,14.4 275.5,16 	"/>
	<g>
		<path class="st1" d="M279.2,19c0,0.3,0.1,0.6,0.2,0.7c0.2,0.2,0.4,0.3,0.6,0.3s0.4-0.1,0.5-0.2c0.1-0.1,0.2-0.3,0.2-0.4
			c0-0.2-0.1-0.3-0.3-0.5c-0.2-0.1-0.4-0.2-0.8-0.4c-0.3-0.1-0.6-0.3-0.9-0.4c-0.3-0.1-0.6-0.3-0.8-0.4c-0.2-0.2-0.4-0.4-0.5-0.6
			c-0.1-0.2-0.2-0.5-0.2-0.9s0.1-0.7,0.2-0.9c0.2-0.3,0.4-0.5,0.6-0.6c0.3-0.2,0.6-0.3,0.9-0.4c0.3-0.1,0.7-0.1,1-0.1
			c0.5,0,0.9,0.1,1.3,0.2c0.3,0.1,0.6,0.3,0.8,0.5c0.2,0.2,0.4,0.5,0.5,0.7c0.1,0.3,0.1,0.5,0.1,0.8h-2.1c0-0.6-0.2-0.9-0.7-0.9
			c-0.2,0-0.3,0-0.4,0.1s-0.2,0.2-0.2,0.4s0.1,0.3,0.2,0.4c0.2,0.1,0.4,0.2,0.7,0.3c0.3,0.1,0.6,0.2,0.9,0.3s0.6,0.3,0.8,0.4
			c0.2,0.2,0.4,0.4,0.6,0.6c0.2,0.2,0.2,0.6,0.2,0.9s-0.1,0.7-0.2,1s-0.3,0.5-0.6,0.7c-0.2,0.2-0.5,0.3-0.9,0.4
			c-0.4,0.1-0.7,0.2-1.2,0.2s-0.8-0.1-1.2-0.2c-0.4-0.1-0.7-0.3-0.9-0.5c-0.2-0.2-0.4-0.5-0.6-0.8c-0.1-0.3-0.2-0.7-0.2-1.1h2.4V19z
			"/>
	</g>
	<polygon class="st1" points="288.8,16.2 287.4,16.2 287.4,14.4 292.3,14.4 292.3,16.2 290.9,16.2 290.9,21.4 288.8,21.4 	"/>
	<g>
		<path class="st1" d="M297.2,19.7c0.3,0,0.5,0,0.7-0.1s0.4-0.2,0.5-0.4s0.3-0.4,0.3-0.6c0.1-0.2,0.1-0.4,0.1-0.7
			c0-0.2,0-0.5-0.1-0.7s-0.2-0.4-0.3-0.6c-0.1-0.2-0.3-0.3-0.5-0.4c-0.2-0.1-0.4-0.1-0.7-0.1c-0.3,0-0.5,0-0.7,0.1s-0.4,0.2-0.5,0.4
			s-0.3,0.4-0.3,0.6c-0.1,0.2-0.1,0.4-0.1,0.7c0,0.2,0,0.5,0.1,0.7s0.2,0.4,0.3,0.6s0.3,0.3,0.5,0.4C296.7,19.6,297,19.7,297.2,19.7
			 M297.2,21.6c-0.6,0-1.1-0.1-1.6-0.3s-0.9-0.5-1.2-0.8c-0.3-0.3-0.6-0.7-0.7-1.2c-0.2-0.4-0.3-0.9-0.3-1.4s0.1-0.9,0.3-1.4
			c0.2-0.4,0.4-0.8,0.7-1.2c0.3-0.3,0.7-0.6,1.2-0.8s1-0.3,1.6-0.3s1.1,0.1,1.6,0.3s0.9,0.5,1.2,0.8c0.3,0.3,0.6,0.7,0.7,1.2
			c0.2,0.4,0.3,0.9,0.3,1.4s-0.1,0.9-0.3,1.4c-0.2,0.4-0.4,0.8-0.7,1.2c-0.3,0.3-0.7,0.6-1.2,0.8C298.4,21.5,297.8,21.6,297.2,21.6"
			/>
		<path class="st1" d="M308.7,18c0.3,0,0.5-0.1,0.7-0.3s0.3-0.4,0.3-0.7s-0.1-0.5-0.2-0.7c-0.2-0.2-0.4-0.3-0.7-0.3h-0.9v2H308.7z
			 M305.8,14.4h3.3c0.4,0,0.8,0.1,1.1,0.2c0.3,0.1,0.6,0.3,0.8,0.6c0.2,0.2,0.4,0.5,0.5,0.8s0.2,0.6,0.2,1s-0.1,0.7-0.2,1
			s-0.3,0.6-0.5,0.8s-0.5,0.4-0.8,0.6c-0.3,0.1-0.7,0.2-1.1,0.2h-1.2v1.8h-2.1V14.4z"/>
	</g>
	<path class="st1" d="M316,16.5l-0.7,2.6h1.5L316,16.5z M317.4,21.4l-0.2-0.8h-2.3l-0.2,0.8h-2.2l2.6-7h2.2l2.6,7H317.4z"/>
	<g>
		<path class="st1" d="M324,18c0.3,0,0.5-0.1,0.7-0.3s0.3-0.4,0.3-0.7s-0.1-0.5-0.2-0.7c-0.2-0.2-0.4-0.3-0.7-0.3h-0.9v2H324z
			 M321,14.4h3.3c0.4,0,0.8,0.1,1.1,0.2c0.3,0.1,0.6,0.3,0.8,0.6c0.2,0.2,0.4,0.5,0.5,0.8s0.2,0.6,0.2,1c0,0.5-0.1,0.9-0.3,1.3
			c-0.2,0.4-0.5,0.7-0.9,0.9l1.4,2.1h-2.4l-1.2-1.8h-0.4v1.8H321V14.4z"/>
	</g>
	<polygon class="st1" points="329.8,16.2 328.3,16.2 328.3,14.4 333.3,14.4 333.3,16.2 331.8,16.2 331.8,21.4 329.8,21.4 	"/>
	<polygon class="st1" points="337.9,21.4 335.5,21.4 336.7,18.9 334.4,14.4 336.8,14.4 338,16.9 339,14.4 341.3,14.4 	"/>
	<rect x="210.2" y="0.8" transform="matrix(0.9358 -0.3525 0.3525 0.9358 13.0251 75.1043)" class="st2" width="5.1" height="1.9"/>
	
		<rect x="326.1" y="2.5" transform="matrix(0.4127 -0.9109 0.9109 0.4127 187.426 300.8687)" class="st2" width="1.9" height="5.1"/>
	
		<rect x="316.4" y="31.2" transform="matrix(0.9358 -0.3525 0.3525 0.9358 9.1297 114.4932)" class="st2" width="5.1" height="1.9"/>
	<rect x="215.5" y="27" transform="matrix(0.8458 -0.5335 0.5335 0.8458 17.5991 120.0439)" class="st3" width="1.9" height="5.1"/>
	
		<rect x="267.4" y="32.8" transform="matrix(0.6681 -0.7441 0.7441 0.6681 64.4761 212.0431)" class="st2" width="5.1" height="1.9"/>
	<rect x="166" y="21.7" transform="matrix(0.5845 -0.8114 0.8114 0.5845 49.662 145.5123)" class="st2" width="1.9" height="5.1"/>
	<rect x="293" y="27.2" transform="matrix(0.7655 -0.6434 0.6434 0.7655 49.7659 196.1201)" class="st4" width="1.9" height="5.1"/>
	
		<rect x="244.4" y="27.7" transform="matrix(9.143963e-02 -0.9958 0.9958 9.143963e-02 192.7359 271.799)" class="st4" width="1.9" height="5.1"/>
	
		<rect x="293.7" y="4.7" transform="matrix(0.9996 -2.775948e-02 2.775948e-02 0.9996 -4.385173e-02 8.2258)" class="st4" width="5.1" height="1.9"/>
	
		<rect x="240.1" y="2.5" transform="matrix(9.114482e-02 -0.9958 0.9958 9.114482e-02 214.087 244.5972)" class="st5" width="1.9" height="5.1"/>
	<rect x="348.4" y="10" transform="matrix(0.939 -0.344 0.344 0.939 17.6398 121.402)" class="st5" width="5.1" height="1.9"/>
	
		<rect x="184.2" y="30.1" transform="matrix(0.3042 -0.9526 0.9526 0.3042 100.3714 199.5353)" class="st5" width="5.1" height="1.9"/>
	
		<rect x="184.2" y="0.9" transform="matrix(0.5466 -0.8374 0.8374 0.5466 81.0515 156.6254)" class="st4" width="1.9" height="5.1"/>
	
		<rect x="267.4" y="2.5" transform="matrix(0.2209 -0.9753 0.9753 0.2209 206.9631 265.9356)" class="st3" width="5.1" height="1.9"/>
	
		<rect x="345.2" y="25.9" transform="matrix(0.8458 -0.5335 0.5335 0.8458 38.1863 189.0809)" class="st3" width="1.9" height="5.1"/>
</g>
</svg>
