<?xml version="1.0" encoding="utf-8"?>
<!-- Generator: Adobe Illustrator 19.1.0, SVG Export Plug-In . SVG Version: 6.00 Build 0)  -->
<svg version="1.1" id="Layer_1" xmlns="http://www.w3.org/2000/svg" xmlns:xlink="http://www.w3.org/1999/xlink" x="0px" y="0px"
	 viewBox="0 0 34.2 30.6" style="enable-background:new 0 0 34.2 30.6;" xml:space="preserve">
<style type="text/css">
	.st0{fill:#163962;}
</style>
<path class="st0" d="M21,15.4c1.4-0.8,2.5-2,3.3-3.4c1.1-2.2,1-4.7-0.1-7.1c-0.7-1.4-1.8-2.6-3.2-3.3c-2.7-1.3-5.6-1.2-8,0.3
	c-2.3,1.4-3.7,3.9-3.7,6.7c0,2.9,1.6,5.5,4,6.9c-3.2,1.5-5.4,4.7-5.4,8.4V28c0,0.6,0.5,1.1,1.1,1.1h16.2c0.6,0,1.1-0.5,1.1-1.1v-4.2
	C26.3,20.2,24.2,16.9,21,15.4z"/>
</svg>
