<?xml version="1.0" encoding="utf-8"?>
<!-- Generator: Adobe Illustrator 19.1.0, SVG Export Plug-In . SVG Version: 6.00 Build 0)  -->
<svg version="1.1" id="Layer_1" xmlns="http://www.w3.org/2000/svg" xmlns:xlink="http://www.w3.org/1999/xlink" x="0px" y="0px"
	 viewBox="0 0 103.4 100.6" style="enable-background:new 0 0 103.4 100.6;" xml:space="preserve">
<style type="text/css">
	.st0{fill:#FD8204;}
</style>
<g>
	<path class="st0" d="M43.3,46.7c4.4,3,6.7,7.6,6.7,12.8c0,9.1-6.4,15.8-15.3,15.8c-7.9,0-15-5.9-15-15.8c0-4.9,1.7-9.1,4.4-13.1
		l14.1-21.2h14.6L43.3,46.7z M80,46.7c4.4,3,6.7,7.6,6.7,12.8c0,9.1-6.4,15.8-15.3,15.8c-7.9,0-15.1-5.9-15.1-15.8
		c0-4.9,1.7-9.1,4.4-13.1l14.1-21.2h14.6L80,46.7z"/>
</g>
</svg>
