<?xml version="1.0" encoding="utf-8"?>
<!-- Generator: Adobe Illustrator 22.1.0, SVG Export Plug-In . SVG Version: 6.00 Build 0)  -->
<svg version="1.1" id="Layer_1" xmlns="http://www.w3.org/2000/svg" xmlns:xlink="http://www.w3.org/1999/xlink" x="0px" y="0px"
	 viewBox="0 0 265.3 83.3" style="enable-background:new 0 0 265.3 83.3;" xml:space="preserve">
<style type="text/css">
	.Drop_x0020_Shadow{fill:none;}
	.Round_x0020_Corners_x0020_2_x0020_pt{fill:#FFFFFF;stroke:#231F20;stroke-miterlimit:10;}
	.Live_x0020_Reflect_x0020_X{fill:none;}
	.Bevel_x0020_Soft{fill:url(#SVGID_1_);}
	.Dusk{fill:#FFFFFF;}
	.Foliage_GS{fill:#FFDD00;}
	.Pompadour_GS{fill-rule:evenodd;clip-rule:evenodd;fill:#44ADE2;}
	.st0{fill:#0055B7;}
	.st1{fill:#C838A9;}
	.st2{fill:#1BCCD5;}
	.st3{fill:none;stroke:#FD4C5C;stroke-width:2;stroke-miterlimit:10;}
</style>
<linearGradient id="SVGID_1_" gradientUnits="userSpaceOnUse" x1="87" y1="55" x2="87.7071" y2="55.7071">
	<stop  offset="0" style="stop-color:#DEDFE3"/>
	<stop  offset="0.1783" style="stop-color:#DADBDF"/>
	<stop  offset="0.3611" style="stop-color:#CECFD3"/>
	<stop  offset="0.546" style="stop-color:#B9BCBF"/>
	<stop  offset="0.7324" style="stop-color:#9CA0A2"/>
	<stop  offset="0.9181" style="stop-color:#787D7E"/>
	<stop  offset="1" style="stop-color:#656B6C"/>
</linearGradient>
<g>
	<path class="st0" d="M29.9,37.8c2.5,1.4,4.5,3.4,5.9,5.9c1.4,2.5,2.1,5.4,2.1,8.6c0,3.2-0.7,6-2.1,8.6c-1.4,2.6-3.4,4.5-5.9,6
		c-2.5,1.4-5.3,2.1-8.5,2.1h-9v12.8H1.8V35.7h19.7C24.6,35.7,27.4,36.4,29.9,37.8z M25.1,58.1c1.4-1.5,2.1-3.4,2.1-5.7
		c0-2.3-0.7-4.2-2.1-5.7c-1.4-1.5-3.2-2.2-5.3-2.2h-7.3v16h7.3C21.9,60.4,23.7,59.6,25.1,58.1z"/>
	<path class="st1" d="M110.8,61.3c-1.5,2.6-3.7,4.6-6.3,5.9l8.1,14.7h-12.1l-7.3-12.8h-5.6v12.8H76.9V35.7h19.7c3.2,0,6,0.7,8.5,2.1
		c2.5,1.4,4.5,3.4,5.9,5.9c1.4,2.5,2.1,5.4,2.1,8.6C113.1,55.7,112.3,58.7,110.8,61.3z M87.6,60.4h7.3c2.2,0,3.9-0.7,5.3-2.2
		c1.4-1.5,2.1-3.4,2.1-5.7c0-2.3-0.7-4.2-2.1-5.7c-1.4-1.5-3.2-2.2-5.3-2.2h-7.3V60.4z"/>
	<path class="st2" d="M127.9,45.2h-12.7v-9.5h36v9.5h-12.7v36.7h-10.6V45.2z"/>
	<path class="st1" d="M195.2,35.7l-22.9,46.2h-11.9l8.6-17.4l-16.4-28.8H165l9.8,18.2l8.5-18.2H195.2z"/>
</g>
<g>
	<g>
		<g>
			<line class="st3" x1="54.6" y1="26.1" x2="54.3" y2="38.3"/>
			<line class="st3" x1="63.1" y1="29.9" x2="54.3" y2="38.3"/>
			<line class="st3" x1="54.3" y1="38.3" x2="45.9" y2="29.4"/>
		</g>
		<g>
			<line class="st3" x1="49.9" y1="26.9" x2="54.3" y2="38.3"/>
			<line class="st3" x1="65.6" y1="33.9" x2="54.3" y2="38.3"/>
			<line class="st3" x1="59.2" y1="27.1" x2="54.3" y2="38.3"/>
			<line class="st3" x1="54.3" y1="38.3" x2="43.1" y2="33.3"/>
		</g>
	</g>
	<g>
		<polygon class="st3" points="53.7,38 35.2,81.5 72.1,81.5 		"/>
		<circle class="st3" cx="57.4" cy="73.4" r="8.2"/>
		<circle class="st3" cx="51.6" cy="56.5" r="4.2"/>
	</g>
</g>
<g>
	<path class="st0" d="M189.2,65.1c-0.5-0.5-0.8-1.2-0.8-2c0-0.8,0.3-1.5,0.8-2s1.2-0.8,2-0.8c0.8,0,1.5,0.3,2,0.8
		c0.5,0.6,0.8,1.2,0.8,2c0,0.8-0.3,1.4-0.8,2c-0.5,0.5-1.2,0.8-2,0.8C190.4,66,189.7,65.7,189.2,65.1z M188.9,67.2h4.6v14.5h-4.6
		V67.2z"/>
	<path class="st0" d="M212,68.1L212,68.1l0,13.6h-4.6v-2c-0.4,0.7-1,1.3-1.8,1.8c-0.8,0.5-1.7,0.7-2.7,0.7c-1.4,0-2.6-0.3-3.6-1
		c-1-0.7-1.8-1.6-2.4-2.7c-0.5-1.1-0.8-2.5-0.8-3.9c0-1.4,0.3-2.7,0.8-3.9c0.6-1.2,1.4-2.1,2.4-2.7c1-0.7,2.3-1,3.6-1
		c1,0,1.9,0.2,2.7,0.7c0.8,0.4,1.4,1,1.8,1.8v-8.6h4.6V68.1z M206.7,77.2c0.6-0.7,0.9-1.6,0.9-2.7c0-1.1-0.3-2-0.9-2.7
		c-0.6-0.7-1.5-1.1-2.5-1.1c-1,0-1.9,0.3-2.5,1c-0.6,0.7-0.9,1.6-0.9,2.7c0,1.1,0.3,2,0.9,2.7c0.6,0.7,1.5,1.1,2.5,1.1
		C205.2,78.3,206.1,77.9,206.7,77.2z"/>
	<path class="st0" d="M229.8,75.7h-10.7c0,0.9,0.4,1.7,1,2.2c0.6,0.5,1.4,0.8,2.4,0.8c1.4,0,2.3-0.5,2.7-1.3h4.5
		c-0.1,0.9-0.5,1.8-1.2,2.5c-0.7,0.7-1.5,1.3-2.6,1.7c-1,0.4-2.2,0.6-3.4,0.6c-2.5,0-4.4-0.7-5.8-2c-1.4-1.4-2.1-3.2-2.1-5.6
		c0-1.6,0.3-2.9,1-4.1c0.6-1.2,1.5-2,2.7-2.7c1.2-0.6,2.6-0.9,4.1-0.9c1.5,0,2.8,0.3,3.9,0.9c1.1,0.6,2,1.4,2.7,2.4
		c0.6,1.1,0.9,2.2,0.9,3.6C229.9,74.3,229.9,75,229.8,75.7z M225.4,72.9c0-1-0.3-1.7-0.8-2.2c-0.5-0.5-1.3-0.8-2.3-0.8
		c-1,0-1.8,0.3-2.3,0.8c-0.6,0.6-0.9,1.3-0.9,2.2H225.4z"/>
	<path class="st0" d="M234.8,81.1c-1-0.7-1.8-1.6-2.4-2.7c-0.5-1.1-0.8-2.5-0.8-3.9c0-1.4,0.3-2.7,0.8-3.9c0.6-1.2,1.4-2.1,2.4-2.7
		c1-0.7,2.3-1,3.6-1c1,0,1.9,0.2,2.7,0.7c0.8,0.4,1.4,1,1.8,1.8v-2.1h4.6v14.5H243v-2c-0.4,0.7-1,1.3-1.8,1.8
		c-0.8,0.5-1.7,0.7-2.7,0.7C237.1,82.1,235.8,81.7,234.8,81.1z M242.3,77.2c0.6-0.7,0.9-1.6,0.9-2.7c0-1.1-0.3-2-0.9-2.7
		c-0.6-0.7-1.5-1.1-2.5-1.1c-1,0-1.9,0.3-2.5,1c-0.6,0.7-0.9,1.6-0.9,2.7c0,1.1,0.3,2,0.9,2.7c0.6,0.7,1.5,1.1,2.5,1.1
		C240.9,78.3,241.7,77.9,242.3,77.2z"/>
	<path class="st0" d="M253.4,81.5c-1-0.4-1.8-1-2.4-1.7c-0.6-0.7-0.8-1.5-0.8-2.5h4.6c0,0.5,0.2,0.9,0.7,1.2c0.4,0.3,1,0.5,1.7,0.5
		c0.5,0,0.9-0.1,1.2-0.4s0.5-0.6,0.5-1c0-0.7-0.4-1.1-1.1-1.2l-3.5-0.9c-1.2-0.3-2.1-0.8-2.7-1.5c-0.6-0.7-0.9-1.6-0.9-2.6
		c0-1.4,0.6-2.5,1.7-3.3c1.1-0.8,2.6-1.3,4.5-1.3c2.1,0,3.7,0.4,4.8,1.2c1.1,0.8,1.7,1.9,1.7,3.3h-4.5c0-0.5-0.2-0.9-0.5-1.2
		c-0.4-0.3-0.8-0.4-1.5-0.4c-0.5,0-0.9,0.1-1.2,0.3c-0.3,0.2-0.4,0.5-0.4,0.9c0,0.6,0.4,1.1,1.2,1.3l3.4,0.9c1.1,0.3,2,0.8,2.7,1.5
		c0.6,0.7,1,1.5,1,2.5c0,1.5-0.6,2.7-1.7,3.6s-2.7,1.4-4.6,1.4C255.7,82.1,254.4,81.9,253.4,81.5z"/>
</g>
<g>
	<g>
		<path class="st0" d="M23.9,8.1c-1.7,0-2.7,0.5-3.5,1.4V2.6H17V21h3.3v-6.3c0-2.1,0.8-3.6,3-3.6c1.6,0,2.1,1.5,2.1,2.8V21h3.3v-7.9
			C28.7,10.2,27.2,8.1,23.9,8.1z"/>
		<rect x="30.6" y="8.3" class="st0" width="3.3" height="12.7"/>
		<path class="st0" d="M42.9,8.1c-1.7,0-2.7,0.5-3.5,1.4V8.3h-3.3V21h3.3v-6.3c0-2.1,0.8-3.6,3-3.6c1.6,0,2.1,1.5,2.1,2.8V21h3.3
			v-7.9C47.8,10.2,46.3,8.1,42.9,8.1z"/>
		<path class="st0" d="M58.3,9.8c-0.8-0.9-2-1.5-3.6-1.5c-3.7,0-5.8,3.2-5.8,6.5c0,3.7,2.1,6.5,5.8,6.5c1.7,0,3.1-0.6,3.7-1.3V21
			h3.3V2.5h-3.3V9.8z M55.2,18.3c-1.7,0-3.2-1.4-3.2-3.3c0-2.2,1.4-3.9,3.2-3.9c2,0,3.1,1.8,3.1,3.6C58.3,16.7,57.2,18.3,55.2,18.3z
			"/>
		<rect x="63.7" y="8.3" class="st0" width="3.3" height="12.7"/>
		<path class="st0" d="M65.3,2.3L65.3,2.3c-1.1,0-2,0.9-2,2l0,0c0,1.1,0.9,2,2,2h0c1.1,0,2-0.9,2-2l0,0C67.4,3.2,66.4,2.3,65.3,2.3z
			"/>
		<path class="st0" d="M32.3,2.3L32.3,2.3c-1.1,0-2,0.9-2,2l0,0c0,1.1,0.9,2,2,2h0c1.1,0,2-0.9,2-2l0,0C34.3,3.2,33.4,2.3,32.3,2.3z
			"/>
		<polygon class="st0" points="86.7,17.8 93,11.1 93,8.3 82.4,8.3 82.4,11.5 88.6,11.5 82.3,18.3 82.3,21 93.4,21 93.4,17.8 		"/>
		<path class="st0" d="M8.5,2.3C5.2,2.3,2,4.1,2,8c0,3.8,3.1,4.5,5.3,5.1c2,0.5,4.4,1.1,4.4,2.8c0,1.3-1.4,2.1-2.8,2.1
			c-1.2,0-2.7-0.8-3.1-1.9c-0.1-0.2-0.1-0.8-0.1-0.8l-3.6,0.1c0,0.8,0.4,2,0.7,2.7c1.1,2.2,3.2,3.3,5.9,3.3c3,0,6.4-1.6,6.4-5.5
			c0-4.3-4-4.9-6.7-5.6c-1.5-0.4-3-0.9-3-2.4c0-1.5,1.5-2.5,3-2.5c2.4,0,3.6,1.3,3.6,3.2L15.6,9c0-0.2,0-0.4,0-0.6
			C15.6,4.3,12,2.3,8.5,2.3z"/>
		<path class="st0" d="M79.8,5.9l-2.7,2.9c-0.7-0.3-1.3-0.5-2.4-0.5c-3.4,0-5.8,2-5.8,4.9c0,1,0.3,2.6,1.3,3.3
			c-0.3,0.4-0.8,1.2-0.8,2.3c0,0.8,0.3,1.5,0.7,1.9c-0.5,0.3-1.9,1.2-1.9,3c0,2.4,2.1,4,6.5,4c4.3,0,6.7-1.5,6.7-4.3
			c0-2.3-1.6-3.6-4.3-3.6h-2.3h-1.5c-0.7,0-1-0.5-1-1c0-0.4,0.1-0.7,0.4-0.9c0.4,0.2,1.1,0.3,2,0.3c3.2,0,5.8-2,5.8-4.9
			c0-1.2-0.6-2.3-1.2-2.8l2.5-2.8L79.8,5.9z M74.8,22.3c2.8,0,3.6,0.2,3.6,0.2c0,2.3-1.8,2.9-3.5,2.9c-2,0-3.6-0.7-3.6-3
			C71.2,22.4,72,22.3,74.8,22.3z M74.6,15.6c-1.8,0-2.6-1.2-2.6-2.4c0-1.1,0.9-2.4,2.6-2.4c1.7,0,2.8,1.2,2.8,2.4
			C77.4,14.4,76.4,15.6,74.6,15.6z"/>
		<g>
			<path class="st0" d="M95,8.6h-0.5V8.3h1.2v0.2h-0.5v1.6H95V8.6z"/>
			<path class="st0" d="M97.7,10.2h-0.2V8.9l-0.5,1.3h-0.2l-0.5-1.3v1.3H96V8.3h0.2l0.6,1.5l0.6-1.5h0.2V10.2z"/>
		</g>
	</g>
</g>
</svg>
