<svg id="Layer_1" data-name="Layer 1" xmlns="http://www.w3.org/2000/svg" viewBox="0 0 272.97 80.36"><defs><style>.cls-1{fill:#0055b7;}.cls-2{fill:#c838a9;}.cls-3{fill:#1bccd5;}.cls-4{fill:none;stroke:#fd4c5c;stroke-width:2px;}.cls-4,.cls-5{stroke-miterlimit:10;}.cls-5{fill:#231f20;stroke:#0055b7;}</style></defs><title>Party Ideas Logo</title><path class="cls-1" d="M77,105.38c0,9.7-7,16.7-16.56,16.7h-9v12.8H40.77V88.68H60.43C70.07,88.68,77,95.68,77,105.38Zm-10.82,0c0-4.62-3.1-8-7.39-8H51.46v16h7.33C63.07,113.36,66.17,110,66.17,105.38Z" transform="translate(-40.77 -55.26)"/><path class="cls-2" d="M143.46,120.23l8.12,14.65H139.43l-7.26-12.8h-5.61v12.8H115.87V88.68h19.67c9.64,0,16.56,7,16.56,16.7C152.1,112.11,148.74,117.59,143.46,120.23Zm-16.89-6.86h7.33c4.29,0,7.39-3.37,7.39-8s-3.1-8-7.39-8h-7.33Z" transform="translate(-40.77 -55.26)"/><path class="cls-3" d="M167,98.18H154.33v-9.5h36v9.5H177.62v36.69H167Z" transform="translate(-40.77 -55.26)"/><path class="cls-2" d="M234.27,88.68l-22.9,46.2H199.49l8.58-17.42L191.7,88.68h12.41l9.83,18.21,8.51-18.21Z" transform="translate(-40.77 -55.26)"/><line class="cls-4" x1="52.81" y1="23.83" x2="52.49" y2="36.02"/><line class="cls-4" x1="61.34" y1="27.62" x2="52.49" y2="36.02"/><line class="cls-4" x1="52.49" y1="36.02" x2="44.09" y2="27.18"/><line class="cls-4" x1="48.12" y1="24.64" x2="52.49" y2="36.02"/><line class="cls-4" x1="63.88" y1="31.64" x2="52.49" y2="36.02"/><line class="cls-4" x1="57.45" y1="24.87" x2="52.49" y2="36.02"/><line class="cls-4" x1="52.49" y1="36.02" x2="41.35" y2="31.07"/><polygon class="cls-4" points="51.96 35.73 33.44 79.24 70.34 79.27 51.96 35.73"/><circle class="cls-4" cx="96.38" cy="126.43" r="8.19" transform="translate(-73.25 164.26) rotate(-88.53)"/><circle class="cls-4" cx="90.64" cy="109.46" r="4.16" transform="translate(-61.88 141.99) rotate(-88.53)"/><path class="cls-1" d="M238.71,88.05a2.84,2.84,0,1,1,2.82,2.79A2.76,2.76,0,0,1,238.71,88.05Zm.51,4.08h4.59v14.46h-4.59Z" transform="translate(-40.77 -55.26)"/><path class="cls-1" d="M262.33,85.59v21h-4.56v-2a5.19,5.19,0,0,1-4.59,2.43c-4.32,0-6.81-3.27-6.81-7.62s2.67-7.62,6.87-7.62a5,5,0,0,1,4.53,2.46V93h0V85.59Zm-4.38,13.77c0-2.07-1.17-3.78-3.45-3.78S251,97.17,251,99.36s1.32,3.81,3.45,3.81S257.95,101.46,257.95,99.36Z" transform="translate(-40.77 -55.26)"/><path class="cls-1" d="M280.16,100.62H269.48c.09,1.89,1.35,3,3.39,3q2.11,0,2.7-1.35h4.5c-.45,2.85-3.36,4.8-7.2,4.8-4.92,0-7.95-2.85-7.95-7.68s3.09-7.65,7.8-7.65c4.5,0,7.56,2.82,7.56,6.9A15.69,15.69,0,0,1,280.16,100.62Zm-4.41-2.85a2.76,2.76,0,0,0-3.06-3,2.94,2.94,0,0,0-3.21,3Z" transform="translate(-40.77 -55.26)"/><path class="cls-1" d="M282,99.36c0-4.32,2.67-7.62,6.87-7.62a5,5,0,0,1,4.53,2.46V92.13H298v14.46h-4.56v-2a5.19,5.19,0,0,1-4.59,2.43C284.51,107,282,103.71,282,99.36Zm11.58,0c0-2.07-1.17-3.78-3.45-3.78s-3.45,1.59-3.45,3.78,1.32,3.81,3.45,3.81S293.6,101.46,293.6,99.36Z" transform="translate(-40.77 -55.26)"/><path class="cls-1" d="M300.57,102.24h4.56c0,1,1,1.71,2.37,1.71,1,0,1.68-.51,1.68-1.35a1.18,1.18,0,0,0-1.05-1.23l-3.54-.9c-2.4-.6-3.63-2.1-3.63-4.17,0-2.7,2.37-4.59,6.18-4.59,4.23,0,6.45,1.77,6.45,4.5h-4.53c0-1-.75-1.59-2-1.59-1,0-1.65.48-1.65,1.2s.45,1.08,1.23,1.29l3.42.93c2.22.6,3.66,2,3.66,4,0,3-2.37,5-6.33,5C303.18,107,300.57,105,300.57,102.24Z" transform="translate(-40.77 -55.26)"/><path class="cls-1" d="M62.85,61.1a4.34,4.34,0,0,0-3.5,1.36V55.56H56V74h3.3V67.71c0-2.14.85-3.59,3-3.59,1.58,0,2.06,1.51,2.06,2.77V74h3.3V66.15C67.71,63.17,66.23,61.1,62.85,61.1Z" transform="translate(-40.77 -55.26)"/><rect class="cls-1" x="28.84" y="6.08" width="3.3" height="12.7"/><path class="cls-1" d="M81.91,61.1a4.34,4.34,0,0,0-3.5,1.36V61.34H75.1V74h3.3V67.71c0-2.14.85-3.59,3-3.59,1.58,0,2.06,1.51,2.06,2.77V74h3.3V66.15C86.76,63.17,85.28,61.1,81.91,61.1Z" transform="translate(-40.77 -55.26)"/><path class="cls-1" d="M97.28,62.85a4.56,4.56,0,0,0-3.62-1.5c-3.75,0-5.82,3.16-5.82,6.46,0,3.74,2.08,6.51,5.82,6.51A4.81,4.81,0,0,0,97.33,73V74h3.25V55.53h-3.3ZM94.21,71.3A3.19,3.19,0,0,1,91,68c0-2.23,1.45-3.87,3.17-3.87,2,0,3.07,1.77,3.07,3.64S96.18,71.3,94.21,71.3Z" transform="translate(-40.77 -55.26)"/><rect class="cls-1" x="61.9" y="6.08" width="3.3" height="12.7"/><path class="cls-1" d="M104.32,55.26h0a2,2,0,0,0-2,2h0a2,2,0,0,0,2,2h0a2,2,0,0,0,2-2h0A2,2,0,0,0,104.32,55.26Z" transform="translate(-40.77 -55.26)"/><path class="cls-1" d="M71.25,55.26h0a2,2,0,0,0-2,2h0a2,2,0,0,0,2,2h0a2,2,0,0,0,2-2h0A2,2,0,0,0,71.25,55.26Z" transform="translate(-40.77 -55.26)"/><polygon class="cls-1" points="84.96 15.58 91.24 8.82 91.24 6.08 80.62 6.08 80.62 9.29 86.81 9.29 80.52 16.04 80.52 18.78 91.64 18.78 91.64 15.58 84.96 15.58"/><path class="cls-1" d="M47.55,55.26C44.24,55.26,41,57.11,41,61s3.09,4.54,5.33,5.13c2,.52,4.35,1.08,4.35,2.8,0,1.26-1.42,2.08-2.77,2.08a3.51,3.51,0,0,1-3.11-1.9,3.11,3.11,0,0,1-.12-.76l-3.58.05a7.43,7.43,0,0,0,.71,2.65c1.07,2.19,3.21,3.26,5.9,3.26,3,0,6.43-1.6,6.43-5.52,0-4.31-4-4.91-6.68-5.6-1.53-.39-3-.94-3-2.44a2.8,2.8,0,0,1,3-2.52c2.4,0,3.63,1.29,3.63,3.21l3.45.53c0-.21,0-.41,0-.6C54.6,57.31,51,55.26,47.55,55.26Z" transform="translate(-40.77 -55.26)"/><path class="cls-1" d="M118.81,58.9l-2.67,2.95a5.14,5.14,0,0,0-2.45-.45c-3.44,0-5.85,2-5.85,4.85a4.06,4.06,0,0,0,1.33,3.26,3.68,3.68,0,0,0-.76,2.27,3.46,3.46,0,0,0,.68,1.95,3.41,3.41,0,0,0-1.9,3c0,2.42,2.13,4,6.52,4s6.74-1.47,6.74-4.33c0-2.3-1.59-3.59-4.32-3.59h-3.81a.94.94,0,0,1-1-1,1.18,1.18,0,0,1,.4-.95,5,5,0,0,0,2,.29c3.18,0,5.84-2,5.77-4.86a4.09,4.09,0,0,0-1.18-2.8l2.52-2.78Zm-5,16.43a19.31,19.31,0,0,1,3.55.18c0,2.27-1.78,2.87-3.48,2.87-2,0-3.63-.72-3.63-3C110.25,75.42,111,75.33,113.8,75.33Zm-.16-6.76a2.38,2.38,0,1,1,0-4.73,2.59,2.59,0,0,1,2.75,2.36A2.52,2.52,0,0,1,113.64,68.57Z" transform="translate(-40.77 -55.26)"/><path class="cls-1" d="M134,61.56h-.47v-.21h1.19v.21h-.48v1.62H134Z" transform="translate(-40.77 -55.26)"/><path class="cls-1" d="M136.68,63.18h-.24V61.9l-.53,1.28h-.18l-.53-1.28v1.28H135V61.34h.23l.63,1.46.63-1.46h.23Z" transform="translate(-40.77 -55.26)"/><line class="cls-5" x1="197.9" y1="55.83" x2="272.9" y2="55.83"/></svg>