<?xml version="1.0" encoding="utf-8"?>
<!-- Generator: Adobe Illustrator 19.1.0, SVG Export Plug-In . SVG Version: 6.00 Build 0)  -->
<svg version="1.1" id="Layer_1" xmlns="http://www.w3.org/2000/svg" xmlns:xlink="http://www.w3.org/1999/xlink" x="0px" y="0px"
	 viewBox="0 0 200 200" style="enable-background:new 0 0 200 200;" xml:space="preserve">
<style type="text/css">
	.st0{fill:#fff;}
</style>
<g id="pinterest_2_">
	<g>
		<path class="st0" d="M100,57.5c-27.8,0-50.3,22.5-50.3,50.3c0,20.6,12.4,38.3,30.1,46.1c-0.2-3.5,0-7.7,0.9-11.5
			c1-4.1,6.5-27.4,6.5-27.4s-1.6-3.2-1.6-8c0-7.5,4.3-13,9.7-13c4.6,0,6.8,3.4,6.8,7.6c0,4.6-2.9,11.5-4.4,17.9
			c-1.3,5.3,2.7,9.7,7.9,9.7c9.5,0,16-12.2,16-26.7c0-11-7.4-19.3-20.9-19.3c-15.3,0-24.8,11.4-24.8,24.1c0,4.4,1.3,7.5,3.3,9.9
			c0.9,1.1,1.1,1.5,0.7,2.8c-0.2,0.9-0.8,3.2-1,4c-0.3,1.3-1.4,1.7-2.5,1.3c-7-2.9-10.3-10.6-10.3-19.2c0-14.3,12.1-31.4,35.9-31.4
			c19.2,0,31.9,13.9,31.9,28.8c0,19.7-11,34.5-27.2,34.5c-5.4,0-10.5-2.9-12.3-6.3c0,0-2.9,11.6-3.5,13.8c-1.1,3.9-3.2,7.8-5.1,10.8
			c4.5,1.3,9.3,2.1,14.3,2.1c27.8,0,50.3-22.5,50.3-50.3C150.3,80,127.8,57.5,100,57.5z"/>
	</g>
</g>
</svg>
