<?xml version="1.0" encoding="utf-8"?>
<!-- Generator: Adobe Illustrator 19.1.0, SVG Export Plug-In . SVG Version: 6.00 Build 0)  -->
<svg version="1.1" id="Layer_1" xmlns="http://www.w3.org/2000/svg" xmlns:xlink="http://www.w3.org/1999/xlink" x="0px" y="0px"
	 viewBox="0 0 79.7 90.9" style="enable-background:new 0 0 79.7 90.9;" xml:space="preserve">
	 <style type="text/css">
	.st0{fill:#fff;}
</style>
<g>
	<path class="st0" d="M55.2,80.5c0,1.2-1.6,2.4-3.1,2.4H10c-1.4,0-2.5-1.1-2.5-2.4V18.6c0-1.3,1.1-2.4,2.5-2.4h42.1c1.4,0,2.5,1.1,2.5,2.4v25.8
		h2.6V18.6c0-2.8-2.3-5-5.1-5h-17c0.6-0.8,1-1.8,1-3c0-2.8-2.3-5.1-5.1-5.1s-5.1,2.3-5.1,5.1c0,1.1,0.4,2.1,1,3h-17
		c-2.8,0-5.1,2.3-5.1,5v61.9c0,2.8,2.3,5,5.1,5H52c2.7,0,5.7-2.2,5.7-5v-7.7h-2.5V80.5z M31,8.1c1.4,0,2.5,1.1,2.5,2.5
		s-1.1,2.5-2.5,2.5c-1.4,0-2.5-1.1-2.5-2.5C28.6,9.2,29.7,8.1,31,8.1z M19.2,28.5H14v-2.6h5.2V28.5z M19.2,38.9H14v-2.6h5.2V38.9z
		 M19.2,49.3H14v-2.6h5.2V49.3z M19.2,59.7H14v-2.6h5.2V59.7z M14,67.5h5.2v2.6H14V67.5z M47.8,28.5H24.4v-2.6h23.4V28.5z
		 M24.4,36.3h23.4v2.6H24.4V36.3z M45.5,49.3H24.4v-2.6h21.1L45.5,49.3z M41.6,59.7H24.4v-2.6h17.2V59.7z M24.4,67.5h14.8v2.6H24.4
		V67.5z M45.3,71L57,69.2l17.9-17.9L65,41.4L47.1,59.3L45.3,71z M71.2,51.3L57.9,64.6l-6.2-6.2L65,45.1L71.2,51.3z M49.6,60.5
		l0.3-0.3l6.2,6.2l-0.3,0.3l-7.4,1.2L49.6,60.5z"/>
</g>
</svg>
