<?xml version="1.0" encoding="utf-8"?>
<!-- Generator: Adobe Illustrator 19.1.0, SVG Export Plug-In . SVG Version: 6.00 Build 0)  -->
<svg version="1.1" id="Layer_1" xmlns="http://www.w3.org/2000/svg" xmlns:xlink="http://www.w3.org/1999/xlink" x="0px" y="0px"
	 viewBox="0 0 99.8 64.6" fill="#fff" style="enable-background:new 0 0 99.8 64.6;" xml:space="preserve">
<g>
	<g>
		<path d="M34.5,30.3c-3.4,0-8.2-1.7-11.6-9.7c-0.2-0.4-0.2-0.8,0-1.2s0.5-0.7,0.8-0.8c0.1,0,2.4-1,5.6-1c3.9,0,9.4,1.4,13.3,8
			c0.4,0.6,0.2,1.5-0.3,1.9C42.2,27.7,38.8,30.3,34.5,30.3z M26.4,21c2.2,4.2,4.9,6.4,8.1,6.4c1.9,0,3.7-0.8,4.8-1.4
			c-2.5-3.5-5.9-5.3-10-5.3C28.2,20.7,27.2,20.8,26.4,21z"/>
	</g>
	<g>
		<path d="M30.2,41C20.3,41,13.7,30.7,10,9.6c-0.1-0.8,0.4-1.5,1.1-1.7c0.2-0.1,5.7-1.4,12.9-1.4c7.8,0,18.4,1.6,25.8,9.2
			c7.4-7.5,18-9.2,25.8-9.2c7.2,0,12.7,1.4,12.9,1.4c0.8,0.2,1.2,0.9,1.1,1.7C86.1,30.7,79.5,41,69.6,41c0,0,0,0,0,0
			c-4.7,0-9.2-2.2-13.1-4.2c-2.6-1.3-5-2.5-6.5-2.5s-4,1.2-6.5,2.5C39.4,38.8,34.9,41,30.2,41z M49.9,31.3c2.2,0,4.8,1.3,7.9,2.8
			c3.7,1.8,7.8,3.9,11.8,3.9c0,0,0,0,0,0c8,0,13.6-9,17-27.5c-2-0.4-6.1-1-10.9-1c-7.6,0-18,1.6-24.7,9.4c-0.6,0.7-1.7,0.7-2.3,0
			c-6.6-7.7-17.1-9.4-24.7-9.4c-4.8,0-8.8,0.6-10.9,1c3.4,18.5,9,27.5,17,27.5c4,0,8.1-2.1,11.8-3.9C45.1,32.6,47.7,31.3,49.9,31.3z
			"/>
	</g>
	<g>
		<path d="M65.3,30.3L65.3,30.3c-4.3,0-7.6-2.6-7.8-2.8c-0.6-0.5-0.7-1.3-0.3-1.9c4-6.6,9.4-8,13.3-8c3.2,0,5.5,0.9,5.6,1
			c0.4,0.2,0.7,0.4,0.8,0.8c0.2,0.4,0.2,0.8,0,1.2C73.4,28.6,68.7,30.3,65.3,30.3z M60.5,26c1.1,0.6,2.8,1.4,4.8,1.4
			c3.2,0,6-2.1,8.1-6.4c-0.8-0.2-1.8-0.3-2.9-0.3C66.4,20.7,63,22.4,60.5,26z"/>
	</g>
	<g>
		<path d="M11.5,58.1c-0.8,0-1.5-0.7-1.5-1.5V9.3c0-0.8,0.7-1.5,1.5-1.5S13,8.5,13,9.3v47.3C13,57.5,12.3,58.1,11.5,58.1z"/>
	</g>
	<g>
		<circle cx="17.9" cy="14.2" r="2.1"/>
	</g>
	<g>
		<circle cx="81.9" cy="14.2" r="2.1"/>
	</g>
	<g>
		<circle cx="28.6" cy="33.4" r="2.1"/>
	</g>
	<g>
		<circle cx="69.1" cy="33.4" r="2.1"/>
	</g>
	<g>
		<circle cx="64.8" cy="14.2" r="2.1"/>
	</g>
	<g>
		<circle cx="35" cy="14.2" r="2.1"/>
	</g>
	<g>
		<circle cx="49.9" cy="24.9" r="2.1"/>
	</g>
</g>
</svg>
