<?xml version="1.0" encoding="utf-8"?>
<!-- Generator: Adobe Illustrator 19.1.0, SVG Export Plug-In . SVG Version: 6.00 Build 0)  -->
<svg version="1.1" id="Layer_1" xmlns="http://www.w3.org/2000/svg" xmlns:xlink="http://www.w3.org/1999/xlink" x="0px" y="0px"
	 viewBox="0 0 268.5 484.1" style="enable-background:new 0 0 268.5 484.1;" xml:space="preserve">
<style type="text/css">
	.st0{display:none;}
	.st1{fill:#D0D1D3;}
	.st2{fill:#FA8125;}
</style>
<g id="_x30_AOe6y.tif" class="st0">
	
		<image style="display:inline;overflow:visible;" width="171" height="326" id="Layer_1_3_" xlink:href="7674F4BFBCA810E7.png"  transform="matrix(1.3959 0 0 1.3959 14.9485 10.9534)">
	</image>
</g>
<g>
	<g>
		<path class="st1" d="M22.5,45.4l2.1-12l-8.7-8.5l12.1-1.8l5.4-10.9l5.4,10.9l12.1,1.8L42,33.4l2.1,12l-10.8-5.7L22.5,45.4z
			 M33.3,36.4l6.9,3.6l-1.3-7.7l5.6-5.4l-7.7-1.1l-3.4-7l-3.4,7l-7.7,1.1l5.6,5.4L26.4,40L33.3,36.4z"/>
	</g>
	<g>
		<path class="st1" d="M73.2,45.4l2.1-12l-8.7-8.5l12.1-1.8L84,12.2l5.4,10.9l12.1,1.8l-8.7,8.5l2.1,12L84,39.7L73.2,45.4z M84,36.4
			l6.9,3.6l-1.3-7.7l5.6-5.4l-7.7-1.1l-3.4-7l-3.4,7l-7.7,1.1l5.6,5.4L77.1,40L84,36.4z"/>
	</g>
	<g>
		<path class="st1" d="M123.5,45.4l2.1-12l-8.7-8.5l12.1-1.8l5.4-10.9l5.4,10.9l12.1,1.8l-8.7,8.5l2.1,12l-10.8-5.7L123.5,45.4z
			 M134.3,36.4l6.9,3.6l-1.3-7.7l5.6-5.4l-7.7-1.1l-3.4-7l-3.4,7l-7.7,1.1l5.6,5.4l-1.3,7.7L134.3,36.4z"/>
	</g>
	<g>
		<path class="st1" d="M173.9,45.4l2.1-12l-8.7-8.5l12.1-1.8l5.4-10.9l5.4,10.9l12.1,1.8l-8.7,8.5l2.1,12l-10.8-5.7L173.9,45.4z
			 M184.7,36.4l6.9,3.6l-1.3-7.7l5.6-5.4l-7.7-1.1l-3.4-7l-3.4,7l-7.7,1.1l5.6,5.4l-1.3,7.7L184.7,36.4z"/>
	</g>
	<g>
		<path class="st1" d="M224.4,45.4l2.1-12l-8.7-8.5l12.1-1.8l5.4-10.9l5.4,10.9l12.1,1.8l-8.7,8.5l2.1,12l-10.8-5.7L224.4,45.4z
			 M235.2,36.4L242,40l-1.3-7.7l5.6-5.4l-7.7-1.1l-3.4-7l-3.4,7l-7.7,1.1l5.6,5.4l-1.3,7.7L235.2,36.4z"/>
	</g>
	<g>
		<path class="st1" d="M73.2,87.6l2.1-12L66.5,67l12.1-1.8L84,54.3l5.4,10.9l12.1,1.8l-8.7,8.5l2.1,12L84,81.9L73.2,87.6z M84,78.6
			l6.9,3.6l-1.3-7.7l5.6-5.4L87.4,68L84,61l-3.4,7l-7.7,1.1l5.6,5.4l-1.3,7.7L84,78.6z"/>
	</g>
	<g>
		<path class="st1" d="M123.5,87.6l2.1-12l-8.7-8.5l12.1-1.8l5.4-10.9l5.4,10.9l12.1,1.8l-8.7,8.5l2.1,12l-10.8-5.7L123.5,87.6z
			 M134.3,78.6l6.9,3.6l-1.3-7.7l5.6-5.4l-7.7-1.1l-3.4-7l-3.4,7l-7.7,1.1l5.6,5.4l-1.3,7.7L134.3,78.6z"/>
	</g>
	<g>
		<path class="st1" d="M173.9,87.6l2.1-12l-8.7-8.5l12.1-1.8l5.4-10.9l5.4,10.9l12.1,1.8l-8.7,8.5l2.1,12l-10.8-5.7L173.9,87.6z
			 M184.7,78.6l6.9,3.6l-1.3-7.7l5.6-5.4l-7.7-1.1l-3.4-7l-3.4,7l-7.7,1.1l5.6,5.4l-1.3,7.7L184.7,78.6z"/>
	</g>
	<g>
		<path class="st1" d="M224.4,87.6l2.1-12l-8.7-8.5l12.1-1.8l5.4-10.9l5.4,10.9l12.1,1.8l-8.7,8.5l2.1,12l-10.8-5.7L224.4,87.6z
			 M235.2,78.6l6.9,3.6l-1.3-7.7l5.6-5.4l-7.7-1.1l-3.4-7l-3.4,7l-7.7,1.1l5.6,5.4l-1.3,7.7L235.2,78.6z"/>
	</g>
	<g>
		<path class="st1" d="M73.2,129.7l2.1-12l-8.7-8.5l12.1-1.8L84,96.4l5.4,10.9l12.1,1.8l-8.7,8.5l2.1,12L84,124L73.2,129.7z
			 M84,120.7l6.9,3.6l-1.3-7.7l5.6-5.4l-7.7-1.1l-3.4-7l-3.4,7l-7.7,1.1l5.6,5.4l-1.3,7.7L84,120.7z"/>
	</g>
	<g>
		<path class="st1" d="M123.5,129.7l2.1-12l-8.7-8.5l12.1-1.8l5.4-10.9l5.4,10.9l12.1,1.8l-8.7,8.5l2.1,12l-10.8-5.7L123.5,129.7z
			 M134.3,120.7l6.9,3.6l-1.3-7.7l5.6-5.4l-7.7-1.1l-3.4-7l-3.4,7l-7.7,1.1l5.6,5.4l-1.3,7.7L134.3,120.7z"/>
	</g>
	<g>
		<path class="st1" d="M173.9,129.7l2.1-12l-8.7-8.5l12.1-1.8l5.4-10.9l5.4,10.9l12.1,1.8l-8.7,8.5l2.1,12l-10.8-5.7L173.9,129.7z
			 M184.7,120.7l6.9,3.6l-1.3-7.7l5.6-5.4l-7.7-1.1l-3.4-7l-3.4,7l-7.7,1.1l5.6,5.4l-1.3,7.7L184.7,120.7z"/>
	</g>
	<g>
		<path class="st1" d="M224.4,129.7l2.1-12l-8.7-8.5l12.1-1.8l5.4-10.9l5.4,10.9l12.1,1.8l-8.7,8.5l2.1,12l-10.8-5.7L224.4,129.7z
			 M235.2,120.7l6.9,3.6l-1.3-7.7l5.6-5.4l-7.7-1.1l-3.4-7l-3.4,7l-7.7,1.1l5.6,5.4l-1.3,7.7L235.2,120.7z"/>
	</g>
	<g>
		<g>
			<path class="st2" d="M22.4,87.8l2.1-12.1L15.7,67l12.2-1.8l5.5-11.1l5.5,11L51,67l-8.8,8.6l2.1,12.1L33.3,82L22.4,87.8z"/>
		</g>
		<g>
			<path class="st1" d="M38.8,65.2L51,67l-8.8,8.6l2.1,12.1l-11-5.7l-10.8,5.7"/>
		</g>
	</g>
	<g>
		<g>
			<path class="st2" d="M73.1,171.4l2.1-12.1l-8.8-8.6l12.2-1.8l5.5-11.1l5.5,11l12.2,1.8l-8.8,8.6l2.1,12.1L84,165.7L73.1,171.4z"
				/>
		</g>
		<g>
			<path class="st1" d="M89.5,148.9l12.2,1.8l-8.8,8.6l2.1,12.1l-11-5.7l-10.8,5.7"/>
		</g>
	</g>
	<g>
		<g>
			<path class="st2" d="M123.4,255.3l2.1-12.1l-8.8-8.6l12.2-1.8l5.5-11.1l5.5,11l12.2,1.8l-8.8,8.6l2.1,12.1l-10.9-5.7L123.4,255.3
				z"/>
		</g>
		<g>
			<path class="st1" d="M139.8,232.7l12.2,1.8l-8.8,8.6l2.1,12.1l-11-5.7l-10.8,5.7"/>
		</g>
	</g>
	<g>
		<g>
			<path class="st2" d="M173.8,339.6l2.1-12.1l-8.8-8.6l12.2-1.8l5.5-11.1l5.5,11l12.2,1.8l-8.8,8.6l2.1,12.1l-10.9-5.7L173.8,339.6
				z"/>
		</g>
		<g>
			<path class="st1" d="M190.2,317.1l12.2,1.8l-8.8,8.6l2.1,12.1l-11-5.7l-10.8,5.7"/>
		</g>
	</g>
	<g>
		<g>
			<path class="st2" d="M224.3,422.1l2.1-12.1l-8.8-8.6l12.2-1.8l5.5-11.1l5.5,11l12.2,1.8l-8.8,8.6l2.1,12.1l-10.9-5.7L224.3,422.1
				z"/>
		</g>
		<g>
			<path class="st1" d="M240.6,399.5l12.2,1.8l-8.8,8.6l2.1,12.1l-11-5.7l-10.8,5.7"/>
		</g>
	</g>
	<g>
		<path class="st1" d="M123.5,171.2l2.1-12l-8.7-8.5l12.1-1.8l5.4-10.9l5.4,10.9l12.1,1.8l-8.7,8.5l2.1,12l-10.8-5.7L123.5,171.2z
			 M134.3,162.2l6.9,3.6l-1.3-7.7l5.6-5.4l-7.7-1.1l-3.4-7l-3.4,7l-7.7,1.1l5.6,5.4l-1.3,7.7L134.3,162.2z"/>
	</g>
	<g>
		<path class="st1" d="M173.9,171.2l2.1-12l-8.7-8.5l12.1-1.8l5.4-10.9l5.4,10.9l12.1,1.8l-8.7,8.5l2.1,12l-10.8-5.7L173.9,171.2z
			 M184.7,162.2l6.9,3.6l-1.3-7.7l5.6-5.4l-7.7-1.1l-3.4-7l-3.4,7l-7.7,1.1l5.6,5.4l-1.3,7.7L184.7,162.2z"/>
	</g>
	<g>
		<path class="st1" d="M224.4,171.2l2.1-12l-8.7-8.5l12.1-1.8l5.4-10.9l5.4,10.9l12.1,1.8l-8.7,8.5l2.1,12l-10.8-5.7L224.4,171.2z
			 M235.2,162.2l6.9,3.6l-1.3-7.7l5.6-5.4l-7.7-1.1l-3.4-7l-3.4,7l-7.7,1.1l5.6,5.4l-1.3,7.7L235.2,162.2z"/>
	</g>
	<g>
		<path class="st1" d="M123.5,213l2.1-12l-8.7-8.5l12.1-1.8l5.4-10.9l5.4,10.9l12.1,1.8L143,201l2.1,12l-10.8-5.7L123.5,213z
			 M134.3,204l6.9,3.6l-1.3-7.7l5.6-5.4l-7.7-1.1l-3.4-7l-3.4,7l-7.7,1.1l5.6,5.4l-1.3,7.7L134.3,204z"/>
	</g>
	<g>
		<path class="st1" d="M173.9,213l2.1-12l-8.7-8.5l12.1-1.8l5.4-10.9l5.4,10.9l12.1,1.8l-8.7,8.5l2.1,12l-10.8-5.7L173.9,213z
			 M184.7,204l6.9,3.6l-1.3-7.7l5.6-5.4l-7.7-1.1l-3.4-7l-3.4,7l-7.7,1.1l5.6,5.4l-1.3,7.7L184.7,204z"/>
	</g>
	<g>
		<path class="st1" d="M224.4,213l2.1-12l-8.7-8.5l12.1-1.8l5.4-10.9l5.4,10.9l12.1,1.8l-8.7,8.5l2.1,12l-10.8-5.7L224.4,213z
			 M235.2,204l6.9,3.6l-1.3-7.7l5.6-5.4l-7.7-1.1l-3.4-7l-3.4,7l-7.7,1.1l5.6,5.4l-1.3,7.7L235.2,204z"/>
	</g>
	<g>
		<path class="st1" d="M173.9,255.1l2.1-12l-8.7-8.5l12.1-1.8l5.4-10.9l5.4,10.9l12.1,1.8l-8.7,8.5l2.1,12l-10.8-5.7L173.9,255.1z
			 M184.7,246.1l6.9,3.6l-1.3-7.7l5.6-5.4l-7.7-1.1l-3.4-7l-3.4,7l-7.7,1.1l5.6,5.4l-1.3,7.7L184.7,246.1z"/>
	</g>
	<g>
		<path class="st1" d="M224.4,255.1l2.1-12l-8.7-8.5l12.1-1.8l5.4-10.9l5.4,10.9l12.1,1.8l-8.7,8.5l2.1,12l-10.8-5.7L224.4,255.1z
			 M235.2,246.1l6.9,3.6l-1.3-7.7l5.6-5.4l-7.7-1.1l-3.4-7l-3.4,7l-7.7,1.1l5.6,5.4l-1.3,7.7L235.2,246.1z"/>
	</g>
	<g>
		<path class="st1" d="M173.9,296.9l2.1-12l-8.7-8.5l12.1-1.8l5.4-10.9l5.4,10.9l12.1,1.8l-8.7,8.5l2.1,12l-10.8-5.7L173.9,296.9z
			 M184.7,287.9l6.9,3.6l-1.3-7.7l5.6-5.4l-7.7-1.1l-3.4-7l-3.4,7l-7.7,1.1l5.6,5.4l-1.3,7.7L184.7,287.9z"/>
	</g>
	<g>
		<path class="st1" d="M224.4,296.9l2.1-12l-8.7-8.5l12.1-1.8l5.4-10.9l5.4,10.9l12.1,1.8l-8.7,8.5l2.1,12l-10.8-5.7L224.4,296.9z
			 M235.2,287.9l6.9,3.6l-1.3-7.7l5.6-5.4l-7.7-1.1l-3.4-7l-3.4,7l-7.7,1.1l5.6,5.4l-1.3,7.7L235.2,287.9z"/>
	</g>
	<g>
		<path class="st1" d="M224.4,338.8l2.1-12l-8.7-8.5l12.1-1.8l5.4-10.9l5.4,10.9l12.1,1.8l-8.7,8.5l2.1,12l-10.8-5.7L224.4,338.8z
			 M235.2,329.8l6.9,3.6l-1.3-7.7l5.6-5.4l-7.7-1.1l-3.4-7l-3.4,7l-7.7,1.1l5.6,5.4l-1.3,7.7L235.2,329.8z"/>
	</g>
	<g>
		<path class="st1" d="M224.4,380.3l2.1-12l-8.7-8.5l12.1-1.8l5.4-10.9l5.4,10.9l12.1,1.8l-8.7,8.5l2.1,12l-10.8-5.7L224.4,380.3z
			 M235.2,371.2l6.9,3.6l-1.3-7.7l5.6-5.4l-7.7-1.1l-3.4-7l-3.4,7l-7.7,1.1l5.6,5.4l-1.3,7.7L235.2,371.2z"/>
	</g>
	<g>
		<path class="st2" d="M22.4,128.8l2.1-12.1l-8.8-8.6l12.2-1.8l5.5-11.1l5.5,11l12.2,1.8l-8.8,8.6l2.1,12.1l-10.9-5.7L22.4,128.8z"
			/>
	</g>
	<g>
		<path class="st2" d="M22.4,171.4l2.1-12.1l-8.8-8.6l12.2-1.8l5.5-11.1l5.5,11l12.2,1.8l-8.8,8.6l2.1,12.1l-10.9-5.7L22.4,171.4z"
			/>
	</g>
	<g>
		<path class="st2" d="M22.4,213.2l2.1-12.1l-8.8-8.6l12.2-1.8l5.5-11.1l5.5,11l12.2,1.8l-8.8,8.6l2.1,12.1l-10.9-5.7L22.4,213.2z"
			/>
	</g>
	<g>
		<path class="st2" d="M22.4,255.3l2.1-12.1l-8.8-8.6l12.2-1.8l5.5-11.1l5.5,11l12.2,1.8l-8.8,8.6l2.1,12.1l-10.9-5.7L22.4,255.3z"
			/>
	</g>
	<g>
		<path class="st2" d="M22.4,297.1l2.1-12.1l-8.8-8.6l12.2-1.8l5.5-11.1l5.5,11l12.2,1.8l-8.8,8.6l2.1,12.1l-10.9-5.7L22.4,297.1z"
			/>
	</g>
	<g>
		<path class="st2" d="M22.4,339l2.1-12.1l-8.8-8.6l12.2-1.8l5.5-11.1l5.5,11l12.2,1.8l-8.8,8.6l2.1,12.1l-10.9-5.7L22.4,339z"/>
	</g>
	<g>
		<path class="st2" d="M22.4,380.4l2.1-12.1l-8.8-8.6l12.2-1.8l5.5-11.1l5.5,11l12.2,1.8l-8.8,8.6l2.1,12.1l-10.9-5.7L22.4,380.4z"
			/>
	</g>
	<g>
		<path class="st2" d="M22.4,422.1l2.1-12.1l-8.8-8.6l12.2-1.8l5.5-11.1l5.5,11l12.2,1.8l-8.8,8.6l2.1,12.1l-10.9-5.7L22.4,422.1z"
			/>
	</g>
	<g>
		<path class="st2" d="M22.4,464l2.1-12.1l-8.8-8.6l12.2-1.8l5.5-11.1l5.5,11l12.2,1.8l-8.8,8.6l2.1,12.1l-10.9-5.7L22.4,464z"/>
	</g>
	<g>
		<path class="st2" d="M73.1,213.2l2.1-12.1l-8.8-8.6l12.2-1.8l5.5-11.1l5.5,11l12.2,1.8l-8.8,8.6l2.1,12.1L84,207.4L73.1,213.2z"/>
	</g>
	<g>
		<path class="st2" d="M73.1,255.3l2.1-12.1l-8.8-8.6l12.2-1.8l5.5-11.1l5.5,11l12.2,1.8l-8.8,8.6l2.1,12.1L84,249.5L73.1,255.3z"/>
	</g>
	<g>
		<path class="st2" d="M73.1,297.1l2.1-12.1l-8.8-8.6l12.2-1.8l5.5-11.1l5.5,11l12.2,1.8l-8.8,8.6l2.1,12.1L84,291.4L73.1,297.1z"/>
	</g>
	<g>
		<path class="st2" d="M73.1,339l2.1-12.1l-8.8-8.6l12.2-1.8l5.5-11.1l5.5,11l12.2,1.8l-8.8,8.6l2.1,12.1L84,333.2L73.1,339z"/>
	</g>
	<g>
		<path class="st2" d="M73.1,380.4l2.1-12.1l-8.8-8.6l12.2-1.8l5.5-11.1l5.5,11l12.2,1.8l-8.8,8.6l2.1,12.1L84,374.7L73.1,380.4z"/>
	</g>
	<g>
		<path class="st2" d="M73.1,422.1l2.1-12.1l-8.8-8.6l12.2-1.8l5.5-11.1l5.5,11l12.2,1.8l-8.8,8.6l2.1,12.1L84,416.3L73.1,422.1z"/>
	</g>
	<g>
		<path class="st2" d="M73.1,464l2.1-12.1l-8.8-8.6l12.2-1.8l5.5-11.1l5.5,11l12.2,1.8l-8.8,8.6l2.1,12.1L84,458.3L73.1,464z"/>
	</g>
	<g>
		<path class="st2" d="M124.4,297.1l2.1-12.1l-8.8-8.6l12.2-1.8l5.5-11.1l5.5,11l12.2,1.8l-8.8,8.6l2.1,12.1l-10.9-5.7L124.4,297.1z
			"/>
	</g>
	<g>
		<path class="st2" d="M124.4,339l2.1-12.1l-8.8-8.6l12.2-1.8l5.5-11.1l5.5,11l12.2,1.8l-8.8,8.6l2.1,12.1l-10.9-5.7L124.4,339z"/>
	</g>
	<g>
		<path class="st2" d="M124.4,380.4l2.1-12.1l-8.8-8.6l12.2-1.8l5.5-11.1l5.5,11l12.2,1.8l-8.8,8.6l2.1,12.1l-10.9-5.7L124.4,380.4z
			"/>
	</g>
	<g>
		<path class="st2" d="M124.4,422.1l2.1-12.1l-8.8-8.6l12.2-1.8l5.5-11.1l5.5,11l12.2,1.8l-8.8,8.6l2.1,12.1l-10.9-5.7L124.4,422.1z
			"/>
	</g>
	<g>
		<path class="st2" d="M124.4,464l2.1-12.1l-8.8-8.6l12.2-1.8l5.5-11.1l5.5,11l12.2,1.8l-8.8,8.6l2.1,12.1l-10.9-5.7L124.4,464z"/>
	</g>
	<g>
		<path class="st2" d="M173.8,380.4l2.1-12.1l-8.8-8.6l12.2-1.8l5.5-11.1l5.5,11l12.2,1.8l-8.8,8.6l2.1,12.1l-10.9-5.7L173.8,380.4z
			"/>
	</g>
	<g>
		<path class="st2" d="M173.8,422.1l2.1-12.1l-8.8-8.6l12.2-1.8l5.5-11.1l5.5,11l12.2,1.8l-8.8,8.6l2.1,12.1l-10.9-5.7L173.8,422.1z
			"/>
	</g>
	<g>
		<path class="st2" d="M173.8,464l2.1-12.1l-8.8-8.6l12.2-1.8l5.5-11.1l5.5,11l12.2,1.8l-8.8,8.6l2.1,12.1l-10.9-5.7L173.8,464z"/>
	</g>
	<g>
		<path class="st2" d="M224.3,464l2.1-12.1l-8.8-8.6l12.2-1.8l5.5-11.1l5.5,11l12.2,1.8l-8.8,8.6l2.1,12.1l-10.9-5.7L224.3,464z"/>
	</g>
</g>
</svg>
