<svg width="78" height="75" xmlns="http://www.w3.org/2000/svg">
 <style type="text/css">.st0{fill:#0d3762;}</style>

 <g>
  <title>background</title>
  <rect fill="none" id="canvas_background" height="77" width="80" y="-1" x="-1"/>
 </g>
 <g>
  <title>Layer 1</title>
  <g id="svg_1">
   <path id="svg_2" d="m19.700002,67.7l-10.9,0c-2.7,0 -4.9,-2.2 -4.9,-4.9l0,-29c0,-2.7 2.2,-4.9 4.9,-4.9l10.9,0c2.7,0 4.9,2.2 4.9,4.9l0,29c0,2.7 -2.2,4.9 -4.9,4.9zm-10.9,-35.8c-1.1,0 -1.9,0.9 -1.9,1.9l0,29c0,1.1 0.9,1.9 1.9,1.9l10.9,0c1.1,0 1.9,-0.9 1.9,-1.9l0,-29c0,-1.1 -0.9,-1.9 -1.9,-1.9l-10.9,0z" class="st0"/>
  </g>
  <g id="svg_3">
   <path id="svg_4" d="m53.300002,70.5c-5.2,0 -10.6,-1.5 -15.8,-2.9c-4.7,-1.3 -9.2,-2.5 -13.1,-2.5l-2.1,0l0,-3l2.2,0c4.3,0 8.9,1.3 13.8,2.6c5,1.4 10.2,2.8 15,2.8c4,0 7.1,-1 8.5,-2.7c0.9,-1.2 1.2,-2.7 0.9,-4.5c-0.2,-0.8 0.3,-1.6 1.1,-1.8c2,-0.5 3.4,-2.2 3.4,-4.3c0,-1.1 -0.4,-2.1 -1.1,-2.9c-0.3,-0.3 -0.4,-0.8 -0.4,-1.2c0.1,-0.4 0.3,-0.8 0.7,-1.1c1.3,-0.8 2.1,-2.2 2.1,-3.7c0,-1.4 -0.6,-2.6 -1.7,-3.5c-0.4,-0.3 -0.6,-0.9 -0.6,-1.4c0.1,-0.5 0.4,-1 0.9,-1.2c1.8,-0.7 3,-2.5 3,-4.5c0,-2.6 -2.1,-4.8 -4.8,-4.8l-16.3,0c-0.5,0 -1,-0.3 -1.3,-0.8c-0.3,-0.5 -0.3,-1 0,-1.5c2.7,-4.7 5.4,-11.3 5.4,-15.7c0,-3.2 -1.6,-4.8 -4.8,-4.8c-1.3,0 -3.1,0.5 -5,4.5c-0.3,0.6 -0.7,1.6 -1.1,2.7c-2.5,6.6 -7.8,20.2 -17.7,20.2l-2.5,0l0,-3l2.5,0c7.9,0 12.6,-12.4 14.9,-18.3c0.5,-1.2 0.8,-2.2 1.2,-2.9c2,-4.2 4.5,-6.3 7.8,-6.3c4.8,0 7.8,3 7.8,7.8c0,4.5 -2.3,10.4 -4.6,15l13.8,0c4.3,0 7.8,3.5 7.8,7.8c0,2.5 -1.2,4.8 -3.1,6.2c0.9,1.2 1.4,2.7 1.4,4.3c0,2 -0.8,3.9 -2.2,5.3c0.6,1.1 0.9,2.3 0.9,3.6c0,2.9 -1.7,5.5 -4.3,6.7c0.2,2.2 -0.4,4.2 -1.7,5.7c-2.1,2.8 -5.9,4.1 -10.9,4.1z" class="st0"/>
  </g>
 </g>
</svg>