<?xml version="1.0" encoding="utf-8"?>
<!-- Generator: Adobe Illustrator 21.1.0, SVG Export Plug-In . SVG Version: 6.00 Build 0)  -->
<svg version="1.1" id="Layer_1" xmlns="http://www.w3.org/2000/svg" xmlns:xlink="http://www.w3.org/1999/xlink" x="0px" y="0px"
	 viewBox="0 0 30 30" style="enable-background:new 0 0 30 30;" xml:space="preserve">
<style type="text/css">
	.st0{display:none;}
	.st1{display:inline;fill:#363FC8;stroke:#363FC8;stroke-miterlimit:10;}
	.st2{fill:#363FC8;stroke:#363FC8;stroke-miterlimit:10;}
</style>
<g id="Layer_2" class="st0">
	<path class="st1" d="M13.6,74.1h2.5c0,0.5,0.5,0.9,1.3,0.9c0.5,0,0.9-0.3,0.9-0.7c0-0.3-0.1-0.6-0.6-0.7l-2-0.5
		c-1.3-0.3-2-1.2-2-2.3c0-1.5,1.3-2.5,3.4-2.5c2.3,0,3.6,1,3.6,2.5h-2.5c0-0.6-0.4-0.9-1.1-0.9c-0.5,0-0.9,0.3-0.9,0.7
		c0,0.4,0.2,0.6,0.7,0.7l1.9,0.5c1.2,0.3,2,1.1,2,2.2c0,1.6-1.3,2.8-3.5,2.8C15,76.8,13.6,75.7,13.6,74.1z"/>
	<path class="st1" d="M30.3,73.3h-5.9c0.1,1,0.7,1.6,1.9,1.6c0.8,0,1.3-0.2,1.5-0.7h2.5c-0.2,1.6-1.9,2.7-4,2.7
		c-2.7,0-4.4-1.6-4.4-4.3c0-2.6,1.7-4.2,4.3-4.2c2.5,0,4.2,1.6,4.2,3.8C30.4,72.6,30.3,72.8,30.3,73.3z M27.9,71.7
		c0-1.1-0.6-1.7-1.7-1.7s-1.8,0.7-1.8,1.7H27.9z"/>
	<path class="st1" d="M31.4,72.6c0-2.4,1.5-4.2,3.8-4.2c1.2,0,2.1,0.5,2.5,1.4v-1.1h2.5v8h-2.5v-1.1c-0.4,0.8-1.4,1.3-2.5,1.3
		C32.8,76.8,31.4,75,31.4,72.6z M37.8,72.6c0-1.1-0.6-2.1-1.9-2.1c-1.2,0-1.9,0.9-1.9,2.1s0.7,2.1,1.9,2.1
		C37.2,74.7,37.8,73.7,37.8,72.6z"/>
	<path class="st1" d="M42.4,68.5h2.5v1.7c0.3-1.2,1.2-1.8,2.2-1.8c0.3,0,0.5,0,0.7,0.1v2.4c-0.3,0-0.4-0.1-0.8-0.1
		c-1.2,0-2.1,0.7-2.1,2.7v3.1h-2.5C42.4,76.6,42.4,68.5,42.4,68.5z"/>
	<path class="st1" d="M48.5,72.6c0-2.5,1.6-4.2,4.3-4.2c2.4,0,4,1.3,4.2,3.3h-2.5c-0.2-0.7-0.7-1.1-1.6-1.1c-1.1,0-1.8,0.8-1.8,2.1
		s0.7,2.1,1.8,2.1c0.9,0,1.4-0.4,1.6-1.1H57c-0.2,1.9-1.8,3.2-4.2,3.2C50.1,76.8,48.5,75.1,48.5,72.6z"/>
	<path class="st1" d="M66.4,71.6v4.9h-2.6v-4.1c0-1.3-0.4-2-1.4-2s-1.5,0.7-1.5,1.9v4.2h-2.5V64.9h2.5v4.8c0.5-0.9,1.4-1.4,2.6-1.4
		C65.4,68.3,66.4,69.4,66.4,71.6z"/>
</g>
<g id="Layer_1_1_">
	<rect x="21.1" y="16.3" transform="matrix(0.728 -0.6856 0.6856 0.728 -8.7361 20.4674)" class="st2" width="0.6" height="9.8"/>
	<path class="st2" d="M12.7,20.4C8.5,20.4,5,17,5,12.7S8.5,5,12.7,5s7.7,3.4,7.7,7.7C20.4,17,17,20.4,12.7,20.4z M12.7,5.7
		c-3.9,0-7.1,3.2-7.1,7.1s3.2,7.1,7.1,7.1s7.1-3.2,7.1-7.1S16.6,5.7,12.7,5.7z"/>
</g>
</svg>
