<?xml version="1.0" encoding="utf-8"?>
<!-- Generator: Adobe Illustrator 19.1.0, SVG Export Plug-In . SVG Version: 6.00 Build 0)  -->
<svg version="1.1" id="Layer_1" xmlns="http://www.w3.org/2000/svg" xmlns:xlink="http://www.w3.org/1999/xlink" x="0px" y="0px"
	 viewBox="0 0 93.4 90.9" style="enable-background:new 0 0 93.4 90.9;" xml:space="preserve">
<style type="text/css">
	.st0{fill:#fff;}
</style>
<path class="st0" d="M82.5,76.6L59.1,53.3c3.4-4.5,5.5-10.2,5.5-16.3c0-14.9-12.2-27.1-27.2-27.1S10.2,22.1,10.2,37
	s12.2,27.1,27.2,27.1c7,0,13.4-2.7,18.2-7l23.2,23.1c0.5,0.5,1.2,0.8,1.8,0.8c0.7,0,1.3-0.3,1.8-0.8C83.5,79.2,83.5,77.6,82.5,76.6
	 M37.4,59c-12.2,0-22-9.8-22-22c0-12.1,9.9-22,22-22s22,9.8,22,22C59.5,49.1,49.6,59,37.4,59"/>
</svg>