<?xml version="1.0" encoding="utf-8"?>
<!-- Generator: Adobe Illustrator 21.1.0, SVG Export Plug-In . SVG Version: 6.00 Build 0)  -->
<svg version="1.1" id="Layer_1" xmlns="http://www.w3.org/2000/svg" xmlns:xlink="http://www.w3.org/1999/xlink" x="0px" y="0px"
	 viewBox="0 0 1568.4 306.2" style="enable-background:new 0 0 1568.4 306.2;" xml:space="preserve">
<style type="text/css">
	.st0{fill:#353FC8;}
	.st1{fill:#CC20B8;}
	.st2{fill:#EEB3D1;}
	.st3{fill:#F4BC21;}
	.st4{fill:#30C3C5;}
	.st5{fill:#EF5354;}
</style>
<g>
	<g>
		<g>
			<path class="st0" d="M232.6,125.4c-11.1,0-18.4,3.3-23.6,9.1V88.1h-22.2v124.4H209v-42.6c0-14.4,5.7-24.2,20.1-24.2
				c10.6,0,13.9,10.2,13.9,18.6v48.2h22.2v-53.1C265.2,139.3,255.3,125.4,232.6,125.4z"/>
			<rect x="278" y="127" class="st0" width="22.2" height="85.5"/>
			<path class="st0" d="M360.8,125.4c-11.1,0-18.4,3.3-23.6,9.1V127H315v85.5h22.2v-42.6c0-14.4,5.7-24.2,20.1-24.2
				c10.6,0,13.9,10.2,13.9,18.6v48.2h22.2v-53.1C393.5,139.3,383.6,125.4,360.8,125.4z"/>
			<path class="st0" d="M464.3,137.2c-5.5-6.3-13.4-10.1-24.4-10.1c-25.2,0-39.2,21.2-39.2,43.5c0,25.2,14,43.8,39.2,43.8
				c11.1,0,20.8-3.9,24.7-9.1v7.2h21.9V87.9h-22.2V137.2z M443.6,194.1c-11.8,0-21.3-9.3-21.3-22.3c0-15,9.7-26.1,21.3-26.1
				c13.3,0,20.7,11.9,20.7,24.5C464.3,183.5,456.9,194.1,443.6,194.1z"/>
			<rect x="500.6" y="127" class="st0" width="22.2" height="85.5"/>
			<path class="st0" d="M511.7,86.1L511.7,86.1c-7.5,0-13.7,6.1-13.7,13.7l0,0c0,7.5,6.1,13.7,13.7,13.7h0c7.5,0,13.7-6.1,13.7-13.7
				l0,0C525.4,92.2,519.3,86.1,511.7,86.1z"/>
			<path class="st0" d="M289.1,86.1L289.1,86.1c-7.5,0-13.7,6.1-13.7,13.7l0,0c0,7.5,6.1,13.7,13.7,13.7h0c7.5,0,13.7-6.1,13.7-13.7
				l0,0C302.8,92.2,296.7,86.1,289.1,86.1z"/>
			<polygon class="st0" points="655.8,191 698.2,145.5 698.2,127 626.6,127 626.6,148.6 668.3,148.6 626,194.1 626,212.5 
				700.8,212.5 700.8,191 			"/>
			<path class="st0" d="M129.5,86.1c-22.2,0-43.8,12.4-43.8,38.8c0,25.7,20.8,30.6,35.9,34.6c13.4,3.5,29.3,7.3,29.3,18.9
				c0,8.5-9.5,14-18.7,14c-8.1,0-17.8-5.1-21-12.8c-0.7-1.6-0.8-5.1-0.8-5.1l-24.1,0.4c0.1,5.7,2.6,13.5,4.8,17.9
				c7.2,14.7,21.6,21.9,39.7,21.9c20.2,0,43.3-10.8,43.3-37.2c0-29-27.2-33-44.9-37.7c-10.3-2.7-20.1-6.3-20.1-16.4
				c0-10,9.9-16.9,20-16.9c16.2,0,24.5,8.7,24.5,21.6l23.2,3.6c0.1-1.4,0.2-2.8,0.2-4.1C177,99.9,152.9,86.1,129.5,86.1z"/>
			<path class="st0" d="M609.3,110.6l-18,19.8c-5-2.3-8.7-3-16.5-3c-23.2,0-39.4,13.6-39.4,32.7c0,6.9,2.1,17.4,9,22
				c-2.3,2.9-5.1,8.2-5.1,15.3c0,5.1,2.2,10,4.6,13.1c-3.5,1.9-12.8,7.8-12.8,20.3c0,16.3,14.3,26.9,43.9,26.9
				c28.8,0,45.4-9.9,45.4-29.2c0-15.5-10.7-24.2-29.1-24.2h-15.8h-9.8c-4.6,0-6.7-3.1-6.7-6.9c0-2.8,1-5,2.7-6.4
				c2.9,1.3,7.2,1.9,13.3,1.9c21.4,0,39.3-13.7,38.8-32.7c-0.2-8.4-4.3-15.6-8-18.9l16.9-18.7L609.3,110.6z M575.6,221.2
				c19,0,23.9,1.2,23.9,1.2c0,15.3-12,19.3-23.4,19.3c-13.8,0-24.4-4.8-24.4-19.9C551.6,221.8,556.6,221.2,575.6,221.2z
				 M574.4,175.7c-11.8,0-17.7-8.2-17.7-16c0-7.7,6.3-15.9,17.6-15.9c11.2,0,18.5,8.2,18.5,15.9
				C592.8,167.5,586.3,175.7,574.4,175.7z"/>
			<g>
				<path class="st0" d="M711.5,128.5h-3.2V127h8v1.4h-3.2v10.8h-1.6V128.5z"/>
				<path class="st0" d="M729.5,139.3h-1.6v-8.6l-3.5,8.6h-1.2l-3.5-8.6v8.6H718V127h1.5l4.2,9.8l4.2-9.8h1.5V139.3z"/>
			</g>
		</g>
		<polygon class="st1" points="791.4,139.7 786.8,154.7 779.7,154.7 769.8,127.1 778.5,127.1 783.3,143.6 788.2,127.1 794.7,127.1 
			799.5,143.6 804.4,127.1 813.1,127.1 803.2,154.7 796,154.7 		"/>
		<polygon class="st1" points="834.2,144.4 826.5,144.4 826.5,154.7 818.3,154.7 818.3,127.1 826.5,127.1 826.5,137.6 834.2,137.6 
			834.2,127.1 842.4,127.1 842.4,154.7 834.2,154.7 		"/>
		<polygon class="st1" points="858.7,133.3 858.7,138.1 868.3,138.1 868.3,143.9 858.7,143.9 858.7,148.6 868.3,148.6 868.3,154.7 
			850.6,154.7 850.6,127.1 868.3,127.1 868.3,133.3 		"/>
		<g>
			<path class="st1" d="M887.8,141.3c1.1,0,2-0.4,2.7-1.1c0.7-0.8,1-1.7,1-2.8c0-1.1-0.3-2-1-2.8c-0.7-0.8-1.5-1.1-2.6-1.1h-3.4v7.8
				H887.8z M876.2,127.1h13.2c1.6,0,3,0.3,4.3,0.8c1.3,0.6,2.4,1.3,3.3,2.2c0.9,0.9,1.6,2,2.1,3.3c0.5,1.2,0.7,2.6,0.7,4
				c0,1.9-0.4,3.6-1.3,5.2c-0.9,1.6-2.1,2.8-3.7,3.7l5.5,8.4h-9.6l-4.7-7h-1.5v7h-8.2V127.1z"/>
		</g>
		<polygon class="st1" points="915,133.3 915,138.1 924.6,138.1 924.6,143.9 915,143.9 915,148.6 924.6,148.6 924.6,154.7 
			906.8,154.7 906.8,127.1 924.6,127.1 924.6,133.3 		"/>
		<polygon class="st1" points="952.8,133.8 952.8,139.9 962.4,139.9 962.4,146.4 952.8,146.4 952.8,154.7 944.7,154.7 944.7,127.1 
			962.4,127.1 962.4,133.8 		"/>
		<g>
			<path class="st1" d="M969.5,127.1h8.2V145c0,0.9,0.3,1.8,0.9,2.4c0.6,0.7,1.4,1,2.4,1c1,0,1.8-0.3,2.4-1c0.6-0.7,0.9-1.5,0.9-2.4
				v-17.9h8.2v18c0,1.5-0.3,2.9-0.8,4.1c-0.5,1.3-1.3,2.3-2.3,3.3c-1,0.9-2.2,1.6-3.6,2.1c-1.4,0.5-3,0.8-4.8,0.8
				c-1.8,0-3.4-0.3-4.8-0.8c-1.4-0.5-2.6-1.2-3.6-2.1c-1-0.9-1.8-2-2.3-3.3c-0.5-1.3-0.8-2.6-0.8-4.1V127.1z"/>
		</g>
		<polygon class="st1" points="1017.6,143.5 1017.6,127.1 1025.8,127.1 1025.8,154.7 1017.5,154.7 1008.5,138.9 1008.5,154.7 
			1000.3,154.7 1000.3,127.1 1008.6,127.1 		"/>
		<g>
			<path class="st1" d="M1074.3,143.8c-0.2,1.6-0.7,3.1-1.5,4.5c-0.7,1.4-1.7,2.7-3,3.7c-1.2,1-2.7,1.9-4.4,2.5
				c-1.7,0.6-3.6,0.9-5.7,0.9c-2.4,0-4.5-0.4-6.4-1.2c-1.9-0.8-3.5-1.8-4.7-3.2c-1.3-1.3-2.3-2.9-3-4.6c-0.7-1.8-1-3.6-1-5.5
				c0-1.9,0.3-3.7,1-5.5c0.7-1.7,1.6-3.3,2.9-4.6c1.3-1.3,2.8-2.4,4.7-3.2c1.8-0.8,3.9-1.2,6.2-1.2c2.2,0,4.2,0.3,5.9,0.9
				c1.7,0.6,3.2,1.5,4.4,2.6c1.2,1.1,2.2,2.4,2.9,3.9c0.7,1.5,1.2,3,1.4,4.7h-8.6c-0.2-1.3-0.8-2.4-1.8-3.3c-1-0.9-2.3-1.3-4-1.3
				c-1.1,0-2.1,0.2-2.9,0.6s-1.5,0.9-2.1,1.6c-0.6,0.6-1,1.4-1.3,2.2c-0.3,0.9-0.4,1.7-0.4,2.7c0,1,0.2,1.9,0.5,2.8
				c0.3,0.9,0.8,1.6,1.4,2.2c0.6,0.6,1.3,1.1,2.1,1.5c0.8,0.4,1.8,0.5,2.9,0.5c1.5,0,2.8-0.4,3.8-1.2c1-0.8,1.6-1.8,1.9-3H1074.3z"
				/>
			<path class="st1" d="M1094.3,148c1,0,2-0.2,2.8-0.6c0.8-0.4,1.5-0.9,2.1-1.6c0.6-0.6,1-1.4,1.3-2.2c0.3-0.9,0.5-1.7,0.5-2.7
				c0-0.9-0.2-1.8-0.5-2.7c-0.3-0.9-0.7-1.6-1.3-2.2c-0.6-0.6-1.3-1.2-2.1-1.6c-0.8-0.4-1.8-0.6-2.8-0.6c-1,0-2,0.2-2.8,0.6
				s-1.5,0.9-2.1,1.6c-0.6,0.6-1,1.4-1.3,2.2c-0.3,0.9-0.5,1.7-0.5,2.7c0,0.9,0.2,1.8,0.5,2.7c0.3,0.9,0.7,1.6,1.3,2.2
				c0.6,0.6,1.3,1.2,2.1,1.6C1092.3,147.8,1093.3,148,1094.3,148 M1094.3,155.4c-2.4,0-4.5-0.4-6.3-1.2c-1.8-0.8-3.4-1.9-4.7-3.2
				c-1.3-1.3-2.2-2.9-2.9-4.6c-0.7-1.8-1-3.6-1-5.5c0-1.9,0.3-3.7,1-5.5c0.7-1.8,1.6-3.3,2.9-4.6c1.3-1.3,2.8-2.4,4.7-3.2
				c1.9-0.8,4-1.2,6.3-1.2s4.5,0.4,6.3,1.2c1.9,0.8,3.4,1.9,4.7,3.2c1.3,1.3,2.2,2.9,2.9,4.6c0.7,1.8,1,3.6,1,5.5
				c0,1.9-0.3,3.7-1,5.5c-0.7,1.8-1.6,3.3-2.9,4.6c-1.3,1.3-2.8,2.4-4.7,3.2C1098.8,155,1096.7,155.4,1094.3,155.4"/>
		</g>
		<polygon class="st1" points="1148.2,154.7 1140.2,154.7 1140.2,137.6 1135.2,154.7 1129.2,154.7 1123.8,137.6 1123.8,154.7 
			1115.9,154.7 1115.9,127.1 1126.3,127.1 1132.2,144.9 1138,127.1 1148.2,127.1 		"/>
		<polygon class="st1" points="1164.5,133.3 1164.5,138.1 1174,138.1 1174,143.9 1164.5,143.9 1164.5,148.6 1174,148.6 1174,154.7 
			1156.3,154.7 1156.3,127.1 1174,127.1 1174,133.3 		"/>
		<g>
			<path class="st1" d="M1188.8,145.4c0,1.3,0.3,2.2,0.9,2.9c0.6,0.7,1.5,1,2.5,1c0.8,0,1.5-0.2,2-0.6c0.5-0.4,0.7-1,0.7-1.7
				c0-0.8-0.3-1.4-1-1.8c-0.7-0.4-1.7-0.9-3.2-1.5c-1.3-0.5-2.5-1-3.6-1.5c-1.2-0.5-2.2-1.1-3.1-1.8c-0.9-0.7-1.6-1.5-2.1-2.4
				c-0.5-0.9-0.8-2.1-0.8-3.5c0-1.4,0.3-2.6,0.9-3.6c0.6-1,1.4-1.8,2.5-2.5c1-0.6,2.2-1.1,3.5-1.4c1.3-0.3,2.6-0.5,4-0.5
				c2,0,3.7,0.3,5.1,0.8c1.4,0.5,2.5,1.2,3.3,2.1c0.8,0.9,1.4,1.8,1.8,2.9c0.4,1.1,0.6,2.2,0.6,3.2h-8.2c0-2.3-0.9-3.4-2.7-3.4
				c-0.7,0-1.3,0.2-1.8,0.5c-0.5,0.3-0.7,0.9-0.7,1.7c0,0.7,0.3,1.3,0.9,1.8c0.6,0.5,1.6,0.9,2.8,1.4c1.2,0.4,2.4,0.9,3.6,1.3
				c1.2,0.5,2.3,1,3.2,1.7c1,0.7,1.7,1.5,2.3,2.5c0.6,1,0.9,2.2,0.9,3.6c0,1.4-0.3,2.7-0.8,3.8c-0.5,1.1-1.3,2.1-2.2,2.8
				c-1,0.8-2.1,1.3-3.5,1.7c-1.4,0.4-3,0.6-4.7,0.6c-1.7,0-3.3-0.2-4.7-0.7c-1.4-0.4-2.6-1.1-3.6-1.9c-1-0.8-1.7-1.9-2.3-3.1
				s-0.8-2.7-0.8-4.3H1188.8z"/>
		</g>
		<polygon class="st1" points="1226.6,134.1 1220.9,134.1 1220.9,127.1 1240.5,127.1 1240.5,134.1 1234.8,134.1 1234.8,154.7 
			1226.6,154.7 		"/>
		<g>
			<path class="st1" d="M1259.8,148c1,0,2-0.2,2.8-0.6c0.8-0.4,1.5-0.9,2.1-1.6c0.6-0.6,1-1.4,1.3-2.2c0.3-0.9,0.5-1.7,0.5-2.7
				c0-0.9-0.2-1.8-0.5-2.7c-0.3-0.9-0.7-1.6-1.3-2.2c-0.6-0.6-1.3-1.2-2.1-1.6c-0.8-0.4-1.8-0.6-2.8-0.6c-1,0-2,0.2-2.8,0.6
				c-0.8,0.4-1.5,0.9-2.1,1.6c-0.6,0.6-1,1.4-1.3,2.2c-0.3,0.9-0.5,1.7-0.5,2.7c0,0.9,0.2,1.8,0.5,2.7c0.3,0.9,0.7,1.6,1.3,2.2
				c0.6,0.6,1.3,1.2,2.1,1.6C1257.8,147.8,1258.7,148,1259.8,148 M1259.8,155.4c-2.4,0-4.5-0.4-6.3-1.2c-1.8-0.8-3.4-1.9-4.7-3.2
				c-1.3-1.3-2.2-2.9-2.9-4.6c-0.7-1.8-1-3.6-1-5.5c0-1.9,0.3-3.7,1-5.5c0.7-1.8,1.6-3.3,2.9-4.6c1.3-1.3,2.8-2.4,4.7-3.2
				c1.9-0.8,4-1.2,6.3-1.2c2.4,0,4.5,0.4,6.3,1.2c1.9,0.8,3.4,1.9,4.7,3.2c1.3,1.3,2.2,2.9,2.9,4.6c0.7,1.8,1,3.6,1,5.5
				c0,1.9-0.3,3.7-1,5.5c-0.7,1.8-1.6,3.3-2.9,4.6c-1.3,1.3-2.8,2.4-4.7,3.2C1264.3,155,1262.2,155.4,1259.8,155.4"/>
			<path class="st1" d="M1305.3,141.3c1.1,0,2-0.4,2.7-1.1c0.7-0.8,1-1.7,1-2.8c0-1.1-0.3-2-1-2.8c-0.7-0.8-1.5-1.1-2.6-1.1h-3.4
				v7.8H1305.3z M1293.7,127.1h13.2c1.6,0,3,0.3,4.3,0.8c1.3,0.6,2.4,1.3,3.3,2.2c0.9,0.9,1.6,2,2.1,3.3c0.5,1.2,0.7,2.6,0.7,4
				s-0.2,2.7-0.7,3.9c-0.5,1.2-1.2,2.3-2.1,3.2c-0.9,0.9-2,1.7-3.3,2.2c-1.3,0.5-2.7,0.8-4.3,0.8h-5v7h-8.2V127.1z"/>
		</g>
		<path class="st1" d="M1333.8,135.4l-2.9,10.2h5.8L1333.8,135.4z M1339.3,154.7l-0.9-3.2h-9.3l-0.9,3.2h-8.9l10.2-27.6h8.6
			l10.4,27.6H1339.3z"/>
		<g>
			<path class="st1" d="M1365.5,141.3c1.1,0,2-0.4,2.7-1.1c0.7-0.8,1-1.7,1-2.8c0-1.1-0.3-2-1-2.8c-0.7-0.8-1.5-1.1-2.6-1.1h-3.4
				v7.8H1365.5z M1353.9,127.1h13.2c1.6,0,3,0.3,4.3,0.8c1.3,0.6,2.4,1.3,3.3,2.2c0.9,0.9,1.6,2,2.1,3.3c0.5,1.2,0.7,2.6,0.7,4
				c0,1.9-0.4,3.6-1.3,5.2c-0.9,1.6-2.1,2.8-3.7,3.7l5.5,8.4h-9.6l-4.7-7h-1.5v7h-8.2V127.1z"/>
		</g>
		<polygon class="st1" points="1388.3,134.1 1382.6,134.1 1382.6,127.1 1402.1,127.1 1402.1,134.1 1396.5,134.1 1396.5,154.7 
			1388.3,154.7 		"/>
		<polygon class="st1" points="1420.3,154.7 1411.1,154.7 1415.9,145 1406.6,127.1 1416.2,127.1 1420.7,136.9 1424.9,127.1 
			1434,127.1 		"/>
		<rect x="916" y="73.6" transform="matrix(0.9358 -0.3525 0.3525 0.9358 32.2043 331.3984)" class="st2" width="20" height="7.4"/>
		
			<rect x="1373.6" y="80" transform="matrix(0.4127 -0.9109 0.9109 0.4127 726.9868 1307.4534)" class="st2" width="7.4" height="20"/>
		
			<rect x="1335.4" y="193.5" transform="matrix(0.9358 -0.3525 0.3525 0.9358 16.8335 486.9314)" class="st2" width="20" height="7.4"/>
		<rect x="937" y="176.8" transform="matrix(0.8458 -0.5335 0.5335 0.8458 45.3834 530.658)" class="st3" width="7.4" height="20"/>
		
			<rect x="1141.9" y="199.9" transform="matrix(0.6681 -0.7441 0.7441 0.6681 230.7928 924.6373)" class="st2" width="20" height="7.4"/>
		
			<rect x="741.4" y="156.1" transform="matrix(0.5845 -0.8114 0.8114 0.5845 174.7891 673.5582)" class="st2" width="7.4" height="20"/>
		
			<rect x="1243" y="177.6" transform="matrix(0.7655 -0.6434 0.6434 0.7655 171.6345 846.2098)" class="st4" width="7.4" height="20"/>
		
			<rect x="1050.9" y="179.5" transform="matrix(9.143866e-02 -0.9958 0.9958 9.143866e-02 769.444 1222.375)" class="st4" width="7.4" height="20"/>
		
			<rect x="1246" y="88.6" transform="matrix(0.9996 -2.775907e-02 2.775907e-02 0.9996 -2.0792 34.9011)" class="st4" width="20" height="7.4"/>
		
			<rect x="1034" y="80" transform="matrix(9.114138e-02 -0.9958 0.9958 9.114138e-02 853.5151 1115.186)" class="st5" width="7.4" height="20"/>
		<rect x="1462.1" y="109.6" transform="matrix(0.939 -0.344 0.344 0.939 50.8501 513.262)" class="st5" width="20" height="7.4"/>
		
			<rect x="813.6" y="189.3" transform="matrix(0.3042 -0.9526 0.9526 0.3042 389.2133 918.8522)" class="st5" width="20" height="7.4"/>
		
			<rect x="813.3" y="73.8" transform="matrix(0.5466 -0.8374 0.8374 0.5466 300.3171 722.1696)" class="st4" width="7.4" height="20"/>
		
			<rect x="1141.9" y="80.1" transform="matrix(0.2209 -0.9753 0.9753 0.2209 815.7298 1188.6793)" class="st3" width="20" height="7.4"/>
		
			<rect x="1449.2" y="172.4" transform="matrix(0.8458 -0.5335 0.5335 0.8458 126.7772 803.3109)" class="st3" width="7.4" height="20"/>
	</g>
</g>
</svg>
