<?xml version="1.0" encoding="utf-8"?>
<!-- Generator: Adobe Illustrator 21.1.0, SVG Export Plug-In . SVG Version: 6.00 Build 0)  -->
<svg version="1.1" id="Layer_1" xmlns="http://www.w3.org/2000/svg" xmlns:xlink="http://www.w3.org/1999/xlink" x="0px" y="0px"
	 viewBox="0 0 700.3 272.8" style="enable-background:new 0 0 700.3 272.8;" xml:space="preserve">
<style type="text/css">
	.st0{fill:#353FC8;}
</style>
<path class="st0" d="M207,111.1c-9.9,0-16.4,3-21,8.1V77.9h-19.8v110.8H186v-38c0-12.8,5.1-21.6,17.9-21.6c9.5,0,12.4,9.1,12.4,16.6
	v42.9h19.8v-47.3C236.1,123.6,227.2,111.1,207,111.1z"/>
<rect x="247.5" y="112.6" class="st0" width="19.8" height="76.1"/>
<path class="st0" d="M321.2,111.1c-9.9,0-16.4,3-21,8.1v-6.7h-19.8v76.1h19.8v-38c0-12.8,5.1-21.6,17.9-21.6
	c9.5,0,12.4,9.1,12.4,16.6v42.9h19.8v-47.3C350.4,123.6,341.5,111.1,321.2,111.1z"/>
<path class="st0" d="M413.4,121.6c-4.9-5.6-12-9-21.7-9c-22.5,0-34.9,18.9-34.9,38.7c0,22.5,12.5,39,34.9,39c9.9,0,18.5-3.5,22-8.1
	v6.4h19.5v-111h-19.8V121.6z M395,172.3c-10.5,0-19-8.3-19-19.8c0-13.4,8.7-23.2,19-23.2c11.8,0,18.4,10.6,18.4,21.9
	C413.4,162.9,406.8,172.3,395,172.3z"/>
<rect x="445.8" y="112.6" class="st0" width="19.8" height="76.1"/>
<path class="st0" d="M455.7,76.1L455.7,76.1c-6.7,0-12.2,5.5-12.2,12.2l0,0c0,6.7,5.5,12.2,12.2,12.2h0c6.7,0,12.2-5.5,12.2-12.2
	l0,0C467.8,81.6,462.4,76.1,455.7,76.1z"/>
<path class="st0" d="M257.4,76.1L257.4,76.1c-6.7,0-12.2,5.5-12.2,12.2l0,0c0,6.7,5.5,12.2,12.2,12.2h0c6.7,0,12.2-5.5,12.2-12.2
	l0,0C269.5,81.6,264.1,76.1,257.4,76.1z"/>
<polygon class="st0" points="584.1,169.6 621.7,129 621.7,112.6 558,112.6 558,131.8 595.1,131.8 557.5,172.4 557.5,188.8 
	624.1,188.8 624.1,169.6 "/>
<path class="st0" d="M115.2,76.1c-19.8,0-39,11.1-39,34.6c0,22.9,18.5,27.2,32,30.8c12,3.1,26.1,6.5,26.1,16.8
	c0,7.5-8.5,12.4-16.6,12.4c-7.2,0-15.9-4.6-18.7-11.4c-0.6-1.5-0.7-4.6-0.7-4.6l-21.5,0.3c0.1,5.1,2.3,12,4.2,15.9
	c6.4,13.1,19.3,19.5,35.4,19.5c18,0,38.6-9.6,38.6-33.1c0-25.9-24.2-29.4-40-33.6c-9.2-2.4-17.9-5.6-17.9-14.6
	c0-8.9,8.8-15.1,17.8-15.1c14.4,0,21.8,7.7,21.8,19.2l20.7,3.2c0.1-1.2,0.1-2.5,0.1-3.6C157.5,88.4,136,76.1,115.2,76.1z"/>
<path class="st0" d="M542.6,98l-16,17.7c-4.5-2-7.8-2.7-14.7-2.7c-20.6,0-35.1,12.1-35.1,29.1c0,6.2,1.9,15.5,8,19.6
	c-2.1,2.6-4.5,7.3-4.5,13.6c0,4.5,2,8.9,4.1,11.7c-3.1,1.7-11.4,6.9-11.4,18.1c0,14.5,12.7,23.9,39.1,23.9c25.6,0,40.4-8.8,40.4-26
	c0-13.8-9.5-21.5-25.9-21.5h-14.1h-8.8c-4.1,0-6-2.8-6-6.2c0-2.5,0.9-4.4,2.4-5.7c2.6,1.2,6.4,1.7,11.8,1.7c19,0,35-12.2,34.6-29.2
	c-0.2-7.5-3.8-13.9-7.1-16.8l15.1-16.7L542.6,98z M512.5,196.5c16.9,0,21.3,1.1,21.3,1.1c0,13.6-10.7,17.2-20.9,17.2
	c-12.3,0-21.8-4.3-21.8-17.7C491.2,197.1,495.6,196.5,512.5,196.5z M511.5,156c-10.5,0-15.8-7.3-15.8-14.2c0-6.9,5.6-14.1,15.6-14.1
	c10,0,16.5,7.3,16.5,14.2C527.9,148.6,522.1,156,511.5,156z"/>
<path class="st0" d="M633.7,113.9h-2.8v-1.3h7.1v1.3h-2.9v9.7h-1.4V113.9z"/>
<path class="st0" d="M649.7,123.6h-1.4v-7.7l-3.2,7.7h-1.1l-3.2-7.7v7.7h-1.4v-11h1.4l3.8,8.8l3.8-8.8h1.4V123.6z"/>
</svg>
