<?xml version="1.0" encoding="utf-8"?>
<!-- Generator: Adobe Illustrator 19.1.0, SVG Export Plug-In . SVG Version: 6.00 Build 0)  -->
<svg version="1.1" id="Layer_1" xmlns="http://www.w3.org/2000/svg" xmlns:xlink="http://www.w3.org/1999/xlink" x="0px" y="0px"
	 viewBox="0 0 100 125" fill="#0D325D" style="enable-background:new 0 0 100 125;" xml:space="preserve">
<path d="M73.5,30H75c5.8,0,10.5,4.7,10.5,10.5S80.8,51,75,51h-4.5v6l-9-7.5l9-7.5v6H75c4.1,0,7.5-3.4,7.5-7.5S79.1,33,75,33h-1.5V30
	L73.5,30z M55.5,54h-42v-9h42V54L55.5,54z M67.5,36h-42v-9h42V36L67.5,36z M67.5,72h-42v-9h42V72L67.5,72z"/>
</svg>
