<?xml version="1.0" encoding="utf-8"?>
<!-- Generator: Adobe Illustrator 19.1.0, SVG Export Plug-In . SVG Version: 6.00 Build 0)  -->
<svg version="1.1" id="Layer_1" xmlns="http://www.w3.org/2000/svg" xmlns:xlink="http://www.w3.org/1999/xlink" x="0px" y="0px"
	 viewBox="0 0 381.8 134.5" style="enable-background:new 0 0 381.8 134.5;" xml:space="preserve">
<style type="text/css">
	.st0{fill:#B3282D;}
	.st1{fill:#FFFFFF;}
</style>
<g>
	<path class="st0" d="M185.4,28C119.7,28,54.2,19.2,9.1,9.3v114.6c45-9.9,110.6-19.8,176.2-19.8c71.7,0,142.3,8,188.4,19.6V8.4
		C327.7,20,257.1,28,185.4,28z"/>
	<g>
		<g>
			<path class="st1" d="M346.3,31.1v0.7l-1.8,0.2V37l-0.9,0.1v-4.9l-1.8,0.2v-0.7L346.3,31.1z"/>
			<path class="st1" d="M349.3,36.3l-1.5-4.9c0,0,0,0-0.1,0c0,0-0.1,0-0.1,0.1v5.1l-0.7,0.1v-5.6l1.3-0.2l1.3,4.2c0,0,0,0.1,0.1,0.1
				c0,0,0.1,0,0.1-0.1l1.2-4.5l1.3-0.2v5.6l-0.7,0.1v-5.1c0,0,0-0.1-0.1-0.1c0,0-0.1,0-0.1,0.1l-1.4,5.3L349.3,36.3z"/>
		</g>
	</g>
	<path class="st1" d="M339.9,99.6c-13.3-2-20.3-2.9-33.7-4.6l0-14l3.1,0.2l0-15.5l0-15.2l-3.1,0.2l0-14.1
		c13.4-1.6,20.5-2.6,33.7-4.6l0,20.1c-4.4,0.2-7,0.4-11.4,0.6l0-3.5l-7.9,0.5l0,8.5l1.1,0c3.9-0.1,6-0.2,9.5-0.3l0,7.9l0,7
		c-3.5-0.1-5.7-0.2-9.5-0.3l-1.1,0l0,9.4l7.9,0.5l0-4.5c4.4,0.2,7,0.3,11.4,0.5V99.6z M308.7,91.6l0.4,0c11.2,1.1,16.6,1.8,27.8,3.1
		l0.5,0.1l0-11.9c0,0-3.6-0.3-5.8-0.4l-0.4,0l0,4.5c-5.1-0.5-7.9-0.7-13-1.1l0-17.5l10.7,0.1l0-2.6l0-3.5l-0.4-0.1l-10.3,0.1l0-16.4
		c5.1-0.4,7.9-0.7,13-1.1l0,3.6l6.3-0.5l0-11l-0.5,0.1c-11.2,1.3-16.6,2-27.8,3.1l-0.4,0l0,6.6l3.2-0.3l0,19.3l0,19.4l-3.2-0.3
		L308.7,91.6z M36.4,98.6c-2.9-3.9-4.5-6-7.5-10.1V77.4c4.6-0.2,7.4-0.3,11.9-0.5l0,5.5l8.2-0.5l0-11l-1.1,0
		c-5.4,0.1-8.2,0.2-13.4,0.3c-1.5-2.2-2.3-3.5-3.9-6c-0.7-1.1-1.1-1.7-1.7-2.7V43.4c3-4.1,4.6-6.3,7.5-10.1
		c6.9,0.9,10.6,1.4,17.6,2.3c2.7,4,4.1,6.1,7,10.1l0,8.4c-4.6-0.2-7.3-0.3-11.9-0.5l0-3.5l-8.2-0.5l0,8l1,0
		c5.7,0.2,8.6,0.3,14.1,0.5c2,3,3.1,4.6,5.2,7.5l0,0.4l-0.1,19.6c-3.1,4.2-4.7,6.5-7.7,10.9C46.7,97.2,43.1,97.7,36.4,98.6z
		 M31.6,80.9l0,4.8l0.1,0.1c2.3,3.3,3.4,4.9,5.6,8.1l0.1,0.2l0.2,0c5.7-0.6,8.6-0.9,14.3-1.5l0.2,0l0.1-0.2c2.3-3.5,3.5-5.1,5.8-8.5
		l0.1-0.1l0-16.4L57,65.6c-1.2-1.6-1.8-2.4-3-4l-0.1-0.2l-0.2,0c-5.7-0.1-8.6-0.1-14.2-0.2c-0.5-0.8-0.8-1.2-1.4-2.1l0-11.1
		c0.9-1.1,1.5-1.8,2.4-2.9c3.5,0.3,5.3,0.4,8.8,0.7c1,1.3,1.5,1.9,2.5,3.2l0,1.2l6.5,0.4l0-2.9l-0.1-0.1c-2.3-3.2-3.4-4.9-5.7-8.2
		l-0.1-0.2l-0.2,0c-5.8-0.6-8.6-0.9-14.4-1.6l-0.2,0l-0.1,0.2c-2.3,3.1-3.4,4.6-5.6,7.8l-0.1,0.1l0,14.8l0.1,0.1
		c1.3,2.2,2,3.3,3.3,5.4l0.8,1.2l14.7-0.1c0.5,0.7,0.8,1.2,1.3,1.9l0,13.3c-1,1.5-1.5,2.4-2.5,3.9c-3.4,0.3-5.3,0.4-8.7,0.7
		c-0.9-1.4-1.5-2.2-2.4-3.7l0-3L31.6,80.9z M64.1,80.2l2.9-0.2l0-14.1l0-14l-2.9-0.2l0-15.1c9.7,1.3,14.6,1.9,24.4,2.9
		c2.7,4,4.1,6,6.8,9.9L95.3,66c-2.8,3.7-4.1,5.6-6.8,9.3c-3.9,0.2-5.9,0.2-9.9,0.4l-0.4,0l0,3.6l3.1-0.2l0,13.9
		c-6.8,0.8-10.4,1.2-17.2,2.1L64.1,80.2z M66.9,84.3l0,6.3l0.5,0c4.3-0.4,6.4-0.7,10.7-1.1l0.4,0l0-6l-2.9,0.2l0-11.8
		c4.5-0.1,6.9-0.2,11.6-0.3l0.2,0l0.1-0.2c1.6-2.1,2.4-3.2,3.9-5.2l1.2-1.5l-0.1-14.1l-0.1-0.1c-2-2.8-3-4.2-5-7.1l-0.1-0.2l-0.2,0
		c-7.9-0.7-11.8-1.1-19.7-1.9l-0.5,0l0,6.4l2.9,0.2l0.1,18L69.8,84L66.9,84.3z M299.9,94.4c-3.9-0.5-6-0.7-10-1.2
		c-4.4-11.2-6.6-16.6-11.2-27.5l-0.8,0.1l0,13.4l0.4,0l3,0.2l0,12.9c-6.1-0.7-9.4-1-15.6-1.5l0-12.7l2.9,0.1l0-12.3l0-12.2l-2.9,0.1
		l0-12.7c5.6-0.5,8.5-0.8,14.1-1.4c3.9,9.2,5.8,13.9,9.6,23.6l0.8-0.2l0-11.4l-2.9,0.2l0-13c6-0.7,9.2-1.1,15.1-1.8l0,14.9l-2.7,0.2
		l0,13.8L299.9,94.4z M276,52.6c2.2,4.9,3.5,7.9,5.8,13.5c3.9,9.1,5.8,13.7,9.5,23.1l0.1,0.2l0.3,0c2,0.2,3,0.3,5,0.5l0.5,0l-0.1-24
		l0.1-17.8l2.7-0.2l0-6.3l-0.5,0c-3.6,0.4-5.4,0.5-9,0.9l-0.4,0l0,6.1l2.5-0.2l-0.1,17.4l0,11.5c-1.7-4.3-2.8-6.9-4.8-11.7
		c-3.7-8.9-5.5-13.2-9.4-21.8l-0.1-0.3l-0.3,0c-3.5,0.3-5.3,0.4-8.8,0.7l-0.4,0l0,5.7l2.9-0.2l-0.1,16l0.1,16l-2.9-0.2l0,5.7l0.4,0
		c3.7,0.3,5.6,0.4,9.3,0.8l0.5,0l0-5.9l-2.8-0.2l-0.1-16.3L276,52.6z M97.2,78.2l2.9-0.1l0-12.2l0-12.1l-2.9-0.1l0-12.9
		c6.8,0.6,10.3,0.9,17.1,1.5l0,12.1l-2.8-0.1l0,11.7l0,11.7l2.8-0.1l0,12c-6.8,0.5-10.3,0.8-17.1,1.5L97.2,78.2z M100,81.6l0,5.5
		l0.5,0c4.2-0.3,6.3-0.5,10.6-0.8l0.4,0l0-5.4l-2.8,0.1l0.1-15.3l-0.1-15.2l2.8,0.1l0-5.4l-0.4,0c-4.2-0.3-6.3-0.4-10.6-0.8l-0.5,0
		l0,5.6l2.9,0.2l0.1,15.5l-0.1,15.6L100,81.6z M262.3,90.1c-6.7-0.6-10.3-0.8-17.1-1.3l0-11.6l2.9,0.1l0-11.4l0-11.3l-2.9,0.1
		l0-11.7c6.8-0.5,10.3-0.7,17.1-1.3l0,12.4l-2.8,0.1l0,11.7l0,11.8l2.8,0.1L262.3,90.1z M248.1,85.7l0.4,0c4.2,0.2,6.3,0.4,10.6,0.7
		l0.4,0l0-5.4l-2.8-0.1l-0.1-15l0.1-14.9l2.8-0.1l0-5.4l-0.4,0c-4.2,0.3-6.3,0.4-10.6,0.7l-0.4,0l0,5.3l2.9-0.1l-0.1,14.7l0.1,14.7
		l-2.9-0.1L248.1,85.7z M117.8,77.3l2.8-0.1l0-11.3l0-11.2l-2.8-0.1l0-11.8c9.7,0.7,14.6,1,24.4,1.4c2.7,3,4.1,4.5,6.9,7.6l0,11.9
		c-0.7,0.7-3.1,3-3.9,3.8l-0.2,0.2L145,68c1.4,3.3,2,4.9,3.4,8.2l0.1,0.3l3.5-0.1l0,10.7c-6.2,0.2-9.4,0.4-15.5,0.7l0-10.2l1.4,0
		l-0.3-0.6c-1-2.2-1.6-3.4-2.6-5.6l-0.1-0.2l-2.8,0l0,6.6l2-0.1l0,10.3c-6.4,0.4-9.8,0.6-16.2,1L117.8,77.3z M120.6,80.3l0,5.2
		l0.4,0c3.9-0.2,5.8-0.3,9.7-0.5l0.4,0l0-5.1l-2,0.1l0-11.6l7.2,0c1.9,4.5,2.9,6.9,4.8,11.2l-2.1,0.1l0,5l0.4,0
		c3.7-0.2,5.5-0.2,9.2-0.3l0.4,0l0-4.9l-2.2,0.1c-2.1-4.8-3.2-7.2-5.3-11.9l1.2-1.3c1.2-1.3,1.8-2,3.1-3.2l0.1-0.1l0-9.8l-0.1-0.1
		c-2-2.2-3-3.3-5-5.6l-0.1-0.1l-0.2,0c-7.9-0.3-11.8-0.5-19.7-0.9l-0.4,0l0,5.2l2.7,0.1l0.1,14.3l-0.1,14.3L120.6,80.3z M242.6,88.4
		c-12.6-0.8-19-1.1-31.6-1.5l0-10.6l2.9,0l0-10.5l0-10.4h-0.4l-2.5,0l0-10.7c7.2-0.2,10.9-0.4,18-0.7l0,11.1l-3.8,0.1l0,10.6l0,10.7
		l0.4,0c2.1,0,3.1,0.1,5.2,0.1l0.4,0l0-7c4.4,0,6.9,0.1,11.3,0.1L242.6,88.4z M213.8,84.1l0.4,0c10.1,0.3,15,0.5,25.1,1l0.4,0
		l0-12.2l-6.1-0.1l0,7.1c-4.4-0.2-6.8-0.2-11.3-0.3l0-13.6l0-13.5c1.3,0,3.8-0.1,3.8-0.1l0-5l-0.4,0c-4.6,0.2-6.9,0.3-11.5,0.4
		l-0.4,0l0,4.9l2.9-0.1l0,13.4l0,13.4l-2.9-0.1L213.8,84.1z M154.7,76.3l2.9,0l0-10.4l0-10.3l-2.9,0l0-10.7
		c6.8,0.2,10.3,0.3,17.1,0.4l0,10.5l-2.8,0l0,10.2l0,10.2l2.8,0l0,10.4c-6.8,0.1-10.3,0.2-17.1,0.4L154.7,76.3z M157.5,79.1l0,4.8
		l0.4,0c4.2-0.1,6.4-0.1,10.6-0.2l0.4,0l0-4.8l-2.8,0l0-13.1l0-13l2.8,0l0-4.8l-0.4,0c-4.2-0.1-6.4-0.1-10.6-0.2l-0.4,0l0,4.9l2.9,0
		l0,13.1l0,13.2L157.5,79.1z M199.8,86.6c-6.7-0.1-10.2-0.1-17-0.1V76.1l2.9,0V55.8l-2.3,0v4.1l-2,0c-2.4,0-4.3,0-7.1,0l0-14.6
		c4,0,7.4,0,10.5,0c7.4,0,13.7-0.1,23.8-0.4l0,14.8c-3.6,0-5.7,0-9.3,0.1l0-4.2l-2.3,0l0,10.2l0,10.2l2.8,0L199.8,86.6z M185.6,83.6
		l0.4,0c4.2,0,6.3,0,10.5,0.1l0.4,0l0-4.8l-2.8,0l0-13l0-13c2.9,0,4.6,0,7.5-0.1l0,4.3l4.1,0l0-9.2l-0.4,0
		c-8.9,0.2-14.1,0.2-20.9,0.2c-2.2,0-4.5,0-7.1,0l-0.4,0l0,9.1l4.1,0V53l1.9,0c1.8,0,3.3,0,5.5,0l0,12.9l0,13l-2.8,0L185.6,83.6z
		 M75.4,48.3c3.6,0.3,5.6,0.4,9.3,0.7c0.8,1.1,1.2,1.6,2,2.7l0,11.5c-0.7,0.9-1.1,1.5-1.9,2.5l-0.1,0.1l-9.3,0L75.4,48.3z
		 M78.3,61.7l5.6,0.1l0-8.9l-5.6-0.3L78.3,61.7z M129.2,63.4l0-11.6c3.5,0.1,5.5,0.2,9.1,0.3c0.9,0.8,1.3,1.3,2.2,2.1l0,6.7
		c-0.9,1-1.3,1.5-2.2,2.5L129.2,63.4z M132,60.2l5.6,0.1l0-5.1L132,55L132,60.2z"/>
</g>
</svg>
