<?xml version="1.0" encoding="utf-8"?>
<!-- Generator: Adobe Illustrator 19.1.0, SVG Export Plug-In . SVG Version: 6.00 Build 0)  -->
<svg version="1.1" id="ELEMENTS" xmlns="http://www.w3.org/2000/svg" xmlns:xlink="http://www.w3.org/1999/xlink" x="0px" y="0px"
	 viewBox="0 0 30.9 30.3" style="enable-background:new 0 0 30.9 30.3;" xml:space="preserve">
<style type="text/css">
	.st0{fill-rule:evenodd;clip-rule:evenodd;fill:#0d376;}
</style>
<path class="st0" d="M28.5,10.9c-0.4,0.2-1.1,0.1-1.6,0.1c-0.4,0-0.9,0.1-1.3,0c-0.4-0.1-0.9,0.1-1.3,0.1c-0.5,0-1,0-1.5,0
	c-0.5,0-0.9,0.1-1.4,0.1c-0.2,0-0.7-0.1-0.8,0c-0.2,0.1-0.7,0-1,0.1c-0.4,0-0.6,0.1-0.9-0.2c-0.2-0.3-0.3-0.7-0.4-1.1
	c-0.1-0.2-0.2-0.6-0.2-0.8c-0.2-0.9-0.7-1.9-1-2.8c-0.3-0.7-0.5-1.4-0.8-2.1c-0.2-0.5-0.3-1-0.4-1.5c-0.1-0.3-0.1-0.8-0.3-1
	c-0.4-0.7-0.9,1.4-1.1,1.7C14.3,4.2,14,5.2,13.7,6c-0.3,0.9-0.6,1.7-0.8,2.6c-0.1,0.5-0.2,0.9-0.4,1.3c-0.1,0.4-0.3,1-0.5,1.4
	c-0.4-0.2-1,0-1.5,0c-0.6,0-1.2,0-1.8,0c-1.2,0-2.3,0.1-3.5,0.2c-1.1,0.1-2.2,0.3-3.4,0.4c-0.7,0,0,0.7,0.2,0.8
	c0.4,0.2,0.8,0.6,1.2,0.7c0.6,0.2,1.2,0.7,1.7,1.1c0.5,0.4,1.1,0.7,1.6,1.1c0.4,0.4,0.9,0.6,1.3,0.9c0.4,0.3,0.8,0.6,1.1,0.8
	c0.4,0.2,0.4,0.3,0.3,0.7c-0.1,0.2-0.1,0.4-0.1,0.6C9.3,19.4,9,20,8.9,20.6C8.7,21.7,8.3,22.8,8,24c-0.1,0.5-0.2,1-0.3,1.5
	c-0.1,0.4-0.2,0.9-0.3,1.3c-0.1,0.3-0.1,0.8-0.2,1.2c-0.1,0.3-0.1,0.3,0,0.5c0.1,0.2,0.3,0.1,0.4,0c0.3-0.3,0.8-0.4,1-0.7
	c0.1-0.2,0.4-0.4,0.6-0.5c0.7-0.4,1.1-0.9,1.8-1.4c1.2-0.9,2.6-1.6,3.7-2.7c0.3-0.3,0.6-0.3,0.8-0.6c0.1-0.1,1,0.5,1.1,0.6
	c0.7,0.4,1.4,1.1,2.1,1.4c1.6,0.8,3,2.1,4.6,3c0.5,0.3,0.9,0.6,1.4,1c0.2,0.2,0.6,0.3,0.5-0.1c0-0.3-0.4-0.8-0.5-1.1
	c-0.1-0.4-0.3-0.7-0.4-1.1c-0.6-1.5-1.1-3-1.7-4.6c-0.3-0.7-0.6-1.5-0.8-2.3c-0.1-0.4-0.2-0.7-0.3-1.1c-0.1-0.4,0.2-0.6,0.5-0.8
	c1.6-1.2,3.1-2.5,4.6-3.8c0.6-0.5,1.3-1.2,2-1.7c0.2-0.1,0.7-0.3,0.7-0.6C29.3,10.9,28.6,11.2,28.5,10.9z"/>
</svg>
