<?xml version="1.0" encoding="utf-8"?>
<!-- Generator: Adobe Illustrator 19.1.0, SVG Export Plug-In . SVG Version: 6.00 Build 0)  -->
<svg version="1.1" id="Layer_1" xmlns="http://www.w3.org/2000/svg" xmlns:xlink="http://www.w3.org/1999/xlink" x="0px" y="0px"
	 viewBox="0 0 389.6 116.5" style="enable-background:new 0 0 389.6 116.5;" xml:space="preserve">
<style type="text/css">
	.st0{fill:#C09C6E;}
	.st1{fill:#1E1E1E;}
	.st2{fill:#FFFFFF;}
</style>
<g>
	<ellipse class="st0" cx="16" cy="99.9" rx="4.4" ry="4.4"/>
	<g>
		<g>
			<path class="st1" d="M31.6,66.2c0,5.1-4.2,9-11,9c-2.7,0-5.6-0.7-7.7-1.9c-0.3-0.2-0.4-0.4-0.5-1l-0.5-7.5
				c-0.1-0.3,0.5-0.4,0.6-0.1c1.3,4.3,4,9.5,9.3,9.5c2.9,0,5.8-1.3,5.8-5.6c0-9.9-14.9-9.3-14.9-18.9c0-5.6,5.2-8.2,10.1-8.2
				c2.1,0,4.4,0.4,6.3,1.2c0.5,0.3,0.8,0.6,0.8,0.9l0.2,6.5c0,0.3-0.5,0.4-0.6,0.1c-0.5-2.4-2.5-7.8-7.8-7.8c-3.6,0-5.4,2.5-5.4,5.5
				C16.4,56.6,31.6,56.5,31.6,66.2z"/>
			<path class="st1" d="M35.7,50.6c0,0.2-0.6,0.2-0.6-0.1c0.3-1.8,0.8-7.3,0.8-9.7c0-0.3,0.6-0.4,0.6,0c0,1,1.9,1.1,2.8,1.1
				c3,0.1,6.6,0.2,10.5,0.2c4.9,0,7.4-0.2,10.1-0.2c2.4,0,3.6-0.2,4-1.3c0.1-0.3,0.6-0.3,0.6,0c-0.3,2.2-0.5,8.2-0.5,9.9
				c0,0.2-0.6,0.2-0.6,0c-0.5-5.4-2.7-7.6-7.2-7.6c-3.7,0-4.2,0.4-4.2,3.3v24.1c0,3,0.6,3.6,4.9,3.6c0.2,0,0.2,0.6,0,0.6
				c-1.9,0-4.2-0.1-7-0.1c-2.6,0-5.1,0.1-6.9,0.1c-0.2,0-0.2-0.6,0-0.6c4.1,0,4.9-0.6,4.9-3.6V46.2c0-2.9-0.7-3.2-4.3-3.2
				C39.2,43,36.9,45.3,35.7,50.6z"/>
			<path class="st1" d="M104.3,74.6c-1.4,0-2.7-0.1-4.3-0.1c-1.3,0-1.9,0.1-3,0.1c-0.9,0-1-0.1-1-1v-3.9c-4.1,3.8-7.8,5.5-12.4,5.5
				c-6.7,0-11.7-4-11.7-10.3V46.2c0-3-0.6-3.6-4.2-3.6c-0.2,0-0.2-0.6,0-0.6c1.7,0,3.9,0.2,6.3,0.2c2.5,0,4.6-0.2,6.3-0.2
				c0.2,0,0.2,0.6,0,0.6c-3.6,0-4.2,0.7-4.2,3.7v16.8c0,6.9,3.7,10.5,9.2,10.5c3.7,0,6.9-1.4,10.8-5V46.3c0-3-0.6-3.7-4.2-3.7
				c-0.2,0-0.2-0.6,0-0.6c1.7,0,3.9,0.2,6.2,0.2c2.4,0,4.6-0.2,6.3-0.2c0.2,0,0.2,0.6,0,0.6c-3.6,0-4.3,0.6-4.3,3.6v24.2
				c0,3,0.7,3.6,4.3,3.6C104.5,74,104.5,74.6,104.3,74.6z"/>
			<path class="st1" d="M148.9,74.6c-1.7,0-4-0.1-6.3-0.1c-2.4,0-4.4,0.1-6,0.1c-0.2,0-0.2-0.6,0-0.6c3.3,0,4-0.6,3.9-3.6l-1-23
				l-11.5,26.8c-0.1,0.3-0.7,0.3-0.8,0l-13-26.6l-0.4,21c-0.1,3.7,1.2,5.4,4.4,5.4c0.2,0,0.2,0.6,0,0.6c-1.6,0-3.1-0.1-5.1-0.1
				c-1.9,0-3.6,0.1-5,0.1c-0.2,0-0.2-0.6,0-0.6c2.9,0,4.3-1.7,4.4-5.4l0.5-23.4c-1.1-1.8-2.6-2.6-4.5-2.6c-0.2,0-0.2-0.6,0-0.6
				c1.3,0,2.8,0.1,3.7,0.1c1.3,0,2.5-0.1,3-0.1c0.9,0,1.3,0.5,2.4,2.7l11.6,23.5l10.9-24.9c0.4-0.9,0.9-1.3,1.6-1.3
				c0.5,0,1.2,0.1,2.2,0.1c2,0,3.1-0.1,4.5-0.1c0.2,0,0.2,0.6,0,0.6c-3.3,0-4.9,0.9-4.7,3.8l1.1,24c0.2,3,0.7,3.6,4.3,3.6
				C149.1,74,149.1,74.6,148.9,74.6z"/>
			<path class="st1" d="M167.8,74c0.2,0,0.2,0.6,0,0.6c-2.3,0-4.9-0.1-7.9-0.1c-2.4,0-4.6,0.1-6.3,0.1c-0.2,0-0.2-0.6,0-0.6
				c3.6,0,4.2-0.6,4.2-3.6V46.2c0-3-0.6-3.6-4.2-3.6c-0.2,0-0.2-0.6,0-0.6c1.7,0,3.9,0.2,6.3,0.2c1.7,0,4.6-0.3,7.2-0.3
				c6.1,0,10.7,2.5,10.9,8.6c0.1,7.3-6.2,10.5-11.5,10.5c-0.8,0-1.7-0.1-2.5-0.3c-0.3-0.1-0.1-0.7,0.1-0.7c0.6,0.2,1.4,0.2,1.9,0.2
				c3.8,0,7.4-2.8,7.4-8.7c0-5.6-3.1-8.8-7.6-8.8c-3,0-3.7,0.4-3.7,3.6v23.8C161.9,73.3,162.7,74,167.8,74z"/>
			<path class="st1" d="M202.2,66.2c0,5.1-4.2,9-11,9c-2.7,0-5.6-0.7-7.7-1.9c-0.3-0.2-0.4-0.4-0.5-1l-0.5-7.5
				c-0.1-0.3,0.5-0.4,0.6-0.1c1.3,4.3,4,9.5,9.3,9.5c2.9,0,5.8-1.3,5.8-5.6c0-9.9-14.9-9.3-14.9-18.9c0-5.6,5.2-8.2,10.1-8.2
				c2.1,0,4.4,0.4,6.3,1.2c0.5,0.3,0.8,0.6,0.8,0.9l0.2,6.5c0,0.3-0.5,0.4-0.6,0.1c-0.5-2.4-2.5-7.8-7.8-7.8c-3.6,0-5.4,2.5-5.4,5.5
				C187,56.6,202.2,56.5,202.2,66.2z"/>
			<path class="st1" d="M238.4,74c0.2,0,0.2,0.6,0,0.6c-2.3,0-4.9-0.1-7.9-0.1c-2.4,0-4.6,0.1-6.3,0.1c-0.2,0-0.2-0.6,0-0.6
				c3.6,0,4.2-0.6,4.2-3.6V46.2c0-3-0.6-3.6-4.2-3.6c-0.2,0-0.2-0.6,0-0.6c1.7,0,3.9,0.2,6.3,0.2c1.7,0,4.6-0.3,7.2-0.3
				c6.1,0,10.7,2.5,10.9,8.6c0.1,7.3-6.2,10.5-11.5,10.5c-0.8,0-1.7-0.1-2.5-0.3c-0.3-0.1-0.1-0.7,0.1-0.7c0.6,0.2,1.4,0.2,1.9,0.2
				c3.8,0,7.4-2.8,7.4-8.7c0-5.6-3.1-8.8-7.6-8.8c-3,0-3.7,0.4-3.7,3.6v23.8C232.5,73.3,233.3,74,238.4,74z"/>
			<path class="st1" d="M282.9,74c-2,0-3.4-1.4-5.8-6.5l-12.5-25.8c-0.1-0.2-0.7-0.2-0.8,0l-11.1,25.6c-2.3,5.4-3.8,6.7-6.5,6.7
				c-0.3,0-0.3,0.6,0,0.6c2.2,0,3.3-0.2,5.9-0.2c2.7,0,4.1,0.2,6.2,0.2c0.3,0,0.3-0.6,0-0.6c-4.4,0-6.2-2-4.3-6.2l2.6-6.1h13.1
				l4,8.4c1.5,3.1,0.9,4-2.6,4c-0.3,0-0.3,0.6,0,0.6c2,0,3.4-0.2,5.6-0.2c2,0,4.2,0.2,6.2,0.2C283.2,74.6,283.2,74,282.9,74z
				 M257.1,60.5l5.7-13.1l6.3,13.1H257.1z"/>
			<path class="st1" d="M316.6,74.6h-7.7c-1.7,0-6.4-6.4-12.7-16.7c-0.8,0.2-1.6,0.3-2.3,0.3c-0.8,0-1.8-0.1-2.6-0.1v12.3
				c0,3,0.6,3.6,4.2,3.6c0.2,0,0.2,0.6,0,0.6c-1.7,0-3.8-0.1-6.3-0.1c-2.3,0-4.6,0.1-6.3,0.1c-0.2,0-0.2-0.6,0-0.6
				c3.6,0,4.3-0.6,4.3-3.6V46.2c0-3-0.6-3.6-4.2-3.6c-0.2,0-0.2-0.6,0-0.6c1.7,0,3.9,0.2,6.3,0.2c1.9,0,4.6-0.3,6.5-0.3
				c5.9,0,9.2,2.5,9.2,6.6c0,3.3-2.2,6.4-5.3,8.2c8.5,12.9,12.7,17.4,17,17.4C316.8,74,316.8,74.6,316.6,74.6z M294.3,56.9
				c4.4,0,6.2-1.7,6.2-6.6c0-5.9-2.6-7.6-5.9-7.6c-2.5,0-3.4,0.5-3.4,3.6v10.4C292.2,56.9,293.4,56.9,294.3,56.9z"/>
			<path class="st1" d="M313.2,50.6c0,0.2-0.6,0.2-0.6-0.1c0.3-1.8,0.8-7.3,0.8-9.7c0-0.3,0.6-0.4,0.6,0c0,1,1.9,1.1,2.8,1.1
				c3,0.1,6.6,0.2,10.5,0.2c4.9,0,7.4-0.2,10.1-0.2c2.4,0,3.6-0.2,4-1.3c0.1-0.3,0.6-0.3,0.6,0c-0.3,2.2-0.5,8.2-0.5,9.9
				c0,0.2-0.6,0.2-0.6,0c-0.5-5.4-2.7-7.6-7.2-7.6c-3.7,0-4.2,0.4-4.2,3.3v24.1c0,3,0.6,3.6,4.9,3.6c0.2,0,0.2,0.6,0,0.6
				c-1.9,0-4.2-0.1-7-0.1c-2.6,0-5.1,0.1-6.9,0.1c-0.2,0-0.2-0.6,0-0.6c4.1,0,4.9-0.6,4.9-3.6V46.2c0-2.9-0.7-3.2-4.3-3.2
				C316.7,43,314.4,45.3,313.2,50.6z"/>
			<path class="st1" d="M376.1,42.6c-2.3,0-5.3,2.2-7.5,5.8l-6.5,10.3v11.7c0,3,0.6,3.6,4.2,3.6c0.2,0,0.2,0.6,0,0.6
				c-1.7,0-3.8-0.1-6.3-0.1c-2.3,0-4.6,0.1-6.3,0.1c-0.2,0-0.2-0.6,0-0.6c3.6,0,4.3-0.6,4.3-3.6V59.5l-8.3-12.4
				c-2.3-3.4-3.8-4.5-5.7-4.5c-0.2,0-0.2-0.6,0-0.6c1.1,0,2.4,0.2,3.5,0.2c2.8,0,5.9-0.2,7.7-0.2c0.2,0,0.2,0.6,0,0.6
				c-2.5,0-3,1-1.8,2.7l8,12l5.8-9.2c2.1-3.4,1.6-5.5-1.6-5.5c-0.2,0-0.2-0.6,0-0.6c2,0,3.4,0.2,6.4,0.2c1.7,0,2.5-0.2,4-0.2
				C376.3,42,376.3,42.6,376.1,42.6z"/>
		</g>
		<g>
			<rect x="11.6" y="26.9" class="st1" width="364.8" height="5.1"/>
			<ellipse class="st0" cx="16" cy="16.6" rx="4.4" ry="4.4"/>
			<ellipse class="st0" cx="32.1" cy="16.6" rx="4.4" ry="4.4"/>
			<ellipse class="st0" cx="48.3" cy="16.6" rx="4.4" ry="4.4"/>
			<ellipse class="st0" cx="64.5" cy="16.6" rx="4.4" ry="4.4"/>
			<ellipse class="st0" cx="80.6" cy="16.6" rx="4.4" ry="4.4"/>
			<ellipse class="st0" cx="96.8" cy="16.6" rx="4.4" ry="4.4"/>
			<ellipse class="st0" cx="113" cy="16.6" rx="4.4" ry="4.4"/>
			<ellipse class="st0" cx="129.1" cy="16.6" rx="4.4" ry="4.4"/>
			<ellipse class="st0" cx="145.3" cy="16.6" rx="4.4" ry="4.4"/>
			<ellipse class="st0" cx="161.5" cy="16.6" rx="4.4" ry="4.4"/>
			<ellipse class="st0" cx="177.6" cy="16.6" rx="4.4" ry="4.4"/>
			<ellipse class="st0" cx="193.8" cy="16.6" rx="4.4" ry="4.4"/>
			<ellipse class="st0" cx="210" cy="16.6" rx="4.4" ry="4.4"/>
			<ellipse class="st0" cx="226.1" cy="16.6" rx="4.4" ry="4.4"/>
			<ellipse class="st0" cx="242.3" cy="16.6" rx="4.4" ry="4.4"/>
			<ellipse class="st0" cx="258.5" cy="16.6" rx="4.4" ry="4.4"/>
			<ellipse class="st0" cx="274.6" cy="16.6" rx="4.4" ry="4.4"/>
			<ellipse class="st0" cx="290.8" cy="16.6" rx="4.4" ry="4.4"/>
			<ellipse class="st0" cx="307" cy="16.6" rx="4.4" ry="4.4"/>
			<ellipse class="st0" cx="323.1" cy="16.6" rx="4.4" ry="4.4"/>
			<ellipse class="st0" cx="339.3" cy="16.6" rx="4.4" ry="4.4"/>
			<ellipse class="st0" cx="355.5" cy="16.6" rx="4.4" ry="4.4"/>
			<ellipse class="st0" cx="371.6" cy="16.6" rx="4.4" ry="4.4"/>
		</g>
		<rect x="11.6" y="84.4" class="st1" width="364.8" height="5.1"/>
		<ellipse class="st0" cx="32.1" cy="99.9" rx="4.4" ry="4.4"/>
		<ellipse class="st0" cx="48.3" cy="99.9" rx="4.4" ry="4.4"/>
		<ellipse class="st0" cx="64.5" cy="99.9" rx="4.4" ry="4.4"/>
		<ellipse class="st0" cx="80.6" cy="99.9" rx="4.4" ry="4.4"/>
		<ellipse class="st0" cx="96.8" cy="99.9" rx="4.4" ry="4.4"/>
		<ellipse class="st0" cx="113" cy="99.9" rx="4.4" ry="4.4"/>
		<ellipse class="st0" cx="129.1" cy="99.9" rx="4.4" ry="4.4"/>
		<ellipse class="st0" cx="145.3" cy="99.9" rx="4.4" ry="4.4"/>
		<ellipse class="st0" cx="161.5" cy="99.9" rx="4.4" ry="4.4"/>
		<ellipse class="st0" cx="177.6" cy="99.9" rx="4.4" ry="4.4"/>
		<ellipse class="st0" cx="193.8" cy="99.9" rx="4.4" ry="4.4"/>
		<ellipse class="st0" cx="210" cy="99.9" rx="4.4" ry="4.4"/>
		<ellipse class="st0" cx="226.1" cy="99.9" rx="4.4" ry="4.4"/>
		<ellipse class="st0" cx="242.3" cy="99.9" rx="4.4" ry="4.4"/>
		<ellipse class="st0" cx="258.5" cy="99.9" rx="4.4" ry="4.4"/>
		<ellipse class="st0" cx="274.6" cy="99.9" rx="4.4" ry="4.4"/>
		<ellipse class="st0" cx="290.8" cy="99.9" rx="4.4" ry="4.4"/>
		<ellipse class="st0" cx="307" cy="99.9" rx="4.4" ry="4.4"/>
		<ellipse class="st0" cx="323.1" cy="99.9" rx="4.4" ry="4.4"/>
		<ellipse class="st0" cx="339.3" cy="99.9" rx="4.4" ry="4.4"/>
		<ellipse class="st0" cx="355.5" cy="99.9" rx="4.4" ry="4.4"/>
		<ellipse class="st0" cx="371.6" cy="99.9" rx="4.4" ry="4.4"/>
		<g>
			<path class="st2" d="M382.6,42.6h-1.9v5.2H380v-5.2h-1.9V42h4.5V42.6z"/>
			<path class="st2" d="M383.6,42h1l2,4.5h0l2-4.5h1v5.8h-0.7v-4.9h0l-2.1,4.9h-0.4l-2.1-4.9h0v4.9h-0.7V42z"/>
		</g>
	</g>
</g>
</svg>
