<svg width="100" height="74" xmlns="http://www.w3.org/2000/svg">
 <style type="text/css">.st0{fill:#0d3762;}</style>

 <g>
  <title>background</title>
  <rect fill="none" id="canvas_background" height="76" width="102" y="-1" x="-1"/>
 </g>
 <g>
  <title>Layer 1</title>
  <g id="svg_1">
   <path id="svg_2" d="m76.3,26.5c-0.7,-0.7 -1.8,-1.1 -2.7,-1.1l-1.2,0c-1.9,0 -3.5,1.6 -3.5,3.5l0,12.6c0,1.9 1.6,3.5 3.5,3.5l11.7,0c1.9,0 3.5,-1.6 3.5,-3.5l0,-2.2c0,-0.9 -0.5,-2.1 -1.1,-2.7l-10.2,-10.1zm8.1,15c0,0.2 -0.1,0.3 -0.3,0.3l-11.7,0c-0.2,0 -0.3,-0.1 -0.3,-0.3l0,-12.6c0,-0.2 0.1,-0.3 0.3,-0.3l1.2,0c0.1,0 0.4,0.1 0.5,0.2l10.1,10.1c0.1,0.1 0.2,0.4 0.2,0.5l0,2.1z" class="st0"/>
   <path id="svg_3" d="m79.8,20.1c-1.3,-1.3 -3.6,-2.2 -5.4,-2.2l-9.7,0l0,-5.6c0,-5.1 -4.2,-9.3 -9.3,-9.3l-41,0c-5.2,0 -9.4,4.2 -9.4,9.3l0,46.5c0,3.5 2.9,6.4 6.4,6.4l6.4,0c0.8,4.7 4.9,8.4 9.8,8.4s9.1,-3.6 9.8,-8.4l28.9,0c0.8,4.7 4.9,8.4 9.8,8.4s9.1,-3.6 9.8,-8.4l2.4,0c3.5,0 6.4,-2.9 6.4,-6.4l0,-20.3c0,-1.8 -1,-4.1 -2.2,-5.4l-12.7,-13zm-71.6,-7.8c0,-3.4 2.7,-6.1 6.1,-6.1l41,0c3.4,0 6.1,2.7 6.1,6.1l0,34.6c0,0.3 -0.2,0.5 -0.5,0.5l-52.7,0l0,-35.1zm19.5,58.1c-3.7,0 -6.8,-3 -6.8,-6.8c0,-3.7 3,-6.8 6.8,-6.8s6.8,3 6.8,6.8c0,3.8 -3.1,6.8 -6.8,6.8zm48.6,0c-3.7,0 -6.8,-3 -6.8,-6.8c0,-3.7 3,-6.8 6.8,-6.8c3.7,0 6.8,3 6.8,6.8c0,3.8 -3,6.8 -6.8,6.8zm15.5,-11.6c0,1.8 -1.4,3.2 -3.2,3.2l-2.4,0c-0.8,-4.7 -4.9,-8.4 -9.8,-8.4s-9.1,3.6 -9.8,8.4l-29.1,0c-0.8,-4.7 -4.9,-8.4 -9.8,-8.4s-9.1,3.6 -9.8,8.4l-6.4,0c-1.8,0 -3.2,-1.4 -3.2,-3.2l0,-8.1l52.8,0c2,0 3.7,-1.7 3.7,-3.7l0,-25.9l9.7,0c1,0 2.5,0.6 3.2,1.3l13,13c0.7,0.7 1.3,2.2 1.3,3.2l0,20.2l-0.2,0z" class="st0"/>
  </g>
 </g>
</svg>