<?xml version="1.0" encoding="utf-8"?>
<!-- Generator: Adobe Illustrator 19.1.0, SVG Export Plug-In . SVG Version: 6.00 Build 0)  -->
<svg version="1.1" id="Layer_1" xmlns="http://www.w3.org/2000/svg" xmlns:xlink="http://www.w3.org/1999/xlink" x="0px" y="0px"
	 viewBox="0 0 90 112.5" style="enable-background:new 0 0 90 112.5;" xml:space="preserve">
<style type="text/css">
	.st0{fill:#fff;}
</style>
<g>
	<g>
		<path class="st0" d="M15.5,99.5c-2.2,0-4-1.8-4-4v-6.1c0-9.4,8.7-12.9,15.7-15.8c3.8-1.5,8.1-3.2,9.2-5.7
			c-1.9-2.3-2.6-5.5-3.2-8.4c0-0.2-0.1-0.4-0.2-0.6c-0.1-0.3-0.2-0.6-0.2-1c-3-5.5-2.2-8.3-1.3-9.5c-0.6-1.3-1.5-3.8-0.8-6.5
			c0.5-2,1.7-3.6,3.4-4.8l1.5-22.7c0.1-0.7,0.5-1.1,1.1-1.3c0.2-0.1,0.3-0.1,0.5-0.1c0.4,0,0.8,0.2,1.1,0.6l13.3,16.6
			c3.4,0.4,5.6,1.6,6.6,3.4c2.4,4.2,1,10.8,0.4,13.6c0,0.2-0.1,0.4-0.1,0.5c0,0.2,0,0.3-0.1,0.4c1,1.2,2,4-1.2,9.9
			c-0.1,0.4-0.2,0.9-0.3,1.3l0,0.2c-0.7,3-1.3,6.1-3.2,8.4c1,2.3,4.7,3.8,8.6,5.4l0.6,0.3c7,2.8,15.7,6.4,15.7,15.7v6.1
			c0,2.2-1.8,4-4,4H15.5z M39.5,68.4c-1.2,4.1-5.9,6-10.8,8l-0.3,0.1c-6.4,2.6-13.7,5.4-13.7,12.9v6.1c0,0.4,0.4,0.9,0.9,0.9h58.9
			c0.4,0,0.7-0.2,0.9-0.6h-0.2v-6.7c0-7.3-6.9-10.1-13.7-12.9l0-0.3l-0.1,0.3c-5.2-2.1-10.1-4.1-11.1-8.3l0-0.1
			c-0.2-0.6-0.1-1.3,0.4-1.7c1.7-1.6,2.4-4.2,3.1-7.5c0.1-0.4,0.2-0.7,0.3-1c0.1-0.3,0.1-0.6,0.2-0.9c0.1-0.3,0.2-0.5,0.4-0.6
			c2.2-4.2,1.6-6,1.2-6.4c-0.4-0.2-0.7-0.7-0.7-1.2c0-0.4,0.1-1.1,0.3-2.2c0.6-2.7,1.7-8.2-0.1-11.4c-0.3-0.4-0.7-0.7-1.3-1.1
			c0,0.1,0,0.3-0.1,0.4c-0.1,0.5-0.5,0.9-1,1l-17.3,5.2c-0.2,0.1-0.3,0.1-0.4,0.1c-0.3,0-0.5-0.1-0.6-0.1c-0.6,0.7-1,1.4-1.2,2.1
			c-0.6,2.1,0.4,4.3,1,5.2c0.3,0.4,0.4,0.9,0.2,1.2c-0.1,0.5-0.4,0.7-0.7,0.9c-0.3,0.3-0.8,2.2,1.4,6.4c0.2,0.2,0.4,0.4,0.4,0.7
			c0.2,0.6,0.4,1.3,0.5,2c0.7,3.3,1.4,5.9,3.1,7.5c0.5,0.5,0.6,1.1,0.4,1.7C39.6,68.3,39.5,68.3,39.5,68.4z M38.1,36.8l12-3.6
			l-3.8-4.7L38.1,36.8z M37.3,33.3l7.2-7.2L42,23.1l-4.3,4.3L37.3,33.3z M38,22.9l2.1-2.1l-1.8-2.2L38,22.9z"/>
	</g>
</g>
</svg>
