<?xml version="1.0" encoding="utf-8"?>
<!-- Generator: Adobe Illustrator 19.1.0, SVG Export Plug-In . SVG Version: 6.00 Build 0)  -->
<svg version="1.1" id="Layer_1" xmlns="http://www.w3.org/2000/svg" xmlns:xlink="http://www.w3.org/1999/xlink" x="0px" y="0px"
	 viewBox="0 0 28.1 25.1" style="enable-background:new 0 0 28.1 25.1;" xml:space="preserve">
<style type="text/css">
	.st0{fill:#D61C58;}
	.st1{fill:#163962;}
</style>
<path class="st0" d="M28.1,7.7c-0.4-3.5-3.2-6.4-6.7-6.8c-2.3-0.3-4.6,0.4-6.3,2c-1.7-1.6-4-2.3-6.3-2C5.1,1.3,2.3,4.2,1.9,7.7
	c-0.3,2.3,0.5,4.5,2,6.3l9.7,9.8c0.4,0.4,0.8,0.6,1.3,0.6c0.5,0,1-0.2,1.3-0.6L26,14C27.6,12.3,28.3,10,28.1,7.7z M24.1,7.6l-2,1.9
	l0.5,2.7c0,0.1,0,0.1-0.1,0.1L20,11.1l-2.4,1.3c0,0-0.1,0-0.1-0.1L18,9.5l-2-1.9c0,0,0-0.1,0-0.1l2.7-0.4L20,4.6
	c0-0.1,0.1-0.1,0.1,0l1.2,2.5L24,7.5C24.1,7.5,24.1,7.6,24.1,7.6z"/>
<rect x="-15.3" y="6.3" class="st1" width="5.7" height="7"/>
</svg>
