<?xml version="1.0" encoding="utf-8"?>
<!-- Generator: Adobe Illustrator 19.1.0, SVG Export Plug-In . SVG Version: 6.00 Build 0)  -->
<svg version="1.1" id="Layer_1" xmlns="http://www.w3.org/2000/svg" xmlns:xlink="http://www.w3.org/1999/xlink" x="0px" y="0px"
	 viewBox="0 0 14.5 13" style="enable-background:new 0 0 14.5 13;" xml:space="preserve">
<style type="text/css">
	.st0{fill:#163962;}
</style>
<g>
	<path class="st0" d="M7.3,12.2c-0.2,0-0.5-0.1-0.6-0.3L2,7.2c-0.8-0.8-1.1-1.9-1-3c0.2-1.7,1.6-3.1,3.2-3.3c1.1-0.1,2.2,0.2,3,1
		c0.8-0.8,1.9-1.1,3-1c1.7,0.2,3,1.6,3.2,3.3c0.1,1.1-0.2,2.2-1,3l-4.7,4.7C7.7,12.1,7.5,12.2,7.3,12.2 M4.7,1.6c-0.1,0-0.3,0-0.4,0
		C2.9,1.8,1.8,2.9,1.7,4.3C1.6,5.2,1.9,6,2.5,6.7l4.6,4.7c0.1,0.1,0.2,0.1,0.3,0l4.7-4.7c0.6-0.7,0.9-1.5,0.8-2.4
		c-0.2-1.4-1.3-2.5-2.6-2.7c-1-0.1-2,0.2-2.7,1L7.3,2.9L7,2.6C6.4,1.9,5.6,1.6,4.7,1.6"/>
	<path class="st0" d="M10.7,3.1l0.4,0.7l0.8,0.1c0,0,0,0,0,0l-0.6,0.6l0.1,0.8c0,0,0,0,0,0l-0.7-0.4L10,5.3c0,0,0,0,0,0l0.1-0.8
		L9.5,3.9c0,0,0,0,0,0l0.8-0.1L10.7,3.1C10.7,3,10.7,3,10.7,3.1"/>
</g>
</svg>
