<svg version="1.1" id="Layer_1" xmlns="http://www.w3.org/2000/svg" xmlns:xlink="http://www.w3.org/1999/xlink" x="0px" y="0px" viewBox="0 0 80 48" style="enable-background:new 0 0 80 48;" xml:space="preserve">
								<style type="text/css">
									.st0{fill:#363fc8;}
									.st1{fill:#30c3c5;}
								</style>
								<g id="Layer_1_1_">
									<g>
										<path class="st0" d="M40,47.4l-0.4-0.2c-1-0.6-24.8-15.5-24.8-35c0-6.7,5.8-12.2,13-12.2c5.6,0,10.5,3.5,12.3,8.3
											c1.8-4.7,6.5-7.9,12.1-7.9c7.1,0,13,5.4,13,12.2c-0.2,19.1-23.8,34-24.7,34.6L40,47.4z M27.8,1.5c-6.3,0-11.5,4.8-11.5,10.7
											c0,17.4,20.4,31.4,23.6,33.5c3.2-2.1,23.5-16.1,23.6-33.1c0-5.9-5.2-10.7-11.4-10.7S40.7,6.6,40.7,12.6h-1.5v-0.4
											C39.2,6.2,34.2,1.5,27.8,1.5z"></path>
									</g>
									<g>
										<g>
											<polygon class="st1" points="48.9,6.6 50,6.2 56,19.7 54.9,20.1 			"></polygon>
										</g>
										<g>
											<polygon class="st1" points="45,15.5 59.4,9.9 59.9,10.9 45.5,16.5 			"></polygon>
										</g>
										<g>
											<polygon class="st1" points="48.9,19.7 54.9,6.2 56,6.6 50,20.1 			"></polygon>
										</g>
										<g>
											<polygon class="st1" points="45,10.9 45.5,9.9 59.9,15.5 59.4,16.5 			"></polygon>
										</g>
									</g>
								</g>
								</svg>