<?xml version="1.0" encoding="utf-8"?>
<!-- Generator: Adobe Illustrator 19.1.0, SVG Export Plug-In . SVG Version: 6.00 Build 0)  -->
<svg version="1.1" id="Layer_1" xmlns="http://www.w3.org/2000/svg" xmlns:xlink="http://www.w3.org/1999/xlink" x="0px" y="0px"
	 viewBox="0 0 16.1 14.5" style="enable-background:new 0 0 16.1 14.5;" xml:space="preserve">
<style type="text/css">
	.st0{fill:#163962;}
</style>
<g>
	<path class="st0" d="M8.1,12.9c-0.2,0-0.5-0.1-0.6-0.3L2.8,7.9C2,7.1,1.6,6,1.8,4.9C2,3.2,3.3,1.8,5,1.6c1.1-0.1,2.2,0.2,3,1
		c0.8-0.8,1.9-1.1,3-1c1.7,0.2,3,1.6,3.2,3.3c0.1,1.1-0.2,2.2-1,3l-4.7,4.7C8.5,12.8,8.3,12.9,8.1,12.9 M5.5,2.3c-0.1,0-0.3,0-0.4,0
		C3.7,2.5,2.6,3.6,2.5,5C2.4,5.9,2.7,6.8,3.3,7.4l4.6,4.7c0.1,0.1,0.2,0.1,0.3,0l4.7-4.7c0.6-0.7,0.9-1.5,0.8-2.4
		c-0.2-1.4-1.3-2.5-2.6-2.7c-1-0.1-2,0.2-2.7,1L8.1,3.6L7.8,3.3C7.2,2.6,6.4,2.3,5.5,2.3"/>
	<path class="st0" d="M11.5,3.8l0.4,0.7l0.8,0.1c0,0,0,0,0,0l-0.6,0.6L12.3,6c0,0,0,0,0,0l-0.7-0.4L10.8,6c0,0,0,0,0,0l0.1-0.8
		l-0.6-0.6c0,0,0,0,0,0l0.8-0.1L11.5,3.8C11.5,3.8,11.5,3.8,11.5,3.8"/>
</g>
</svg>
