<?xml version="1.0" encoding="utf-8"?>
<!-- Generator: Adobe Illustrator 21.1.0, SVG Export Plug-In . SVG Version: 6.00 Build 0)  -->
<svg version="1.1" id="Layer_1" xmlns="http://www.w3.org/2000/svg" xmlns:xlink="http://www.w3.org/1999/xlink" x="0px" y="0px"
	 viewBox="0 0 80 80" style="enable-background:new 0 0 80 80;" xml:space="preserve">
<style type="text/css">
	.st0{fill:#25CBD3;}
	.st1{fill:#FFFFFF;}
	.st2{fill:#4551A3;}
	.st3{font-family:'GTWalsheim-Bold';}
	.st4{font-size:15.593px;}
</style>
<image style="display:none;overflow:visible;" width="267" height="80" xlink:href="B480F7CD.jpg"  transform="matrix(1.1124 0 0 1.1124 -148.5 -3.4944)">
</image>
<g>
	<path class="st0" d="M40,43.6l-0.3-0.2c-0.9-0.5-21.1-14-21.1-31.8c0-6.1,5-11.1,11.1-11.1c4.8,0,9,3.2,10.5,7.5
		C41.6,3.9,45.7,1,50.4,1c6.1,0,11.1,5,11.1,11.1c-0.2,17.4-20.3,30.8-21.1,31.4L40,43.6z M29.6,1.9c-5.4,0-9.8,4.4-9.8,9.7
		c0,15.8,17.4,28.5,20.2,30.4c2.7-1.9,20-14.6,20.2-30.1c0-5.4-4.4-9.7-9.7-9.7s-9.7,4.4-9.7,9.7h-1.3v-0.4
		C39.3,6.3,35,1.9,29.6,1.9z"/>
</g>
<path class="st0" d="M40,9.3c0,0-2.6-9.7-11.9-7.8S19,12.9,19,12.9s2.7,12.4,8.9,18.8s12,10.5,12,10.5s9.1-5.8,12.6-10.9
	c3.6-5.1,9.1-12,7.6-20.7c0,0-0.9-9.2-9.2-8.9S43.3,5.5,40,9.3z"/>
<g>
	<g>
		<rect x="47.5" y="7.8" transform="matrix(0.9239 -0.3827 0.3827 0.9239 -1.8419 19.4623)" class="st1" width="1" height="13.2"/>
	</g>
	<g>
		<rect x="41.4" y="13.9" transform="matrix(0.9238 -0.3828 0.3828 0.9238 -1.8411 19.4681)" class="st1" width="13.2" height="1"/>
	</g>
	<g>
		<rect x="41.4" y="13.9" transform="matrix(0.3828 -0.9238 0.9238 0.3828 16.3641 53.2207)" class="st1" width="13.2" height="1"/>
	</g>
	<g>
		<rect x="47.5" y="7.8" transform="matrix(0.3827 -0.9239 0.9239 0.3827 16.3716 53.2243)" class="st1" width="1" height="13.2"/>
	</g>
</g>
<text transform="matrix(1 0 0 1 22.8633 65.0488)"><tspan x="0" y="0" class="st2 st3 st4">wish</tspan><tspan x="5.8" y="14.5" class="st2 st3 st4">list</tspan></text>
</svg>
