<?xml version="1.0" encoding="utf-8"?>
<!-- Generator: Adobe Illustrator 21.1.0, SVG Export Plug-In . SVG Version: 6.00 Build 0)  -->
<svg version="1.1" id="Layer_1" xmlns="http://www.w3.org/2000/svg" xmlns:xlink="http://www.w3.org/1999/xlink" x="0px" y="0px"
	 viewBox="0 0 200 154" style="enable-background:new 0 0 200 154;" xml:space="preserve">
<style type="text/css">
	.st0{fill:#FFFFFF;}
	.st1{fill:#A7A9AC;}
</style>
<g id="new_cart_x5F_qty_x5F_wish">
</g>
<g>
	<g>
		<path class="st0" d="M137.2,76.9c0,33-26.9,59.9-59.9,59.9s-59.9-26.9-59.9-59.9S44.3,17,77.3,17S137.2,43.9,137.2,76.9z"/>
		<path class="st1" d="M77.3,2.9c-40.9,0-74,33.2-74,74s33.2,74,74,74c40.9,0,74-33.2,74-74S118.2,2.9,77.3,2.9z M77.3,136.8
			c-33,0-59.9-26.9-59.9-59.9S44.3,17,77.3,17s59.9,26.9,59.9,59.9S110.3,136.8,77.3,136.8z"/>
	</g>
	<g>
		<path class="st1" d="M190.3,132.5c-0.9,0-1.9-0.2-2.8-0.6l-51.6-22.1c-3.6-1.5-5.3-5.7-3.7-9.3c1.5-3.6,5.7-5.3,9.3-3.7l51.6,22.1
			c3.6,1.5,5.3,5.7,3.7,9.3C195.7,130.9,193.1,132.5,190.3,132.5z"/>
	</g>
	<g>
		<g>
			<path class="st1" d="M85.9,51.1V72h19.7v11.7H85.9v20.9H72.4V83.7H52.7V72h19.7V51.1H85.9z"/>
		</g>
	</g>
</g>
</svg>
